<svg version="1.1" id="图层_1" xmlns="http://www.w3.org/2000/svg" x="0" y="0" viewBox="0 0 183.8 163.4" style="enable-background:new 0 0 183.8 163.4" xml:space="preserve"><path d="M67.5.9C93.7.9 115 22.2 115 48.4c0 17.4-9.4 32.6-23.4 40.9 28.1 9.1 48.4 35.5 48.4 66.6 0 4.1-3.4 7.5-7.5 7.5H7.5c-4.1 0-7.5-3.4-7.5-7.5 0-30 18.8-55.5 45.3-65.5-15-8-25.3-23.8-25.3-42C20 22.1 41.3.9 67.5.9zm2.5 100c-27.6 0-50.5 20.4-54.4 46.9l-.1.6h109l-.1-.6c-3.8-26.3-26.3-46.5-53.5-46.9H70zm-2.5-85C49.6 15.9 35 30.4 35 48.4s14.5 32.5 32.5 32.5S100 66.3 100 48.4 85.4 15.9 67.5 15.9z" style="fill:#4a5568"/><path d="M133.8.1c21.3 3.8 37.4 23 37.4 44.9 0 15.7-7.8 29.7-20 38 21.5 11.9 32.5 33.2 32.5 62.9 0 4.1-3.4 7.5-7.5 7.5s-7.5-3.4-7.5-7.5c0-30.1-12.5-47.9-38.3-55.3-3.4-1-5.6-4.1-5.4-7.6-.2-3.8 2.5-7.2 6.3-7.8 14.2-2.2 24.9-15 24.9-30.1 0-14.6-10.9-27.6-25.1-30.1-4.1-.7-6.8-4.6-6.1-8.7.9-4.2 4.8-6.9 8.8-6.2z" style="fill:#1d87d7"/></svg>