<?xml version="1.0" encoding="utf-8"?>
<!-- Generator: Adobe Illustrator 25.2.0, SVG Export Plug-In . SVG Version: 6.00 Build 0)  -->
<svg version="1.1" id="图层_1" xmlns="http://www.w3.org/2000/svg" xmlns:xlink="http://www.w3.org/1999/xlink" x="0px" y="0px"
	 viewBox="0 0 183.8 163.4" style="enable-background:new 0 0 183.8 163.4;" xml:space="preserve">
<style type="text/css">
	.st0{fill:#4a5568;}
	.st1{fill:#1D87D7;}
</style>
<path class="st0" d="M67.5,0.9c26.2,0,47.5,21.3,47.5,47.5c0,17.4-9.4,32.6-23.4,40.9c28.1,9.1,48.4,35.5,48.4,66.6
	c0,4.1-3.4,7.5-7.5,7.5l0,0H7.5c-4.1,0-7.5-3.4-7.5-7.5c0,0,0,0,0,0c0-30,18.8-55.5,45.3-65.5c-15-8-25.3-23.8-25.3-42
	C20,22.1,41.3,0.9,67.5,0.9z M70,100.9c-27.6,0-50.5,20.4-54.4,46.9l-0.1,0.6h109l-0.1-0.6c-3.8-26.3-26.3-46.5-53.5-46.9L70,100.9z
	 M67.5,15.9C49.6,15.9,35,30.4,35,48.4s14.5,32.5,32.5,32.5S100,66.3,100,48.4S85.4,15.9,67.5,15.9z"/>
<path class="st1" d="M133.8,0.1c21.3,3.8,37.4,23,37.4,44.9c0,15.7-7.8,29.7-20,38c21.5,11.9,32.5,33.2,32.5,62.9
	c0,4.1-3.4,7.5-7.5,7.5c-4.1,0-7.5-3.4-7.5-7.5c0-30.1-12.5-47.9-38.3-55.3c-3.4-1-5.6-4.1-5.4-7.6c-0.2-3.8,2.5-7.2,6.3-7.8
	c14.2-2.2,24.9-15,24.9-30.1c0-14.6-10.9-27.6-25.1-30.1c-4.1-0.7-6.8-4.6-6.1-8.7C125.9,2.1,129.8-0.6,133.8,0.1z"/>
</svg>
