<?xml version="1.0" encoding="utf-8"?>
<!-- Generator: Adobe Illustrator 25.2.0, SVG Export Plug-In . SVG Version: 6.00 Build 0)  -->
<svg version="1.1" id="图层_1" xmlns="http://www.w3.org/2000/svg" xmlns:xlink="http://www.w3.org/1999/xlink" x="0px" y="0px"
	 viewBox="0 0 165 190" style="enable-background:new 0 0 165 190;" xml:space="preserve">
<style type="text/css">
	.st0{fill:#4a5568;}
	.st1{fill:#1D87D7;}
</style>
<path class="st0" d="M147.5,0c9.7,0,17.5,7.8,17.5,17.5v155c0,9.7-7.8,17.5-17.5,17.5h-130C7.8,190,0,182.2,0,172.5v-155
	C0,7.8,7.8,0,17.5,0c0,0,0,0,0,0H147.5z M82.5,120C52,120,26.8,142.7,23,172.2l0,0.3H142l-0.2-1.2c-4.2-28.7-28.7-50.8-58.4-51.3
	L82.5,120z M147.5,15h-130c-1.4,0-2.5,1.1-2.5,2.5l0,0v129.8c12.2-25,37.8-42.3,67.5-42.3c29.7,0,55.4,17.3,67.5,42.3l0-129.8
	C150,16.1,148.9,15,147.5,15z"/>
<path class="st1" d="M82.5,35C59,35,40,54,40,77.5S59,120,82.5,120S125,101,125,77.5S106,35,82.5,35z M82.5,50
	C97.7,50,110,62.3,110,77.5S97.7,105,82.5,105S55,92.7,55,77.5S67.3,50,82.5,50z"/>
</svg>
