<svg version="1.1" id="图层_1" xmlns="http://www.w3.org/2000/svg" x="0" y="0" viewBox="0 0 165 190" style="enable-background:new 0 0 165 190" xml:space="preserve"><path d="M147.5 0c9.7 0 17.5 7.8 17.5 17.5v155c0 9.7-7.8 17.5-17.5 17.5h-130C7.8 190 0 182.2 0 172.5v-155C0 7.8 7.8 0 17.5 0h130zm-65 120C52 120 26.8 142.7 23 172.2v.3h119l-.2-1.2c-4.2-28.7-28.7-50.8-58.4-51.3h-.9zm65-105h-130c-1.4 0-2.5 1.1-2.5 2.5v129.8c12.2-25 37.8-42.3 67.5-42.3 29.7 0 55.4 17.3 67.5 42.3V17.5c0-1.4-1.1-2.5-2.5-2.5z" style="fill:#4a5568"/><path d="M82.5 35C59 35 40 54 40 77.5S59 120 82.5 120 125 101 125 77.5 106 35 82.5 35zm0 15C97.7 50 110 62.3 110 77.5S97.7 105 82.5 105 55 92.7 55 77.5 67.3 50 82.5 50z" style="fill:#1d87d7"/></svg>