<?xml version="1.0" encoding="utf-8"?>
<!-- Generator: Adobe Illustrator 25.2.0, SVG Export Plug-In . SVG Version: 6.00 Build 0)  -->
<svg version="1.1" id="图层_1" xmlns="http://www.w3.org/2000/svg" xmlns:xlink="http://www.w3.org/1999/xlink" x="0px" y="0px"
	 viewBox="0 0 175 195" style="enable-background:new 0 0 175 195;" xml:space="preserve">
<style type="text/css">
	.st0{fill:#1D87D7;}
	.st1{fill:#4a5568;}
</style>
<path class="st0" d="M132.5,110c23.5,0,42.5,19,42.5,42.5S156,195,132.5,195S90,176,90,152.5S109,110,132.5,110L132.5,110z
	 M132.5,125c-15.2,0-27.5,12.3-27.5,27.5s12.3,27.5,27.5,27.5s27.5-12.3,27.5-27.5S147.7,125,132.5,125z M130,132.5
	c4,0,7.3,3.1,7.5,7.1l0,0.4v7.5h7.5c4.1,0,7.5,3.4,7.5,7.5c0,4-3.1,7.3-7.1,7.5l-0.4,0h-15c-4,0-7.3-3.1-7.5-7.1l0-0.4v-15
	C122.5,135.9,125.9,132.5,130,132.5L130,132.5L130,132.5z"/>
<path class="st1" d="M147.5,0c9.4,0,17.2,7.5,17.5,16.9l0,0.6V95c0,4.1-3.4,7.5-7.5,7.5c-4,0-7.3-3.1-7.5-7.1l0-0.4V17.5
	c0-1.3-0.9-2.3-2.2-2.5l-0.3,0h-130c-1.3,0-2.3,0.9-2.5,2.2l0,0.3v155c0,1.3,0.9,2.3,2.2,2.5l0.3,0h58.1c4.1,0,7.5,3.4,7.5,7.5
	c0,4-3.1,7.3-7.1,7.5l-0.4,0H17.5c-9.4,0-17.2-7.5-17.5-16.9l0-0.6v-155C0,8.1,7.5,0.3,16.9,0l0.6,0H147.5L147.5,0z M70,132.5
	c4.1,0,7.5,3.4,7.5,7.5c0,4-3.1,7.3-7.1,7.5l-0.4,0H40c-4.1,0-7.5-3.4-7.5-7.5c0-4,3.1-7.3,7.1-7.5l0.4,0
	C40,132.5,70,132.5,70,132.5z M90,87.5c4.1,0,7.5,3.4,7.5,7.5c0,4-3.1,7.3-7.1,7.5l-0.4,0H40c-4.1,0-7.5-3.4-7.5-7.5
	c0-4,3.1-7.3,7.1-7.5l0.4,0C40,87.5,90,87.5,90,87.5z M125,42.5c4.1,0,7.5,3.4,7.5,7.5c0,4-3.1,7.3-7.1,7.5l-0.4,0H40
	c-4.1,0-7.5-3.4-7.5-7.5c0-4,3.1-7.3,7.1-7.5l0.4,0C40,42.5,125,42.5,125,42.5z"/>
</svg>
