<svg version="1.1" id="图层_1" xmlns="http://www.w3.org/2000/svg" x="0" y="0" viewBox="0 0 175 195" style="enable-background:new 0 0 175 195" xml:space="preserve"><path d="M132.5 110c23.5 0 42.5 19 42.5 42.5S156 195 132.5 195 90 176 90 152.5s19-42.5 42.5-42.5zm0 15c-15.2 0-27.5 12.3-27.5 27.5s12.3 27.5 27.5 27.5 27.5-12.3 27.5-27.5-12.3-27.5-27.5-27.5zm-2.5 7.5c4 0 7.3 3.1 7.5 7.1v7.9h7.5c4.1 0 7.5 3.4 7.5 7.5 0 4-3.1 7.3-7.1 7.5H130c-4 0-7.3-3.1-7.5-7.1V140c0-4.1 3.4-7.5 7.5-7.5z" style="fill:#1d87d7"/><path d="M147.5 0c9.4 0 17.2 7.5 17.5 16.9V95c0 4.1-3.4 7.5-7.5 7.5-4 0-7.3-3.1-7.5-7.1V17.5c0-1.3-.9-2.3-2.2-2.5H17.5c-1.3 0-2.3.9-2.5 2.2v155.3c0 1.3.9 2.3 2.2 2.5h58.4c4.1 0 7.5 3.4 7.5 7.5 0 4-3.1 7.3-7.1 7.5H17.5C8.1 190 .3 182.5 0 173.1V17.5C0 8.1 7.5.3 16.9 0h130.6zM70 132.5c4.1 0 7.5 3.4 7.5 7.5 0 4-3.1 7.3-7.1 7.5H40c-4.1 0-7.5-3.4-7.5-7.5 0-4 3.1-7.3 7.1-7.5H70zm20-45c4.1 0 7.5 3.4 7.5 7.5 0 4-3.1 7.3-7.1 7.5H40c-4.1 0-7.5-3.4-7.5-7.5 0-4 3.1-7.3 7.1-7.5H90zm35-45c4.1 0 7.5 3.4 7.5 7.5 0 4-3.1 7.3-7.1 7.5H40c-4.1 0-7.5-3.4-7.5-7.5 0-4 3.1-7.3 7.1-7.5H125z" style="fill:#4a5568"/></svg>