<?xml version="1.0" encoding="utf-8"?>
<!-- Generator: Adobe Illustrator 25.2.0, SVG Export Plug-In . SVG Version: 6.00 Build 0)  -->
<svg version="1.1" id="图层_1" xmlns="http://www.w3.org/2000/svg" xmlns:xlink="http://www.w3.org/1999/xlink" x="0px" y="0px"
	 viewBox="0 0 200 162.5" style="enable-background:new 0 0 200 162.5;" xml:space="preserve">
<style type="text/css">
	.st0{fill:#1D87D7;}
	.st1{fill:#4a5568;}
</style>
<path class="st0" d="M100,36.3c4,0,7.3,3.1,7.5,7.1l0,0.4v30h55c10.8,0,19.7,8.6,20,19.4l0,0.6v18.8c0,4.1-3.4,7.5-7.5,7.5
	c-4,0-7.3-3.1-7.5-7.1l0-0.4V93.8c0-2.6-2-4.8-4.6-5l-0.4,0h-55v23.8c0,4.1-3.4,7.5-7.5,7.5c-4,0-7.3-3.1-7.5-7.1l0-0.4V88.8h-55
	c-2.6,0-4.8,2-5,4.6l0,0.4v18.8c0,4.1-3.4,7.5-7.5,7.5c-4,0-7.3-3.1-7.5-7.1l0-0.4V93.8c0-10.8,8.6-19.7,19.4-20l0.6,0h55v-30
	C92.5,39.6,95.9,36.3,100,36.3z"/>
<path class="st1" d="M37.5,112.5c6.9,0,12.5,5.6,12.5,12.5v25c0,6.9-5.6,12.5-12.5,12.5h-25C5.6,162.5,0,156.9,0,150v-25
	c0-6.9,5.6-12.5,12.5-12.5H37.5z M112.5,112.5c6.9,0,12.5,5.6,12.5,12.5v25c0,6.9-5.6,12.5-12.5,12.5h-25c-6.9,0-12.5-5.6-12.5-12.5
	v-25c0-6.9,5.6-12.5,12.5-12.5H112.5z M187.5,112.5c6.9,0,12.5,5.6,12.5,12.5v25c0,6.9-5.6,12.5-12.5,12.5h-25
	c-6.9,0-12.5-5.6-12.5-12.5v-25c0-6.9,5.6-12.5,12.5-12.5H187.5z M35,127.5H15v20h20V127.5z M110,127.5H90v20h20V127.5z M185,127.5
	h-20v20h20V127.5z M125,0c6.9,0,12.5,5.6,12.5,12.5v25c0,6.9-5.6,12.5-12.5,12.5H75c-6.9,0-12.5-5.6-12.5-12.5v-25
	C62.5,5.6,68.1,0,75,0H125z M122.5,15h-45v20h45L122.5,15L122.5,15z"/>
</svg>
