<svg version="1.1" id="图层_1" xmlns="http://www.w3.org/2000/svg" x="0" y="0" viewBox="0 0 200 162.5" style="enable-background:new 0 0 200 162.5" xml:space="preserve"><path d="M100 36.3c4 0 7.3 3.1 7.5 7.1v30.4h55c10.8 0 19.7 8.6 20 19.4V112.6c0 4.1-3.4 7.5-7.5 7.5-4 0-7.3-3.1-7.5-7.1V93.8c0-2.6-2-4.8-4.6-5h-55.4v23.8c0 4.1-3.4 7.5-7.5 7.5-4 0-7.3-3.1-7.5-7.1V88.8h-55c-2.6 0-4.8 2-5 4.6v19.2c0 4.1-3.4 7.5-7.5 7.5-4 0-7.3-3.1-7.5-7.1V93.8c0-10.8 8.6-19.7 19.4-20h55.6v-30c0-4.2 3.4-7.5 7.5-7.5z" style="fill:#1d87d7"/><path d="M37.5 112.5c6.9 0 12.5 5.6 12.5 12.5v25c0 6.9-5.6 12.5-12.5 12.5h-25C5.6 162.5 0 156.9 0 150v-25c0-6.9 5.6-12.5 12.5-12.5h25zm75 0c6.9 0 12.5 5.6 12.5 12.5v25c0 6.9-5.6 12.5-12.5 12.5h-25c-6.9 0-12.5-5.6-12.5-12.5v-25c0-6.9 5.6-12.5 12.5-12.5h25zm75 0c6.9 0 12.5 5.6 12.5 12.5v25c0 6.9-5.6 12.5-12.5 12.5h-25c-6.9 0-12.5-5.6-12.5-12.5v-25c0-6.9 5.6-12.5 12.5-12.5h25zM35 127.5H15v20h20v-20zm75 0H90v20h20v-20zm75 0h-20v20h20v-20zM125 0c6.9 0 12.5 5.6 12.5 12.5v25c0 6.9-5.6 12.5-12.5 12.5H75c-6.9 0-12.5-5.6-12.5-12.5v-25C62.5 5.6 68.1 0 75 0h50zm-2.5 15h-45v20h45V15z" style="fill:#4a5568"/></svg>