<svg version="1.1" id="图层_1" xmlns="http://www.w3.org/2000/svg" x="0" y="0" viewBox="0 0 200 187.5" style="enable-background:new 0 0 200 187.5" xml:space="preserve"><path d="M186.8 2.7c2.7-3.2 7.4-3.6 10.6-.9 3 2.6 3.5 7 1.2 10.2l-.3.4-97 114.9c-.7.8-1.1 1.8-1.2 2.8V180c0 4.1-3.4 7.5-7.5 7.5-4 0-7.3-3.1-7.5-7.1v-49.9c0-4.4 1.5-8.8 4.2-12.3l.5-.6c-.1 0 97-114.9 97-114.9z" style="fill:#1d87d7"/><path d="M189.1.8c5.4-2.7 11.6 1.7 10.8 7.6l-.1.4-25.7 145c-.7 4.1-4.6 6.8-8.7 6.1-.2 0-.4-.1-.6-.1l-.4-.1-62.1-20.2c-3.9-1.3-6.1-5.5-4.8-9.4 1.2-3.8 5.2-6 9-4.9l.4.1 53.9 17.5L182.5 21 27.1 99.2 73 114.1c3.8 1.2 5.9 5.2 4.9 9l-.1.4c-1.2 3.8-5.2 5.9-9 4.9l-.4-.1-63.2-20.4c-6.2-2-7-10.4-1.5-13.6l.4-.3L189.1.8z" style="fill:#4a5568"/></svg>