<?xml version="1.0" encoding="utf-8"?>
<!-- Generator: Adobe Illustrator 25.2.0, SVG Export Plug-In . SVG Version: 6.00 Build 0)  -->
<svg version="1.1" id="图层_1" xmlns="http://www.w3.org/2000/svg" xmlns:xlink="http://www.w3.org/1999/xlink" x="0px" y="0px"
	 viewBox="0 0 200 187.5" style="enable-background:new 0 0 200 187.5;" xml:space="preserve">
<style type="text/css">
	.st0{fill:#1D87D7;}
	.st1{fill:#4a5568;}
</style>
<path class="st0" d="M186.8,2.7c2.7-3.2,7.4-3.6,10.6-0.9c3,2.6,3.5,7,1.2,10.2l-0.3,0.4l-97,114.9c-0.7,0.8-1.1,1.8-1.2,2.8l0,0.4
	V180c0,4.1-3.4,7.5-7.5,7.5c-4,0-7.3-3.1-7.5-7.1l0-0.4v-49.5c0-4.4,1.5-8.8,4.2-12.3l0.5-0.6C89.7,117.6,186.8,2.7,186.8,2.7z"/>
<path class="st1" d="M189.1,0.8c5.4-2.7,11.6,1.7,10.8,7.6l-0.1,0.4l-25.7,145c-0.7,4.1-4.6,6.8-8.7,6.1c-0.2,0-0.4-0.1-0.6-0.1
	l-0.4-0.1l-62.1-20.2c-3.9-1.3-6.1-5.5-4.8-9.4c1.2-3.8,5.2-6,9-4.9l0.4,0.1l53.9,17.5L182.5,21L27.1,99.2l45.9,14.9
	c3.8,1.2,5.9,5.2,4.9,9l-0.1,0.4c-1.2,3.8-5.2,5.9-9,4.9l-0.4-0.1L5.2,107.9c-6.2-2-7-10.4-1.5-13.6L4.1,94L189.1,0.8L189.1,0.8z"/>
</svg>
