<?xml version="1.0" encoding="utf-8"?>
<!-- Generator: Adobe Illustrator 25.2.0, SVG Export Plug-In . SVG Version: 6.00 Build 0)  -->
<svg version="1.1" id="图层_1" xmlns="http://www.w3.org/2000/svg" xmlns:xlink="http://www.w3.org/1999/xlink" x="0px" y="0px"
	 viewBox="0 0 183.6 181.9" style="enable-background:new 0 0 183.6 181.9;" xml:space="preserve">
<style type="text/css">
	.st0{fill:#4a5568;}
	.st1{fill:#1D87D7;}
</style>
<path class="st0" d="M127.4,102.8c5.2,3,8.5,8.5,8.7,14.5l0,0.7v31c0,6-3.1,11.6-8.2,14.8l-0.6,0.3l-26.8,15.5
	c-5.2,3-11.6,3.1-16.9,0.4l-0.6-0.4l-26.8-15.5c-5.2-3-8.5-8.5-8.7-14.5l0-0.7v-31c0-6.3,3.3-12,8.7-15.2c3.6-2.1,8.2-0.9,10.3,2.7
	c2.1,3.6,0.9,8.2-2.7,10.3c0,0-0.1,0-0.1,0c-0.7,0.4-1.1,1.1-1.2,1.9l0,0.3v31c0,0.8,0.4,1.5,1,2l0.3,0.2l26.8,15.5
	c0.7,0.4,1.5,0.4,2.2,0.1l0.3-0.1l26.8-15.5c0.7-0.4,1.1-1.1,1.2-1.9l0-0.3v-31c0-0.9-0.5-1.7-1.3-2.2c-3.6-2-4.9-6.6-2.8-10.2
	C119.1,102,123.7,100.7,127.4,102.8C127.3,102.8,127.3,102.8,127.4,102.8L127.4,102.8z M147.4,4.5l0.6,0.3l26.8,15.5
	c5.2,3,8.5,8.5,8.7,14.5l0,0.7v31c0,6-3.1,11.6-8.2,14.8l-0.6,0.3l-26.8,15.5c-5.4,3.1-12.1,3.1-17.5,0c-3.6-2.1-4.8-6.7-2.7-10.3
	c2.1-3.5,6.6-4.8,10.2-2.7c0.7,0.4,1.5,0.4,2.2,0.1l0.3-0.1l26.8-15.5c0.7-0.4,1.1-1.1,1.2-1.9l0-0.3v-31c0-0.8-0.4-1.5-1-2
	l-0.3-0.2l-26.8-15.5c-0.7-0.4-1.5-0.4-2.2-0.1l-0.3,0.1l-26.8,15.5c-0.8,0.4-1.2,1.3-1.3,2.2c0,4.1-3.4,7.5-7.5,7.5
	c-4.1,0-7.5-3.4-7.5-7.5c0,0,0,0,0,0c0-6,3.1-11.6,8.2-14.8l0.6-0.3l26.8-15.5C135.7,1.8,142.1,1.7,147.4,4.5z M52.4,2l0.6,0.4
	l26.8,15.5c5.4,3.1,8.7,8.9,8.8,15.2c0,4.1-3.4,7.5-7.5,7.5c-4.1,0-7.5-3.4-7.5-7.5c0-0.8-0.4-1.5-1-2l-0.3-0.2L45.6,15.3
	c-0.7-0.4-1.5-0.4-2.2-0.1l-0.3,0.1L16.2,30.8c-0.7,0.4-1.1,1.1-1.2,1.9l0,0.3v31c0,0.8,0.4,1.5,1,2l0.2,0.2l26.8,15.5
	c0.8,0.4,1.7,0.4,2.5,0c3.6-2.1,8.2-0.9,10.3,2.7s0.9,8.2-2.7,10.3c0,0-0.1,0-0.1,0c-5.2,3-11.6,3.1-16.9,0.3l-0.6-0.3L8.8,79.1
	c-5.2-3-8.5-8.5-8.7-14.5l0-0.7V33c0-6,3.1-11.6,8.2-14.8l0.6-0.3L35.6,2.3C40.7-0.7,47.1-0.8,52.4,2z"/>
<path class="st1" d="M83.1,29.8L56.2,45.3c-5.4,3.1-8.7,8.9-8.8,15.2v31c0,6.3,3.3,12,8.8,15.2l26.8,15.5c5.4,3.1,12.1,3.1,17.5,0
	l26.8-15.5c5.4-3.1,8.7-8.9,8.8-15.2v-31c0-6.3-3.3-12-8.8-15.2l-26.8-15.5C95.1,26.7,88.5,26.7,83.1,29.8z M93.1,42.8l26.8,15.5
	c0.8,0.4,1.2,1.3,1.3,2.2v31c0,0.9-0.5,1.7-1.3,2.2l-26.8,15.5c-0.8,0.4-1.7,0.4-2.5,0L63.8,93.6c-0.8-0.4-1.2-1.3-1.2-2.2v-31
	c0-0.9,0.5-1.7,1.2-2.2l26.8-15.5C91.3,42.4,92.3,42.4,93.1,42.8z"/>
</svg>
