<svg version="1.1" id="图层_1" xmlns="http://www.w3.org/2000/svg" x="0" y="0" viewBox="0 0 183.6 181.9" style="enable-background:new 0 0 183.6 181.9" xml:space="preserve"><path d="M127.4 102.8c5.2 3 8.5 8.5 8.7 14.5V149c0 6-3.1 11.6-8.2 14.8l-.6.3-26.8 15.5c-5.2 3-11.6 3.1-16.9.4l-.6-.4-26.8-15.5c-5.2-3-8.5-8.5-8.7-14.5v-31.7c0-6.3 3.3-12 8.7-15.2 3.6-2.1 8.2-.9 10.3 2.7 2.1 3.6.9 8.2-2.7 10.3h-.1c-.7.4-1.1 1.1-1.2 1.9v31.3c0 .8.4 1.5 1 2l.3.2 26.8 15.5c.7.4 1.5.4 2.2.1l.3-.1 26.8-15.5c.7-.4 1.1-1.1 1.2-1.9v-31.3c0-.9-.5-1.7-1.3-2.2-3.6-2-4.9-6.6-2.8-10.2 2.1-3.5 6.7-4.8 10.4-2.7-.1 0-.1 0 0 0zm20-98.3.6.3 26.8 15.5c5.2 3 8.5 8.5 8.7 14.5v31.7c0 6-3.1 11.6-8.2 14.8l-.6.3-26.8 15.5c-5.4 3.1-12.1 3.1-17.5 0-3.6-2.1-4.8-6.7-2.7-10.3 2.1-3.5 6.6-4.8 10.2-2.7.7.4 1.5.4 2.2.1l.3-.1 26.8-15.5c.7-.4 1.1-1.1 1.2-1.9V35.4c0-.8-.4-1.5-1-2l-.3-.2-26.8-15.5c-.7-.4-1.5-.4-2.2-.1l-.3.1L111 33.2c-.8.4-1.2 1.3-1.3 2.2 0 4.1-3.4 7.5-7.5 7.5s-7.5-3.4-7.5-7.5c0-6 3.1-11.6 8.2-14.8l.6-.3 26.8-15.5c5.4-3 11.8-3.1 17.1-.3zM52.4 2l.6.4 26.8 15.5c5.4 3.1 8.7 8.9 8.8 15.2 0 4.1-3.4 7.5-7.5 7.5s-7.5-3.4-7.5-7.5c0-.8-.4-1.5-1-2l-.3-.2-26.7-15.6c-.7-.4-1.5-.4-2.2-.1l-.3.1-26.9 15.5c-.7.4-1.1 1.1-1.2 1.9V64c0 .8.4 1.5 1 2l.2.2L43 81.7c.8.4 1.7.4 2.5 0 3.6-2.1 8.2-.9 10.3 2.7s.9 8.2-2.7 10.3H53c-5.2 3-11.6 3.1-16.9.3l-.6-.3L8.8 79.1C3.6 76.1.3 70.6.1 64.6V33c0-6 3.1-11.6 8.2-14.8l.6-.3L35.6 2.3c5.1-3 11.5-3.1 16.8-.3z" style="fill:#4a5568"/><path d="M83.1 29.8 56.2 45.3c-5.4 3.1-8.7 8.9-8.8 15.2v31c0 6.3 3.3 12 8.8 15.2L83 122.2c5.4 3.1 12.1 3.1 17.5 0l26.8-15.5c5.4-3.1 8.7-8.9 8.8-15.2v-31c0-6.3-3.3-12-8.8-15.2l-26.8-15.5c-5.4-3.1-12-3.1-17.4 0zm10 13 26.8 15.5c.8.4 1.2 1.3 1.3 2.2v31c0 .9-.5 1.7-1.3 2.2l-26.8 15.5c-.8.4-1.7.4-2.5 0L63.8 93.6c-.8-.4-1.2-1.3-1.2-2.2v-31c0-.9.5-1.7 1.2-2.2l26.8-15.5c.7-.3 1.7-.3 2.5.1z" style="fill:#1d87d7"/></svg>