<svg xmlns="http://www.w3.org/2000/svg"><defs><font id="Eva-Icons" horiz-adv-x="600"><font-face font-family="Eva-Icons" units-per-em="600" ascent="600" descent="0"/><glyph glyph-name="activity" unicode="" horiz-adv-x="600" d="M358.25 100H353a50 50 0 0 0-44 39.5L242 450l-69-160a25 25 0 0 0-23-15H75a25 25 0 0 0 0 50h58.5l62.75 144.75a50 50 0 0 0 94.75-9.5L358 150l69 159.5a25 25 0 0 0 23 15.5h75a25 25 0 0 0 0-50h-58.5l-62.75-144.75a50 50 0 0 0-45.5-30.25z"/><glyph glyph-name="activity-outline" unicode="" horiz-adv-x="600" d="M358.25 100H353a50 50 0 0 0-44 39.5L242 450l-69-160a25 25 0 0 0-23-15H75a25 25 0 0 0 0 50h58.5l62.75 144.75a50 50 0 0 0 94.75-9.5L358 150l69 159.5a25 25 0 0 0 23 15.5h75a25 25 0 0 0 0-50h-58.5l-62.75-144.75a50 50 0 0 0-45.5-30.25z"/><glyph glyph-name="alert-circle" unicode="" horiz-adv-x="600" d="M300 550a250 250 0 1 1 250-250 250 250 0 0 1-250 250zm0-375a25 25 0 1 0 25 25 25 25 0 0 0-25-25zm25 100a25 25 0 0 0-50 0v125a25 25 0 0 0 50 0z"/><glyph glyph-name="alert-circle-outline" unicode="" horiz-adv-x="600" d="M300 550a250 250 0 1 1 250-250 250 250 0 0 1-250 250zm0-450a200 200 0 1 0 200 200 200 200 0 0 0-200-200zm-25 100a25 25 0 0 1 50 0 25 25 0 0 1-50 0m25 225a25 25 0 0 1-25-25V275a25 25 0 0 1 50 0v125a25 25 0 0 1-25 25z"/><glyph glyph-name="alert-triangle" unicode="" horiz-adv-x="600" d="m564 192.5-191.75 318a85.75 85.75 0 0 1-144.5 0L36 192.5a75 75 0 0 1-1.25-75 84.25 84.25 0 0 1 73.5-42.5h383.5a84.25 84.25 0 0 1 73.5 41.5 75 75 0 0 1-1.25 76zM300 175a25 25 0 1 0 25 25 25 25 0 0 0-25-25zm25 100a25 25 0 0 0-50 0v100a25 25 0 0 0 50 0z"/><glyph glyph-name="alert-triangle-outline" unicode="" horiz-adv-x="600" d="m564 192.5-191.75 318a85.75 85.75 0 0 1-144.5 0L36 192.5a75 75 0 0 1-1.25-75 84.25 84.25 0 0 1 73.5-42.5h383.5a84.25 84.25 0 0 1 73.5 41.5 75 75 0 0 1-1.25 76zm-42.5-51.25A32.75 32.75 0 0 0 491.75 125h-383.5a32.75 32.75 0 0 0-29.75 16.25 25 25 0 0 0 0 25l192 318.25a37 37 0 0 0 59 0l191.75-318a25 25 0 0 0 .25-25.25zM275 200a25 25 0 0 1 50 0 25 25 0 0 1-50 0m25 200a25 25 0 0 1-25-25V275a25 25 0 0 1 50 0v100a25 25 0 0 1-25 25z"/><glyph glyph-name="archive" unicode="" horiz-adv-x="600" d="M450 525H150a75 75 0 0 1-50-130.5V150a75 75 0 0 1 75-75h250a75 75 0 0 1 75 75v244.5A75 75 0 0 1 450 525zm-75-253.25A21.75 21.75 0 0 0 353.25 250h-106.5A21.75 21.75 0 0 0 225 271.75v6.5A21.75 21.75 0 0 0 246.75 300h106.5A21.75 21.75 0 0 0 375 278.25zM450 425H150a25 25 0 0 0 0 50h300a25 25 0 0 0 0-50z"/><glyph glyph-name="archive-outline" unicode="" horiz-adv-x="600" d="M525 450a75 75 0 0 1-75 75H150a75 75 0 0 1-50-130.5V150a75 75 0 0 1 75-75h250a75 75 0 0 1 75 75v244.5a75 75 0 0 1 25 55.5zm-375 25h300a25 25 0 0 0 0-50H150a25 25 0 0 0 0 50zm300-325a25 25 0 0 0-25-25H175a25 25 0 0 0-25 25v225h300zM246.75 300h106.5A21.75 21.75 0 0 0 375 278.25v-6.5A21.75 21.75 0 0 0 353.25 250h-106.5A21.75 21.75 0 0 0 225 271.75v6.5A21.75 21.75 0 0 0 246.75 300z"/><glyph glyph-name="arrow-back" unicode="" horiz-adv-x="600" d="M475 325H178.5l90.75 109a25 25 0 1 1-38.5 32l-125-150a29.75 29.75 0 0 1-2.25-3.75c0-1.25 0-2-1.75-3.25a25 25 0 0 1-1.75-9 25 25 0 0 1 1.75-9c0-1.25 0-2 1.75-3.25a29.75 29.75 0 0 1 2.25-3.75l125-150a25 25 0 0 1 19.25-9 25 25 0 0 1 16 5.75 25 25 0 0 1 3.25 35.25L178.5 275H475a25 25 0 0 1 0 50z"/><glyph glyph-name="arrow-back-outline" unicode="" horiz-adv-x="600" d="M475 325H178.5l90.75 109a25 25 0 1 1-38.5 32l-125-150a29.75 29.75 0 0 1-2.25-3.75c0-1.25 0-2-1.75-3.25a25 25 0 0 1-1.75-9 25 25 0 0 1 1.75-9c0-1.25 0-2 1.75-3.25a29.75 29.75 0 0 1 2.25-3.75l125-150a25 25 0 0 1 19.25-9 25 25 0 0 1 16 5.75 25 25 0 0 1 3.25 35.25L178.5 275H475a25 25 0 0 1 0 50z"/><glyph glyph-name="arrow-circle-down" unicode="" horiz-adv-x="600" d="M300 550a250 250 0 1 1 250-250 250 250 0 0 1-250 250zm92.25-296.5-75-71.5a12.25 12.25 0 0 0-3.75-2.5 13.5 13.5 0 0 0-4-2.5 23.5 23.5 0 0 0-19 0 25 25 0 0 0-8.25 5.25l-75 75a25 25 0 0 0 35.5 35.5l32.25-32.5V400a25 25 0 0 0 50 0V258.5l32.75 31.25a25 25 0 0 0 34.5-36.25z"/><glyph glyph-name="arrow-circle-down-outline" unicode="" horiz-adv-x="600" d="M357.75 289.75 325 258.5V400a25 25 0 0 1-50 0V260.25l-32.25 32.5a25 25 0 0 1-35.5-35.5l75-75a25 25 0 0 1 8.25-5.25 23.5 23.5 0 0 1 19 0 13.5 13.5 0 0 1 4 2.5 12.25 12.25 0 0 1 3.75 2.5l75 71.5a25 25 0 0 1-34.5 36.25zM300 550a250 250 0 1 1 250-250 250 250 0 0 1-250 250zm0-450a200 200 0 1 0 200 200 200 200 0 0 0-200-200z"/><glyph glyph-name="arrow-circle-left" unicode="" horiz-adv-x="600" d="M550 300A250 250 0 1 1 300 50a250 250 0 0 1 250 250zm-296.5-92.25-71.5 75a12.25 12.25 0 0 0-2.5 3.75 13.5 13.5 0 0 0-2.5 4 23.5 23.5 0 0 0 0 19 25 25 0 0 0 5.25 8.25l75 75a25 25 0 0 0 35.5-35.5L260.25 325H400a25 25 0 0 0 0-50H258.5l31.25-32.75a25 25 0 0 0-36.25-34.5z"/><glyph glyph-name="arrow-circle-left-outline" unicode="" horiz-adv-x="600" d="M400 325H258.5l31.25 32.75a25 25 0 0 1-36.25 34.5l-71.5-75a25 25 0 0 1-2.25-3.25 18 18 0 0 1-2.75-4.75 22 22 0 0 1-1.5-7L175 300a25 25 0 0 1 2-9.5 25 25 0 0 1 5.25-8l75-75a25 25 0 0 1 35.5 0 25 25 0 0 1 0 35.5l-32.5 32H400a25 25 0 0 1 0 50zM300 550a250 250 0 1 1 250-250 250 250 0 0 1-250 250zm0-450a200 200 0 1 0 200 200 200 200 0 0 0-200-200z"/><glyph glyph-name="arrow-circle-right" unicode="" horiz-adv-x="600" d="M50 300a250 250 0 1 1 250 250A250 250 0 0 1 50 300zm296.5 92.25 71.5-75a12.25 12.25 0 0 0 2.5-3.75 13.5 13.5 0 0 0 2.5-4 23.5 23.5 0 0 0 0-19 25 25 0 0 0-5.25-8.25l-75-75a25 25 0 0 0-35.5 35.5l32.5 32.25H200a25 25 0 0 0 0 50h141.5l-31.25 32.75a25 25 0 0 0 36.25 34.5z"/><glyph glyph-name="arrow-circle-right-outline" unicode="" horiz-adv-x="600" d="M425 300v2.25a22 22 0 0 1-1.5 7 18 18 0 0 1-2.75 4.75 25 25 0 0 1-2.25 3.25l-71.5 75a25 25 0 0 1-36.25-34.5L341.5 325H200a25 25 0 0 1 0-50h139.75l-32.5-32.25a25 25 0 0 1 0-35.5 25 25 0 0 1 35.5 0l75 75a25 25 0 0 1 5.25 8 25 25 0 0 1 2 9.75zM300 550a250 250 0 1 1 250-250 250 250 0 0 1-250 250zm0-450a200 200 0 1 0 200 200 200 200 0 0 0-200-200z"/><glyph glyph-name="arrow-circle-up" unicode="" horiz-adv-x="600" d="M300 50A250 250 0 1 1 50 300 250 250 0 0 1 300 50zm-92.25 296.5 75 71.5a12.25 12.25 0 0 0 3.75 2.5 13.5 13.5 0 0 0 4 2.5 23.5 23.5 0 0 0 19 0 25 25 0 0 0 8.25-5.25l75-75a25 25 0 0 0-35.5-35.5L325 339.75V200a25 25 0 0 0-50 0v141.5l-32.75-31.25a25 25 0 0 0-34.5 36.25z"/><glyph glyph-name="arrow-circle-up-outline" unicode="" horiz-adv-x="600" d="M317.75 417.75a25 25 0 0 1-8 5.25 25 25 0 0 1-9.75 2h-2.5a20.5 20.5 0 0 1-6.75-1.5 18 18 0 0 1-4.75-2.75 25 25 0 0 1-3.25-2.25l-75-71.5a25 25 0 0 1 34.5-36.25L275 341.5V200a25 25 0 0 1 50 0v139.75l32.25-32.5a25 25 0 0 1 35.5 0 25 25 0 0 1 0 35.5zM300 550a250 250 0 1 1 250-250 250 250 0 0 1-250 250zm0-450a200 200 0 1 0 200 200 200 200 0 0 0-200-200z"/><glyph glyph-name="arrow-down" unicode="" horiz-adv-x="600" d="M300 175a43 43 0 0 0-33.25 16L161.5 318.5a52.5 52.5 0 0 0-6.5 55.25A44 44 0 0 0 194.75 400h210.5A44 44 0 0 0 445 373.75a52.5 52.5 0 0 0-6.5-55.25L333.25 191A43 43 0 0 0 300 175z"/><glyph glyph-name="arrow-down-outline" unicode="" horiz-adv-x="600" d="M300 175a43 43 0 0 0-33.25 16L161.5 318.5a52.5 52.5 0 0 0-6.5 55.25A44 44 0 0 0 194.75 400h210.5A44 44 0 0 0 445 373.75a52.5 52.5 0 0 0-6.5-55.25L333.25 191A43 43 0 0 0 300 175zm-97.75 175L300 229.5 400 350z"/><glyph glyph-name="arrow-downward" unicode="" horiz-adv-x="600" d="M469.25 266a25 25 0 0 1-35.25 3.25L325 178.5V475a25 25 0 0 1-50 0V178.5l-109 90.75a25 25 0 1 1-32-38.5l150-125 3.75-2.25 3.25-1.75a25 25 0 0 1 18 0l3.25 1.75 3.75 2.25 150 125a25 25 0 0 1 3.25 35.25z"/><glyph glyph-name="arrow-downward-outline" unicode="" horiz-adv-x="600" d="M469.25 266a25 25 0 0 1-35.25 3.25L325 178.5V475a25 25 0 0 1-50 0V178.5l-109 90.75a25 25 0 1 1-32-38.5l150-125 3.75-2.25 3.25-1.75a25 25 0 0 1 18 0l3.25 1.75 3.75 2.25 150 125a25 25 0 0 1 3.25 35.25z"/><glyph glyph-name="arrow-forward" unicode="" horiz-adv-x="600" d="M125 275h296.5l-90.75-109a25 25 0 0 1 38.5-32l125 150a29.75 29.75 0 0 1 2.25 3.75c0 1.25 1.25 2 1.75 3.25a25 25 0 0 1 1.75 9 25 25 0 0 1-1.75 9c0 1.25-1.25 2-1.75 3.25a29.75 29.75 0 0 1-2.25 3.75l-125 150a25 25 0 0 1-19.25 9 25 25 0 0 1-16-5.75 25 25 0 0 1-3.25-35.25l90.75-109H125a25 25 0 0 1 0-50z"/><glyph glyph-name="arrow-forward-outline" unicode="" horiz-adv-x="600" d="M125 275h296.5l-90.75-109a25 25 0 0 1 38.5-32l125 150a29.75 29.75 0 0 1 2.25 3.75c0 1.25 1.25 2 1.75 3.25a25 25 0 0 1 1.75 9 25 25 0 0 1-1.75 9c0 1.25-1.25 2-1.75 3.25a29.75 29.75 0 0 1-2.25 3.75l-125 150a25 25 0 0 1-19.25 9 25 25 0 0 1-16-5.75 25 25 0 0 1-3.25-35.25l90.75-109H125a25 25 0 0 1 0-50z"/><glyph glyph-name="arrow-ios-back" unicode="" horiz-adv-x="600" d="M345.75 125a25 25 0 0 0-19.5 9.25l-120.75 150a25 25 0 0 0 0 31.75l125 150a25 25 0 0 0 38.5-32L257.25 300l108-134a25 25 0 0 0-19.5-41z"/><glyph glyph-name="arrow-ios-back-outline" unicode="" horiz-adv-x="600" d="M345.75 125a25 25 0 0 0-19.5 9.25l-120.75 150a25 25 0 0 0 0 31.75l125 150a25 25 0 0 0 38.5-32L257.25 300l108-134a25 25 0 0 0-19.5-41z"/><glyph glyph-name="arrow-ios-downward" unicode="" horiz-adv-x="600" d="M300 200a25 25 0 0 0-16 5.75l-150 125a25 25 0 1 0 32 38.5l134-112 134 108a25 25 0 0 0 35.25-3.75 25 25 0 0 0-3.5-36.5l-150-120.75A25 25 0 0 0 300 200z"/><glyph glyph-name="arrow-ios-downward-outline" unicode="" horiz-adv-x="600" d="M300 200a25 25 0 0 0-16 5.75l-150 125a25 25 0 1 0 32 38.5l134-112 134 108a25 25 0 0 0 35.25-3.75 25 25 0 0 0-3.5-36.5l-150-120.75A25 25 0 0 0 300 200z"/><glyph glyph-name="arrow-ios-forward" unicode="" horiz-adv-x="600" d="M250 125a25 25 0 0 0-16 5.75 25 25 0 0 0-3.25 35.25l112 134-108 134.25a25 25 0 0 0 3.75 35.25 25 25 0 0 0 36.5-3.75l120.75-150a25 25 0 0 0 0-31.75l-125-150a25 25 0 0 0-20.75-9z"/><glyph glyph-name="arrow-ios-forward-outline" unicode="" horiz-adv-x="600" d="M250 125a25 25 0 0 0-16 5.75 25 25 0 0 0-3.25 35.25l112 134-108 134.25a25 25 0 0 0 3.75 35.25 25 25 0 0 0 36.5-3.75l120.75-150a25 25 0 0 0 0-31.75l-125-150a25 25 0 0 0-20.75-9z"/><glyph glyph-name="arrow-ios-upward" unicode="" horiz-adv-x="600" d="M450 225a25 25 0 0 0-16 5.75l-134 112-134.25-108a25 25 0 0 0-35.25 3.75 25 25 0 0 0 3.75 35.25l150 120.75a25 25 0 0 0 31.75 0l150-125a25 25 0 0 0 3.25-35.25A25 25 0 0 0 450 225z"/><glyph glyph-name="arrow-ios-upward-outline" unicode="" horiz-adv-x="600" d="M450 225a25 25 0 0 0-16 5.75l-134 112-134.25-108a25 25 0 0 0-35.25 3.75 25 25 0 0 0 3.75 35.25l150 120.75a25 25 0 0 0 31.75 0l150-125a25 25 0 0 0 3.25-35.25A25 25 0 0 0 450 225z"/><glyph glyph-name="arrow-left" unicode="" horiz-adv-x="600" d="M338.5 150a51.5 51.5 0 0 0-32.5 11.5L178.5 266.75a42.5 42.5 0 0 0 0 66.5L306 438.5a52.5 52.5 0 0 0 55.25 6.5 44 44 0 0 0 26.25-39.75v-210.5A44 44 0 0 0 361.25 155a55.75 55.75 0 0 0-22.75-5z"/><glyph glyph-name="arrow-left-outline" unicode="" horiz-adv-x="600" d="M338.5 150a51.5 51.5 0 0 0-32.5 11.5L178.5 266.75a42.5 42.5 0 0 0 0 66.5L306 438.5a52.5 52.5 0 0 0 55.25 6.5 44 44 0 0 0 26.25-39.75v-210.5A44 44 0 0 0 361.25 155a55.75 55.75 0 0 0-22.75-5zM217 300l120.5-100v197.75z"/><glyph glyph-name="arrow-right" unicode="" horiz-adv-x="600" d="M261.5 150a55.75 55.75 0 0 0-22.75 5 44 44 0 0 0-26.25 39.75v210.5A44 44 0 0 0 238.75 445a52.5 52.5 0 0 0 55.25-6.5l127.5-105.25a42.5 42.5 0 0 0 0-66.5L294 161.5a51.5 51.5 0 0 0-32.5-11.5z"/><glyph glyph-name="arrow-right-outline" unicode="" horiz-adv-x="600" d="M261.5 150a55.75 55.75 0 0 0-22.75 5 44 44 0 0 0-26.25 39.75v210.5A44 44 0 0 0 238.75 445a52.5 52.5 0 0 0 55.25-6.5l127.5-105.25a42.5 42.5 0 0 0 0-66.5L294 161.5a51.5 51.5 0 0 0-32.5-11.5zm0 250V202.5L383 300z"/><glyph glyph-name="arrow-up" unicode="" horiz-adv-x="600" d="M405.25 200h-210.5A44 44 0 0 0 155 225a52.5 52.5 0 0 0 6.5 55.25l105.25 127.5a44 44 0 0 0 66.5 0l105.25-127.5A52.5 52.5 0 0 0 445 225a44 44 0 0 0-39.75-25z"/><glyph glyph-name="arrow-up-outline" unicode="" horiz-adv-x="600" d="M405.25 200h-210.5A44 44 0 0 0 155 225a52.5 52.5 0 0 0 6.5 55.25l105.25 127.5a44 44 0 0 0 66.5 0l105.25-127.5A52.5 52.5 0 0 0 445 225a44 44 0 0 0-39.75-25zM200 250h197.5L300 370.5z"/><glyph glyph-name="arrow-upward" unicode="" horiz-adv-x="600" d="M130.75 334a25 25 0 0 1 35.25-3.25l109 90.75V125a25 25 0 0 1 50 0v296.5l109-90.75a25 25 0 1 1 32 38.5l-150 125-3.75 2.25-3.25 1.75a25 25 0 0 1-18 0l-3.25-1.75-3.75-2.25-150-125a25 25 0 0 1-3.25-35.25z"/><glyph glyph-name="arrow-upward-outline" unicode="" horiz-adv-x="600" d="M130.75 334a25 25 0 0 1 35.25-3.25l109 90.75V125a25 25 0 0 1 50 0v296.5l109-90.75a25 25 0 1 1 32 38.5l-150 125-3.75 2.25-3.25 1.75a25 25 0 0 1-18 0l-3.25-1.75-3.75-2.25-150-125a25 25 0 0 1-3.25-35.25z"/><glyph glyph-name="arrowhead-down" unicode="" horiz-adv-x="600" d="M434.25 290.25 300 182.25l-134 112a25 25 0 1 1-32-38.5l150-125a25 25 0 0 1 31.75 0l150 120.75a25 25 0 0 1 3.75 35.25 25 25 0 0 1-35.25 3.5zM284 305.75a25 25 0 0 1 31.75 0l150 120.75a25 25 0 0 1 3.75 35.25 25 25 0 0 1-35.25 3.75L300 357.25l-134 112a25 25 0 0 1-32-38.5z"/><glyph glyph-name="arrowhead-down-outline" unicode="" horiz-adv-x="600" d="M434.25 290.25 300 182.25l-134 112a25 25 0 1 1-32-38.5l150-125a25 25 0 0 1 31.75 0l150 120.75a25 25 0 0 1 3.75 35.25 25 25 0 0 1-35.25 3.5zM284 305.75a25 25 0 0 1 31.75 0l150 120.75a25 25 0 0 1 3.75 35.25 25 25 0 0 1-35.25 3.75L300 357.25l-134 112a25 25 0 0 1-32-38.5z"/><glyph glyph-name="arrowhead-left" unicode="" horiz-adv-x="600" d="M291 469.25a25 25 0 0 1-35.25-3.25l-125-150a25 25 0 0 1 0-31.75l120.75-150A25 25 0 0 1 271 125a25 25 0 0 1 19.5 40.75L182.25 300l112 134.25a25 25 0 0 1-3.25 35zM357.25 300l112 134.25a25 25 0 0 1-38.5 32l-125-150a25 25 0 0 1 0-31.75l120.75-150a25 25 0 0 1 19.5-9.25A25 25 0 0 1 465.5 166z"/><glyph glyph-name="arrowhead-left-outline" unicode="" horiz-adv-x="600" d="M291 469.25a25 25 0 0 1-35.25-3.25l-125-150a25 25 0 0 1 0-31.75l120.75-150A25 25 0 0 1 271 125a25 25 0 0 1 19.5 40.75L182.25 300l112 134.25a25 25 0 0 1-3.25 35zM357.25 300l112 134.25a25 25 0 0 1-38.5 32l-125-150a25 25 0 0 1 0-31.75l120.75-150a25 25 0 0 1 19.5-9.25A25 25 0 0 1 465.5 166z"/><glyph glyph-name="arrowhead-right" unicode="" horiz-adv-x="600" d="m469.5 315.75-119.5 150a25 25 0 0 1-35.25 3.75 25 25 0 0 1-3.75-35.25L417.75 300l-112-134.25A25 25 0 0 1 309 130.5a25 25 0 0 1 16-5.5 25 25 0 0 1 19.25 9l125 150a25 25 0 0 1 .25 31.75zm-294.5 150a25 25 0 0 1-40.25-31.5l108-134.25-112-134a25 25 0 0 1 3.25-35.25 25 25 0 0 1 16-5.75 25 25 0 0 1 19.25 9l125 150a25 25 0 0 1 0 31.75z"/><glyph glyph-name="arrowhead-right-outline" unicode="" horiz-adv-x="600" d="m469.5 315.75-119.5 150a25 25 0 0 1-35.25 3.75 25 25 0 0 1-3.75-35.25L417.75 300l-112-134.25A25 25 0 0 1 309 130.5a25 25 0 0 1 16-5.5 25 25 0 0 1 19.25 9l125 150a25 25 0 0 1 .25 31.75zm-294.5 150a25 25 0 0 1-40.25-31.5l108-134.25-112-134a25 25 0 0 1 3.25-35.25 25 25 0 0 1 16-5.75 25 25 0 0 1 19.25 9l125 150a25 25 0 0 1 0 31.75z"/><glyph glyph-name="arrowhead-up" unicode="" horiz-adv-x="600" d="m165.75 309.75 134.25 108 134.25-112A25 25 0 0 1 450 300a25 25 0 0 1 19.25 9 25 25 0 0 1-3.25 35.25l-150 125a25 25 0 0 1-31.75 0l-150-120.75a25 25 0 0 1-3.75-35.25 25 25 0 0 1 35.25-3.5zM316 294.25a25 25 0 0 1-31.75 0l-150-120.75a25 25 0 0 1-3.75-35.25 25 25 0 0 1 35.25-3.75L300 242.75l134.25-112A25 25 0 0 1 450 125a25 25 0 0 1 19.25 9 25 25 0 0 1-3.25 35.25z"/><glyph glyph-name="arrowhead-up-outline" unicode="" horiz-adv-x="600" d="m165.75 309.75 134.25 108 134.25-112A25 25 0 0 1 450 300a25 25 0 0 1 19.25 9 25 25 0 0 1-3.25 35.25l-150 125a25 25 0 0 1-31.75 0l-150-120.75a25 25 0 0 1-3.75-35.25 25 25 0 0 1 35.25-3.5zM316 294.25a25 25 0 0 1-31.75 0l-150-120.75a25 25 0 0 1-3.75-35.25 25 25 0 0 1 35.25-3.75L300 242.75l134.25-112A25 25 0 0 1 450 125a25 25 0 0 1 19.25 9 25 25 0 0 1-3.25 35.25z"/><glyph glyph-name="at" unicode="" horiz-adv-x="600" d="M325 550A250 250 0 0 1 200 72.5 253.75 253.75 0 0 1 300 50a250 250 0 0 1 152 51.5 25 25 0 0 1 4.75 35 25 25 0 0 1-35.25 4.75A200 200 0 1 0 319.25 500 204.25 204.25 0 0 0 500 294.5v-17a42.75 42.75 0 0 0-44.5-42.5 45.5 45.5 0 0 0-40.5 47v108a25 25 0 0 1-25 25 25 25 0 0 1-25-21.75 125 125 0 0 1-86 34A127.25 127.25 0 1 1 382.75 225a90 90 0 0 1 138.75-15.25A91.75 91.75 0 0 1 550 277.5v17A255 255 0 0 1 325 550zm-45.5-327.25A77.25 77.25 0 1 0 356.75 300a77.5 77.5 0 0 0-77.25-77.25z"/><glyph glyph-name="at-outline" unicode="" horiz-adv-x="600" d="M325 550A250 250 0 0 1 200 72.5 253.75 253.75 0 0 1 300 50a250 250 0 0 1 152 51.5 25 25 0 0 1 4.75 35 25 25 0 0 1-35.25 4.75A200 200 0 1 0 319.25 500 204.25 204.25 0 0 0 500 294.5v-17a42.75 42.75 0 0 0-44.5-42.5 45.5 45.5 0 0 0-40.5 47v108a25 25 0 0 1-25 25 25 25 0 0 1-25-21.75 125 125 0 0 1-86 34A127.25 127.25 0 1 1 382.75 225a90 90 0 0 1 138.75-15.25A91.75 91.75 0 0 1 550 277.5v17A255 255 0 0 1 325 550zm-45.5-327.25A77.25 77.25 0 1 0 356.75 300a77.5 77.5 0 0 0-77.25-77.25z"/><glyph glyph-name="attach" unicode="" horiz-adv-x="600" d="M232.25 75a155.75 155.75 0 0 0-110.75 47 150 150 0 0 0-5.5 212.25L300 520a102.75 102.75 0 0 0 75 30 112 112 0 0 0 79.75-33.75A109 109 0 0 0 458.5 363l-185-185.75a63.5 63.5 0 0 0-45.25-18.75A68 68 0 0 0 179.5 179a67 67 0 0 0-2 94.25l170.75 171.5a25 25 0 0 0 34.25-35.25L211.75 238a17 17 0 0 1 2-23.75A19.5 19.5 0 0 1 227 208.5a14 14 0 0 1 10 4l184.75 185.75A59 59 0 0 1 418 481a59.5 59.5 0 0 1-81.75 3.75L151.5 300a100 100 0 0 1 5.5-141.75A105.5 105.5 0 0 1 232 126a91.75 91.75 0 0 1 65.25 26.5L482 338.25A25 25 0 1 0 517.5 303L332.75 117.25A141.25 141.25 0 0 0 232.25 75z"/><glyph glyph-name="attach-2" unicode="" horiz-adv-x="600" d="M300 50a146.5 146.5 0 0 0-150 142.5v254.25A106 106 0 0 0 258.25 550a106 106 0 0 0 108.5-103.25v-254.5a66.75 66.75 0 0 0-133.25 0V427a25 25 0 0 0 25 25 25 25 0 0 0 25-25V192.25a16.75 16.75 0 0 1 33.25 0v254.5a56.25 56.25 0 0 1-58.5 53.25A56.25 56.25 0 0 1 200 446.75V192.5A96.5 96.5 0 0 1 300 100a96.5 96.5 0 0 1 100 92.5v254.25a25 25 0 1 0 50 0V192.5A146.5 146.5 0 0 0 300 50z"/><glyph glyph-name="attach-2-outline" unicode="" horiz-adv-x="600" d="M300 50a146.5 146.5 0 0 0-150 142.5v254.25A106 106 0 0 0 258.25 550a106 106 0 0 0 108.5-103.25v-254.5a66.75 66.75 0 0 0-133.25 0V427a25 25 0 0 0 25 25 25 25 0 0 0 25-25V192.25a16.75 16.75 0 0 1 33.25 0v254.5a56.25 56.25 0 0 1-58.5 53.25A56.25 56.25 0 0 1 200 446.75V192.5A96.5 96.5 0 0 1 300 100a96.5 96.5 0 0 1 100 92.5v254.25a25 25 0 1 0 50 0V192.5A146.5 146.5 0 0 0 300 50z"/><glyph glyph-name="attach-outline" unicode="" horiz-adv-x="600" d="M232.25 75a155.75 155.75 0 0 0-110.75 47 150 150 0 0 0-5.5 212.25L300 520a102.75 102.75 0 0 0 75 30 112 112 0 0 0 79.75-33.75A109 109 0 0 0 458.5 363l-185-185.75a63.5 63.5 0 0 0-45.25-18.75A68 68 0 0 0 179.5 179a67 67 0 0 0-2 94.25l170.75 171.5a25 25 0 0 0 34.25-35.25L211.75 238a17 17 0 0 1 2-23.75A19.5 19.5 0 0 1 227 208.5a14 14 0 0 1 10 4l184.75 185.75A59 59 0 0 1 418 481a59.5 59.5 0 0 1-81.75 3.75L151.5 300a100 100 0 0 1 5.5-141.75A105.5 105.5 0 0 1 232 126a91.75 91.75 0 0 1 65.25 26.5L482 338.25A25 25 0 1 0 517.5 303L332.75 117.25A141.25 141.25 0 0 0 232.25 75z"/><glyph glyph-name="award" unicode="" horiz-adv-x="600" d="m475 81.25-57.75 225A148.5 148.5 0 0 1 450 400a150 150 0 0 1-300 0 148.5 148.5 0 0 1 33.5-94.25L125 81.25a25 25 0 0 1 37-27.75l133.25 78.25 142-78.5A22.75 22.75 0 0 1 450 50a25 25 0 0 1 25 31.25zM300 500a100 100 0 1 0-100-100 100 100 0 0 0 100 100z"/><glyph glyph-name="award-outline" unicode="" horiz-adv-x="600" d="m475 81.25-57.75 225A148.5 148.5 0 0 1 450 400a150 150 0 0 1-300 0 148.5 148.5 0 0 1 33.5-94.25L125 81.25a25 25 0 0 1 37-27.75l133.25 78.25 142-78.5A22.75 22.75 0 0 1 450 50a25 25 0 0 1 25 31.25zM300 500a100 100 0 1 0-100-100 100 100 0 0 0 100 100zm7.75-317.75a25 25 0 0 1-25 0l-93.75-55 36 142.5a148.5 148.5 0 0 1 148 0L411.25 125z"/><glyph glyph-name="backspace" unicode="" horiz-adv-x="600" d="M503.5 500H259.25a75 75 0 0 1-50-19.5l-2.5-2.75-150-187a25 25 0 0 1 2.75-34.25l150-137a75 75 0 0 1 50-19.5h244.25A46 46 0 0 1 550 145.5v309a46 46 0 0 1-46.5 45.5zm-85.75-232.25a25 25 0 0 0 0-35.5 25 25 0 0 0-35.5 0L350 264.75l-32.25-32.5a25 25 0 0 0-35.5 0 25 25 0 0 0 0 35.5l32.5 32.25-32.5 32.25a25 25 0 0 0 35.5 35.5l32.25-32.5 32.25 32.5a25 25 0 0 0 35.5-35.5L385.25 300z"/><glyph glyph-name="backspace-outline" unicode="" horiz-adv-x="600" d="M503.5 500H259.25a75 75 0 0 1-50-19.5l-2.5-2.75-150-187a25 25 0 0 1 2.75-34.25l150-137a75 75 0 0 1 50-19.5h244.25A46 46 0 0 1 550 145.5v309a46 46 0 0 1-46.5 45.5zM500 150H259.25a25 25 0 0 0-16.75 6.5L109.25 277.75l134.5 166.75a25 25 0 0 0 15.5 5.5H500zm-217.75 82.25a25 25 0 0 1 35.5 0l32.25 32.5 32.25-32.5a25 25 0 0 1 35.5 0 25 25 0 0 1 0 35.5L385.25 300l32.5 32.25a25 25 0 0 1-35.5 35.5L350 335.25l-32.25 32.5a25 25 0 0 1-35.5-35.5l32.5-32.25-32.5-32.25a25 25 0 0 1 0-35.5z"/><glyph glyph-name="bar-chart" unicode="" horiz-adv-x="600" d="M300 500a25 25 0 0 1-25-25V100a25 25 0 0 1 50 0v375a25 25 0 0 1-25 25zm175-200a25 25 0 0 1-25-25V100a25 25 0 0 1 50 0v175a25 25 0 0 1-25 25zM125 400a25 25 0 0 1-25-25V100a25 25 0 0 1 50 0v275a25 25 0 0 1-25 25z"/><glyph glyph-name="bar-chart-2" unicode="" horiz-adv-x="600" d="M300 400a25 25 0 0 1-25-25V100a25 25 0 0 1 50 0v275a25 25 0 0 1-25 25zm175 100a25 25 0 0 1-25-25V100a25 25 0 0 1 50 0v375a25 25 0 0 1-25 25zM125 300a25 25 0 0 1-25-25V100a25 25 0 0 1 50 0v175a25 25 0 0 1-25 25z"/><glyph glyph-name="bar-chart-2-outline" unicode="" horiz-adv-x="600" d="M300 400a25 25 0 0 1-25-25V100a25 25 0 0 1 50 0v275a25 25 0 0 1-25 25zm175 100a25 25 0 0 1-25-25V100a25 25 0 0 1 50 0v375a25 25 0 0 1-25 25zM125 300a25 25 0 0 1-25-25V100a25 25 0 0 1 50 0v175a25 25 0 0 1-25 25z"/><glyph glyph-name="bar-chart-outline" unicode="" horiz-adv-x="600" d="M300 500a25 25 0 0 1-25-25V100a25 25 0 0 1 50 0v375a25 25 0 0 1-25 25zm175-200a25 25 0 0 1-25-25V100a25 25 0 0 1 50 0v175a25 25 0 0 1-25 25zM125 400a25 25 0 0 1-25-25V100a25 25 0 0 1 50 0v275a25 25 0 0 1-25 25z"/><glyph glyph-name="battery" unicode="" horiz-adv-x="600" d="M395.75 450h-291.5A57.75 57.75 0 0 1 50 389.25v-178.5A57.75 57.75 0 0 1 104.25 150h291.5A57.75 57.75 0 0 1 450 210.75v178.5A57.75 57.75 0 0 1 395.75 450zM525 375a25 25 0 0 1-25-25V250a25 25 0 0 1 50 0v100a25 25 0 0 1-25 25z"/><glyph glyph-name="battery-outline" unicode="" horiz-adv-x="600" d="M395.75 450h-291.5A57.75 57.75 0 0 1 50 389.25v-178.5A57.75 57.75 0 0 1 104.25 150h291.5A57.75 57.75 0 0 1 450 210.75v178.5A57.75 57.75 0 0 1 395.75 450zM400 210.75a13 13 0 0 0-4.25-10.75H104.5a12.5 12.5 0 0 0-4.5 10.75v178.5a13.25 13.25 0 0 0 4.25 10.75H395.5a12.5 12.5 0 0 0 4.5-10.75zM525 375a25 25 0 0 1-25-25V250a25 25 0 0 1 50 0v100a25 25 0 0 1-25 25z"/><glyph glyph-name="behance" unicode="" horiz-adv-x="600" d="M369 320.25A25 25 0 0 1 344 293h51.5a25 25 0 0 1-26.5 27.25zM237.25 292.5H206.5V244h25c25 0 36 8.25 36 25s-11.5 23.5-30.25 23.5zM259 337c0 13.25-8.75 21.25-23.75 21.25H206.5v-43.5h21.25c22.25 0 31.25 8 31.25 22.25zm41 213a250 250 0 1 1 250-250 250 250 0 0 1-250 250zm-57.5-330H175v162.5h67.5c29.25 0 48.5-15.25 48.5-40a35 35 0 0 0-28-35.75 38 38 0 0 0 37-41c0-29-25-45.75-57.5-45.75zm88.75 150h75v-12.5h-75zM425 273.75h-82.5v-3.5a26.75 26.75 0 0 1 27.25-29.75 22.5 22.5 0 0 1 25 15.75H425a50 50 0 0 0-54.25-38.75 53.75 53.75 0 0 0-59 57.5v11a52.75 52.75 0 0 0 57 56.25A53 53 0 0 0 425 285.5z"/><glyph glyph-name="behance-outline" unicode="" horiz-adv-x="600" d="M300 550a250 250 0 1 1 250-250 250 250 0 0 1-250 250zm0-450a200 200 0 1 0 200 200 200 200 0 0 0-200-200zm-37 205.5a35 35 0 0 1 28 35.75c0 25-19.25 40-48.5 40H175v-162.5h67.5c32.5 1.25 57.5 18 57.5 47a38 38 0 0 1-37 39.75zm-56.5 52.75h28.75c15 0 23.75-8 23.75-21.25s-9.5-22.25-31.25-22.25H206.5zm25-114.25h-25v48.5h30.75c18.75 0 29.25-9.5 29.25-25S256 244 230.5 244zm137.25 98.5a52.75 52.75 0 0 1-57-56.25V275a53.75 53.75 0 0 1 58.5-57.75 50 50 0 0 1 54.75 39h-30.25a22.5 22.5 0 0 0-25-15.75 26.75 26.75 0 0 0-27.25 29.75v3.5H425v11.75a53 53 0 0 1-56.25 57zm25-50h-50.5a25 25 0 0 0 25 27.25 25 25 0 0 0 25-27.25zm-62.5 77.5h75v-12.5h-75V370z"/><glyph glyph-name="bell" unicode="" horiz-adv-x="600" d="M513 219.75 468 265v111.5a171.5 171.5 0 0 1-145.5 172A168.5 168.5 0 0 1 132 381.75V265l-45-45.25A41 41 0 0 1 116 150h84v-8.5A96 96 0 0 1 300 50a96 96 0 0 1 100 91.5v8.5h84a41 41 0 0 1 29 69.75zM350 141.5a47 47 0 0 0-50-41.5 47 47 0 0 0-50 41.5v8.5h100z"/><glyph glyph-name="bell-off" unicode="" horiz-adv-x="600" d="M397 132.25 382.25 147 350 180.5l-1.75 1.75L164.5 365l-31.75 31.5a142 142 0 0 1 0-14.75V265l-45-45.25A41 41 0 0 1 116 150h84v-8.5A96 96 0 0 1 300 50a97 97 0 0 1 100 80.5zm-47 9.25a47 47 0 0 0-50-41.5 47 47 0 0 0-50 41.5v8.5h100zm-171.75 351 36.5-36.5L453 217.75l50-50 7.75-7.5a39.5 39.5 0 0 1 11.25 15 40.5 40.5 0 0 1-8.75 44.5l-45 45.25v111.5a171.5 171.5 0 0 1-145.75 172 167.75 167.75 0 0 1-133-40.25 172 172 0 0 1-14.5-13.5zm339.5-374.75L485.25 150l-50 50-238 238.25L160.5 475l-42.75 42.75a25 25 0 0 1-35.5-35.5l56-57.25L182 382.5 364.75 200l1.75-1.75 33.5-33.5L414.75 150l67.5-67.75a25 25 0 0 1 35.5 0 25 25 0 0 1 0 35.5z"/><glyph glyph-name="bell-off-outline" unicode="" horiz-adv-x="600" d="M222.5 470.75A116.75 116.75 0 0 0 316 500a121.5 121.5 0 0 0 102-122.5V265a48 48 0 0 1 2.5-14.75l90-90a39.5 39.5 0 0 1 11.25 15 40.5 40.5 0 0 1-8.75 44.5L468 265v111.5a171.5 171.5 0 0 1-145.5 172 167.75 167.75 0 0 1-133-40.25 172 172 0 0 1-14.5-13.5L211.75 459a119.75 119.75 0 0 0 10.75 11.75zM350 178.5 329.25 200h-191.5l29.5 29.5A50 50 0 0 1 182 265v82.25l-50 50a142 142 0 0 1 0-14.75V265l-45-45.25A40.75 40.75 0 0 1 116 150h84v-8.5A96 96 0 0 1 300 50a97 97 0 0 1 100 80.5L379.25 150zM300 100a47 47 0 0 0-50 41.5v8.5h100v-8.5a47 47 0 0 0-50-41.5zm217.75 17.75L485.25 150l-50 50-238 238.25L160.5 475l-42.75 42.75a25 25 0 0 1-35.5-35.5l56-57.25L182 382.5 364.75 200l1.75-1.75 33.5-33.5L414.75 150l67.5-67.75a25 25 0 0 1 35.5 0 25 25 0 0 1 0 35.5z"/><glyph glyph-name="bell-outline" unicode="" horiz-adv-x="600" d="M513 219.75 468 265v111.5a171.5 171.5 0 0 1-145.5 172A168.5 168.5 0 0 1 132 381.75V265l-45-45.25A41 41 0 0 1 116 150h84v-8.5A96 96 0 0 1 300 50a96 96 0 0 1 100 91.5v8.5h84a41 41 0 0 1 29 69.75zM350 141.5a47 47 0 0 0-50-41.5 47 47 0 0 0-50 41.5v8.5h100zM137.75 200l29.5 29.5A50 50 0 0 1 182 265v116.75a118.25 118.25 0 0 0 40.5 89A116.75 116.75 0 0 0 316 500a121.5 121.5 0 0 0 102-122.5V265a50 50 0 0 1 14.5-35.5l29.75-29.5z"/><glyph glyph-name="bluetooth" unicode="" horiz-adv-x="600" d="m340.75 300 100 94.75A28.5 28.5 0 0 1 437.5 439l-116.75 80.75a29.25 29.25 0 0 1-30.25 2 28.75 28.75 0 0 1-15.5-25v-155l-79.75 100a25 25 0 0 1-39-32.5L243 300l-87.5-110.75a25 25 0 0 1 4-35A25 25 0 0 1 175 150a25 25 0 0 1 19.5 9.5L275 261V103.75A29 29 0 0 1 304 75a29 29 0 0 1 16.75 5.25l116 79.5A29.25 29.25 0 0 1 449 181a28.75 28.75 0 0 1-8.5 22.75zM325 456l62.5-43.25-62.5-59zm0-312.25V245.5l61.75-59.5z"/><glyph glyph-name="bluetooth-outline" unicode="" horiz-adv-x="600" d="m340.75 300 100 94.75A28.5 28.5 0 0 1 437.5 439l-116.75 80.75a29.25 29.25 0 0 1-30.25 2 28.75 28.75 0 0 1-15.5-25v-155l-79.75 100a25 25 0 0 1-39-32.5L243 300l-87.5-110.75a25 25 0 0 1 4-35A25 25 0 0 1 175 150a25 25 0 0 1 19.5 9.5L275 261V103.75A29 29 0 0 1 304 75a29 29 0 0 1 16.75 5.25l116 79.5A29.25 29.25 0 0 1 449 181a28.75 28.75 0 0 1-8.5 22.75zM325 456l62.5-43.25-62.5-59zm0-312.25V245.5l61.75-59.5z"/><glyph glyph-name="book" unicode="" horiz-adv-x="600" d="M475 525H175a75 75 0 0 1-75-75V150a75 75 0 0 1 75-75h300a25 25 0 0 1 25 25v400a25 25 0 0 1-25 25zM175 125a25 25 0 0 0 0 50h275v-50z"/><glyph glyph-name="book-open" unicode="" horiz-adv-x="600" d="M525 491.5a31 31 0 0 1-27 5.75l-173-44.5V96l189 48.5a31.25 31.25 0 0 1 23.5 30.5v292a31.25 31.25 0 0 1-12.5 24.5zm-250-38.75-173.5 44.5A31.75 31.75 0 0 1 75 491.5a31.25 31.25 0 0 1-12-25V175a31.25 31.25 0 0 1 23.5-30.25L275 96z"/><glyph glyph-name="book-open-outline" unicode="" horiz-adv-x="600" d="M515.5 494.5a25 25 0 0 1-21 5L300 455.75 105.5 500A25 25 0 0 1 75 475V170a25 25 0 0 1 19.5-25l200-45h11l200 45a25 25 0 0 1 19.5 25v305a25 25 0 0 1-9.5 19.5zM125 443.75 275 410V156.25L125 190zM475 190l-150-33.75V410l150 33.75z"/><glyph glyph-name="book-outline" unicode="" horiz-adv-x="600" d="M475 525H175a75 75 0 0 1-75-75V150a75 75 0 0 1 75-75h300a25 25 0 0 1 25 25v400a25 25 0 0 1-25 25zm-300-50h275V225H175a75 75 0 0 1-25-4.5V450a25 25 0 0 0 25 25zm0-350a25 25 0 0 0 0 50h275v-50z"/><glyph glyph-name="bookmark" unicode="" horiz-adv-x="600" d="M150 75a25 25 0 0 0-12.25 3.25A25 25 0 0 0 125 100v366.75A57 57 0 0 0 180 525h240a57 57 0 0 0 55-58.25V100a25 25 0 0 0-12.5-21.5 25 25 0 0 0-25 0l-141.75 80.25-133.25-80A25 25 0 0 0 150 75z"/><glyph glyph-name="bookmark-outline" unicode="" horiz-adv-x="600" d="M152.25 73.5a25 25 0 0 0-25 25L123.5 465a56.5 56.5 0 0 0 54.5 58.75L417.75 525a56.75 56.75 0 0 0 55.75-57.75l3.5-366.5A25 25 0 0 0 464.75 79a25 25 0 0 0-25 0l-142.5 79L165 77.25a30 30 0 0 0-12.75-3.75zm144 138.75a27.75 27.75 0 0 0 12.5-3L426.5 144l-3 323.75c0 5-3.25 8.5-5.25 8.25l-240-2.25c-2 0-4.75-3.25-4.75-8.25l3-322.5 107 65.75a26.5 26.5 0 0 0 12.75 3.5z"/><glyph glyph-name="briefcase" unicode="" horiz-adv-x="600" d="M175 75h250v350h-25v37.5a62.5 62.5 0 0 1-62.5 62.5h-75a62.5 62.5 0 0 1-62.5-62.5V425h-25zm75 387.5a12.5 12.5 0 0 0 12.5 12.5h75a12.5 12.5 0 0 0 12.5-12.5V425H250zM475 425V75a75 75 0 0 1 75 75v200a75 75 0 0 1-75 75zm-350 0a75 75 0 0 1-75-75V150a75 75 0 0 1 75-75z"/><glyph glyph-name="briefcase-outline" unicode="" horiz-adv-x="600" d="M475 425h-75v37.5a62.5 62.5 0 0 1-62.5 62.5h-75a62.5 62.5 0 0 1-62.5-62.5V425h-75a75 75 0 0 1-75-75V150a75 75 0 0 1 75-75h350a75 75 0 0 1 75 75v200a75 75 0 0 1-75 75zm-100-50V125H225v250zm-125 87.5a12.5 12.5 0 0 0 12.5 12.5h75a12.5 12.5 0 0 0 12.5-12.5V425H250zM100 150v200a25 25 0 0 0 25 25h50V125h-50a25 25 0 0 0-25 25zm400 0a25 25 0 0 0-25-25h-50v250h50a25 25 0 0 0 25-25z"/><glyph glyph-name="browser" unicode="" horiz-adv-x="600" d="M450 525H150a75 75 0 0 1-75-75V150a75 75 0 0 1 75-75h300a75 75 0 0 1 75 75v300a75 75 0 0 1-75 75zm-150-75a25 25 0 1 0-25-25 25 25 0 0 0 25 25zm-100 0a25 25 0 1 0-25-25 25 25 0 0 0 25 25zm275-300a25 25 0 0 0-25-25H150a25 25 0 0 0-25 25v175h350z"/><glyph glyph-name="browser-outline" unicode="" horiz-adv-x="600" d="M450 525H150a75 75 0 0 1-75-75V150a75 75 0 0 1 75-75h300a75 75 0 0 1 75 75v300a75 75 0 0 1-75 75zm25-375a25 25 0 0 0-25-25H150a25 25 0 0 0-25 25v175h350zM125 375v75a25 25 0 0 0 25 25h300a25 25 0 0 0 25-25v-75zm50 49.25a25 25 0 0 1 50 0 25 25 0 0 1-50 0m100 0a25 25 0 0 1 50 0 25 25 0 0 1-50 0"/><glyph glyph-name="brush" unicode="" horiz-adv-x="600" d="M178 286.25a100 100 0 0 1-76.75-96.5V112a11.75 11.75 0 0 1 12-12l81 1.5a94.5 94.5 0 0 1 86 55A91.25 91.25 0 0 1 178 286.25zM481.5 488.5a53.5 53.5 0 0 1-72-5.25L250 323a11.75 11.75 0 0 1 0-16.5l56.25-56.5a11.75 11.75 0 0 1 16.5 0L485 411.75a51.5 51.5 0 0 1 15 36.75 50 50 0 0 1-18.5 40z"/><glyph glyph-name="brush-outline" unicode="" horiz-adv-x="600" d="M500 429.25a69 69 0 0 1-20.5 50 72.25 72.25 0 0 1-100 0l-165-165H209A110.5 110.5 0 0 1 101.5 206.5L100 125a25 25 0 0 1 7.25-18.25A26.25 26.25 0 0 1 125 100l81.5 1.5A110.5 110.5 0 0 1 314.25 209v5.75l165.25 165a68.5 68.5 0 0 1 20.5 49.5zM206.25 151.5 150 150v55.75a60 60 0 0 0 60 59A53.75 53.75 0 0 0 263.75 210a60 60 0 0 0-57.5-58.5zm238 263.75L297.5 268.5a113.75 113.75 0 0 1-13 16 98.5 98.5 0 0 1-16 13L415.25 444a21 21 0 0 0 29 0 20.25 20.25 0 0 0 5.75-14.75 19.75 19.75 0 0 0-5.75-14z"/><glyph glyph-name="bulb" unicode="" horiz-adv-x="600" d="M300 425a125 125 0 0 1-75-225V100a50 50 0 0 1 50-50h50a50 50 0 0 1 50 50v100a125 125 0 0 1-75 225zm0 25a25 25 0 0 1 25 25v50a25 25 0 0 1-50 0v-50a25 25 0 0 1 25-25zm225-125h-50a25 25 0 0 1 0-50h50a25 25 0 0 1 0 50zm-400 0H75a25 25 0 0 1 0-50h50a25 25 0 0 1 0 50zm66.5 114.5-36 35.5a25 25 0 0 1-34.75-36.75l36-34.75a25 25 0 0 1 18.25-7 25 25 0 0 1 18 7.75 25 25 0 0 1-1.5 35.25zm288.25 34.25a25 25 0 0 1-35.25 0l-36-34.25a25 25 0 0 1 0-35.25 25 25 0 0 1 18-7.75 25 25 0 0 1 17.25 7l36 34.75a25 25 0 0 1 0 35.5z"/><glyph glyph-name="bulb-outline" unicode="" horiz-adv-x="600" d="M300 425a125 125 0 0 1-75-225V100a50 50 0 0 1 50-50h50a50 50 0 0 1 50 50v100a125 125 0 0 1-75 225zm37.5-189.75A25 25 0 0 1 325 213.5V100h-50v113.5a25 25 0 0 1-12.5 21.75A75 75 0 0 0 225 300a75 75 0 0 0 150 0 75 75 0 0 0-37.5-64.75zM300 450a25 25 0 0 1 25 25v50a25 25 0 0 1-50 0v-50a25 25 0 0 1 25-25zm225-125h-50a25 25 0 0 1 0-50h50a25 25 0 0 1 0 50zm-400 0H75a25 25 0 0 1 0-50h50a25 25 0 0 1 0 50zm66.5 114.5-36 35.5a25 25 0 0 1-34.75-36.75l36-34.75a25 25 0 0 1 18.25-7 25 25 0 0 1 18 7.75 25 25 0 0 1-1.5 35.25zm288.25 34.25a25 25 0 0 1-35.25 0l-36-34.25a25 25 0 0 1 0-35.25 25 25 0 0 1 18-7.75 25 25 0 0 1 17.25 7l36 34.75a25 25 0 0 1 0 35.5z"/><glyph glyph-name="calendar" unicode="" horiz-adv-x="600" d="M450 500h-25v25a25 25 0 0 1-50 0v-25H225v25a25 25 0 0 1-50 0v-25h-25a75 75 0 0 1-75-75V125a75 75 0 0 1 75-75h300a75 75 0 0 1 75 75v300a75 75 0 0 1-75 75zM200 175a25 25 0 1 0 25 25 25 25 0 0 0-25-25zm200 0H300a25 25 0 0 0 0 50h100a25 25 0 0 0 0-50zm75 150H125v100a25 25 0 0 0 25 25h25v-25a25 25 0 0 1 50 0v25h150v-25a25 25 0 0 1 50 0v25h25a25 25 0 0 0 25-25z"/><glyph glyph-name="calendar-outline" unicode="" horiz-adv-x="600" d="M450 500h-25v25a25 25 0 0 1-50 0v-25H225v25a25 25 0 0 1-50 0v-25h-25a75 75 0 0 1-75-75V125a75 75 0 0 1 75-75h300a75 75 0 0 1 75 75v300a75 75 0 0 1-75 75zm-300-50h25v-25a25 25 0 0 1 50 0v25h150v-25a25 25 0 0 1 50 0v25h25a25 25 0 0 0 25-25V325H125v100a25 25 0 0 0 25 25zm300-350H150a25 25 0 0 0-25 25v150h350V125a25 25 0 0 0-25-25zM175 200a25 25 0 0 1 50 0 25 25 0 0 1-50 0m225 25H300a25 25 0 0 1 0-50h100a25 25 0 0 1 0 50z"/><glyph glyph-name="camera" unicode="" horiz-adv-x="600" d="M262.5 250a37.5 37.5 0 0 1 75 0 37.5 37.5 0 0 1-75 0M475 425h-75v37.5a62.5 62.5 0 0 1-62.5 62.5h-75a62.5 62.5 0 0 1-62.5-62.5V425h-75a75 75 0 0 1-75-75V150a75 75 0 0 1 75-75h350a75 75 0 0 1 75 75v200a75 75 0 0 1-75 75zm-225 37.5a12.5 12.5 0 0 0 12.5 12.5h75a12.5 12.5 0 0 0 12.5-12.5V425H250zm50-300a87.5 87.5 0 1 0 87.5 87.5 87.5 87.5 0 0 0-87.5-87.5z"/><glyph glyph-name="camera-outline" unicode="" horiz-adv-x="600" d="M475 425h-75v37.5a62.5 62.5 0 0 1-62.5 62.5h-75a62.5 62.5 0 0 1-62.5-62.5V425h-75a75 75 0 0 1-75-75V150a75 75 0 0 1 75-75h350a75 75 0 0 1 75 75v200a75 75 0 0 1-75 75zm-225 37.5a12.5 12.5 0 0 0 12.5 12.5h75a12.5 12.5 0 0 0 12.5-12.5V425H250zM500 150a25 25 0 0 0-25-25H125a25 25 0 0 0-25 25v200a25 25 0 0 0 25 25h350a25 25 0 0 0 25-25zM300 337.5a87.5 87.5 0 1 1 87.5-87.5 87.5 87.5 0 0 1-87.5 87.5zm0-125a37.5 37.5 0 1 0 37.5 37.5 37.5 37.5 0 0 0-37.5-37.5z"/><glyph glyph-name="car" unicode="" horiz-adv-x="600" d="M540 319.5 425 412v63a47.75 47.75 0 0 1-45.25 50h-285A47.75 47.75 0 0 1 50 475V225a50 50 0 0 1 30-47 75 75 0 1 1 140-3h159a75 75 0 1 1 141 0h5a25 25 0 0 1 25 25v100a25 25 0 0 1-10 19.5zM500 288v-63h-75v123zM175 150a25 25 0 1 0-25 25 25 25 0 0 0 25-25zm300 0a25 25 0 1 0-25 25 25 25 0 0 0 25-25z"/><glyph glyph-name="car-outline" unicode="" horiz-adv-x="600" d="M540 319.5 425 412v63a47.75 47.75 0 0 1-45.25 50h-285A47.75 47.75 0 0 1 50 475V225a50 50 0 0 1 30-47 75 75 0 1 1 140-3h159a75 75 0 1 1 141 0h5a25 25 0 0 1 25 25v100a25 25 0 0 1-10 19.5zM500 288v-63h-75v123zM175 150a25 25 0 1 0-25 25 25 25 0 0 0 25-25zm125 75H100v250h275V225zm175-75a25 25 0 1 0-25 25 25 25 0 0 0 25-25z"/><glyph glyph-name="cast" unicode="" horiz-adv-x="600" d="M460 525H140a67.5 67.5 0 0 1-65-69.5V425a25 25 0 0 1 50 0v30.5a18 18 0 0 0 15 19.5h320a18 18 0 0 0 15-19.5v-311a18 18 0 0 0-15-19.5h-35a25 25 0 0 1 0-50h35a67.5 67.5 0 0 1 65 69.5v311a67.5 67.5 0 0 1-65 69.5zM96.5 250A25 25 0 0 1 75 220.75 25 25 0 0 1 103.5 200a62.25 62.25 0 0 0 53-18 63 63 0 0 0 12.75-71 25 25 0 0 1 12-33.25 26.5 26.5 0 0 1 10.5-2.25A25 25 0 0 1 214.5 90a113 113 0 0 1-118 160zm0 98a25 25 0 0 1 7-50 150 150 0 0 0 127.25-42.75A150 150 0 0 0 269 106.5 25 25 0 0 1 286 75a22.5 22.5 0 0 1 7 0 25 25 0 0 1 25 18A200 200 0 0 1 97.5 348zM75 125a25 25 0 0 1 50 0 25 25 0 0 1-50 0"/><glyph glyph-name="cast-outline" unicode="" horiz-adv-x="600" d="M460 525H140a67.5 67.5 0 0 1-65-69.5V425a25 25 0 0 1 50 0v30.5a18 18 0 0 0 15 19.5h320a18 18 0 0 0 15-19.5v-311a18 18 0 0 0-15-19.5h-35a25 25 0 0 1 0-50h35a67.5 67.5 0 0 1 65 69.5v311a67.5 67.5 0 0 1-65 69.5zM96.5 250A25 25 0 0 1 75 220.75 25 25 0 0 1 103.5 200a62.25 62.25 0 0 0 53-18 63 63 0 0 0 12.75-71 25 25 0 0 1 12-33.25 26.5 26.5 0 0 1 10.5-2.25A25 25 0 0 1 214.5 90a113 113 0 0 1-118 160zm0 98a25 25 0 0 1 7-50 150 150 0 0 0 127.25-42.75A150 150 0 0 0 269 106.5 25 25 0 0 1 286 75a22.5 22.5 0 0 1 7 0 25 25 0 0 1 25 18A200 200 0 0 1 97.5 348zM75 125a25 25 0 0 1 50 0 25 25 0 0 1-50 0"/><glyph glyph-name="charging" unicode="" horiz-adv-x="600" d="M282 275H175a25 25 0 0 0-21.5 12.5 25 25 0 0 0 0 25L232 450H104.25A57.75 57.75 0 0 1 50 389.25v-178.5A57.75 57.75 0 0 1 104.25 150H210.5zm113.75 175H289.5L218 325h107a25 25 0 0 0 21.5-12.5 25 25 0 0 0 0-25L268 150h127.75A57.75 57.75 0 0 1 450 210.75v178.5A57.75 57.75 0 0 1 395.75 450zM525 375a25 25 0 0 1-25-25V250a25 25 0 0 1 50 0v100a25 25 0 0 1-25 25z"/><glyph glyph-name="charging-outline" unicode="" horiz-adv-x="600" d="M525 375a25 25 0 0 1-25-25V250a25 25 0 0 1 50 0v100a25 25 0 0 1-25 25zm-129.25 75h-77.5l-28.5-50H395.5a12.5 12.5 0 0 0 4.5-10.75v-178.5a13 13 0 0 0-4.25-10.75H325l-28.75-50h100A57.75 57.75 0 0 1 450 210.75v178.5A57.75 57.75 0 0 1 395.75 450zM100 210.75v178.5a13.25 13.25 0 0 0 4.25 10.75H175l28.25 50h-100A57.75 57.75 0 0 1 50 389.25v-178.5A57.75 57.75 0 0 1 104.25 150h77.5l28.5 50H104.5a12.5 12.5 0 0 0-4.5 10.75zM225 100a25 25 0 0 0-21.75 37.5L282 275H175a25 25 0 0 0-21.5 12.5 25 25 0 0 0 0 25l100 175a25 25 0 0 0 43.5-25L218 325h107a25 25 0 0 0 21.5-12.5 25 25 0 0 0 0-25l-100-175A25 25 0 0 0 225 100z"/><glyph glyph-name="checkmark" unicode="" horiz-adv-x="600" d="M246.5 150a25 25 0 0 0-18.25 8l-121.5 129.25a25 25 0 1 0 36.5 34.25l103-109.75 210.25 230a25 25 0 1 0 37-33.5l-228.5-250a25 25 0 0 0-18.25-8.25z"/><glyph glyph-name="checkmark-circle" unicode="" horiz-adv-x="600" d="M242.75 317.75a25 25 0 0 1-35.5-35.5l75-75A25 25 0 0 1 300 200a25 25 0 0 1 18 8.5l175 200a25 25 0 0 1-37.5 33L300 261.5zM525 325a25 25 0 0 1-25-25 200 200 0 0 0-200-200 200 200 0 0 0-141.75 341A198.25 198.25 0 0 0 300 500a219.75 219.75 0 0 0 47.5-5.5 25 25 0 1 1 11.75 48.5 263.5 263.5 0 0 1-59.25 7 250 250 0 0 1-175-427.25A248.25 248.25 0 0 1 300 50a250 250 0 0 1 250 250 25 25 0 0 1-25 25z"/><glyph glyph-name="checkmark-circle-2" unicode="" horiz-adv-x="600" d="M300 550a250 250 0 1 1 250-250 250 250 0 0 1-250 250zm107.5-190.25-114.25-150A25 25 0 0 0 273.5 200a25 25 0 0 0-19.75 9.5l-61 77.75a25 25 0 0 0 39.5 30.75L273 266l94.5 125a25 25 0 1 0 40-30.5z"/><glyph glyph-name="checkmark-circle-2-outline" unicode="" horiz-adv-x="600" d="M300 550a250 250 0 1 1 250-250 250 250 0 0 1-250 250zm0-450a200 200 0 1 0 200 200 200 200 0 0 0-200-200zm67.5 290.25-94.5-125L232.25 318a25 25 0 0 1-39.5-30.75l60.75-77.75a25 25 0 0 1 19.75-9.5 25 25 0 0 1 19.75 9.75l114.25 150a25 25 0 1 1-40 30.5z"/><glyph glyph-name="checkmark-circle-outline" unicode="" horiz-adv-x="600" d="M242.75 317.75a25 25 0 0 1-35.5-35.5l75-75A25 25 0 0 1 300 200a25 25 0 0 1 18 8.5l175 200a25 25 0 0 1-37.5 33L300 261.5zM525 325a25 25 0 0 1-25-25 200 200 0 0 0-200-200 200 200 0 0 0-141.75 341A198.25 198.25 0 0 0 300 500a219.75 219.75 0 0 0 47.5-5.5 25 25 0 1 1 11.75 48.5 263.5 263.5 0 0 1-59.25 7 250 250 0 0 1-175-427.25A248.25 248.25 0 0 1 300 50a250 250 0 0 1 250 250 25 25 0 0 1-25 25z"/><glyph glyph-name="checkmark-outline" unicode="" horiz-adv-x="600" d="M246.5 150a25 25 0 0 0-18.25 8l-121.5 129.25a25 25 0 1 0 36.5 34.25l103-109.75 210.25 230a25 25 0 1 0 37-33.5l-228.5-250a25 25 0 0 0-18.25-8.25z"/><glyph glyph-name="checkmark-square" unicode="" horiz-adv-x="600" d="M500 304.25a25 25 0 0 1-25-25V140a15 15 0 0 0-15-15H140a15 15 0 0 0-15 15v320a15 15 0 0 0 15 15h239.25a25 25 0 1 1 0 50H140a65.25 65.25 0 0 1-65-65V140a65.25 65.25 0 0 1 65-65h320a65.25 65.25 0 0 1 65 65v139.25a25 25 0 0 1-25 25zM268 325a25 25 0 0 1-36-34.5l55.5-58.25a25 25 0 0 1 18-7.75 25 25 0 0 1 18 7.5L493 407a25 25 0 1 1-36 35L305.75 285.5z"/><glyph glyph-name="checkmark-square-2" unicode="" horiz-adv-x="600" d="M450 525H150a75 75 0 0 1-75-75V150a75 75 0 0 1 75-75h300a75 75 0 0 1 75 75v300a75 75 0 0 1-75 75zm-42.5-165.25-114.25-150A25 25 0 0 0 273.5 200a25 25 0 0 0-19.75 9.5l-61 77.75a25 25 0 0 0 39.5 30.75L273 266l94.5 125a25 25 0 1 0 40-30.5z"/><glyph glyph-name="checkmark-square-2-outline" unicode="" horiz-adv-x="600" d="M450 525H150a75 75 0 0 1-75-75V150a75 75 0 0 1 75-75h300a75 75 0 0 1 75 75v300a75 75 0 0 1-75 75zm25-375a25 25 0 0 0-25-25H150a25 25 0 0 0-25 25v300a25 25 0 0 0 25 25h300a25 25 0 0 0 25-25zM367.5 390.25l-94.5-125L232.25 318a25 25 0 0 1-39.5-30.75l60.75-77.75a25 25 0 0 1 19.75-9.5 25 25 0 0 1 19.75 9.75l114.25 150a25 25 0 1 1-40 30.5z"/><glyph glyph-name="checkmark-square-outline" unicode="" horiz-adv-x="600" d="M500 304.25a25 25 0 0 1-25-25V140a15 15 0 0 0-15-15H140a15 15 0 0 0-15 15v320a15 15 0 0 0 15 15h239.25a25 25 0 1 1 0 50H140a65.25 65.25 0 0 1-65-65V140a65.25 65.25 0 0 1 65-65h320a65.25 65.25 0 0 1 65 65v139.25a25 25 0 0 1-25 25zM268 325a25 25 0 0 1-36-34.5l55.5-58.25a25 25 0 0 1 18-7.75 25 25 0 0 1 18 7.5L493 407a25 25 0 1 1-36 35L305.75 285.5z"/><glyph glyph-name="chevron-down" unicode="" horiz-adv-x="600" d="M300 212.5a25 25 0 0 0-17.75 7.25l-100 100a25 25 0 1 0 35.5 35.5L300 272.5l82.5 79.5a25 25 0 1 0 34.5-36l-100-96.5a25 25 0 0 0-17-7z"/><glyph glyph-name="chevron-down-outline" unicode="" horiz-adv-x="600" d="M300 212.5a25 25 0 0 0-17.75 7.25l-100 100a25 25 0 1 0 35.5 35.5L300 272.5l82.5 79.5a25 25 0 1 0 34.5-36l-100-96.5a25 25 0 0 0-17-7z"/><glyph glyph-name="chevron-left" unicode="" horiz-adv-x="600" d="M334 175a25 25 0 0 0-18 7.75l-96.5 100a25 25 0 0 0 0 35l100 100a25 25 0 1 0 35.5-35.5L272.5 300l79.5-82.5a25 25 0 0 0 0-35.25 25 25 0 0 0-18-7.25z"/><glyph glyph-name="chevron-left-outline" unicode="" horiz-adv-x="600" d="M334 175a25 25 0 0 0-18 7.75l-96.5 100a25 25 0 0 0 0 35l100 100a25 25 0 1 0 35.5-35.5L272.5 300l79.5-82.5a25 25 0 0 0 0-35.25 25 25 0 0 0-18-7.25z"/><glyph glyph-name="chevron-right" unicode="" horiz-adv-x="600" d="M262.5 175a25 25 0 0 0-17.75 7.25 25 25 0 0 0 0 35.5L327.5 300 248 382.75a25 25 0 0 0 0 35.25 25 25 0 0 0 35.5 0L380 318a25 25 0 0 0 0-35L280 183a25 25 0 0 0-17.5-8z"/><glyph glyph-name="chevron-right-outline" unicode="" horiz-adv-x="600" d="M262.5 175a25 25 0 0 0-17.75 7.25 25 25 0 0 0 0 35.5L327.5 300 248 382.75a25 25 0 0 0 0 35.25 25 25 0 0 0 35.5 0L380 318a25 25 0 0 0 0-35L280 183a25 25 0 0 0-17.5-8z"/><glyph glyph-name="chevron-up" unicode="" horiz-adv-x="600" d="M400 237.5a25 25 0 0 0-17.75 7.25L300 327.5 217.5 248a25 25 0 0 0-35.25 0 25 25 0 0 0 0 35.5l100 96.5a25 25 0 0 0 35 0l100-100a25 25 0 0 0 0-35.5 25 25 0 0 0-17.25-7z"/><glyph glyph-name="chevron-up-outline" unicode="" horiz-adv-x="600" d="M400 237.5a25 25 0 0 0-17.75 7.25L300 327.5 217.5 248a25 25 0 0 0-35.25 0 25 25 0 0 0 0 35.5l100 96.5a25 25 0 0 0 35 0l100-100a25 25 0 0 0 0-35.5 25 25 0 0 0-17.25-7z"/><glyph glyph-name="clipboard" unicode="" horiz-adv-x="600" d="M450 500v-75a50 50 0 0 0-50-50H200a50 50 0 0 0-50 50v75a75 75 0 0 1-75-75V125a75 75 0 0 1 75-75h300a75 75 0 0 1 75 75v300a75 75 0 0 1-75 75zm-250 50h200a25 25 0 0 0 25-25V425a25 25 0 0 0-25-25H200a25 25 0 0 0-25 25v100a25 25 0 0 0 25 25z"/><glyph glyph-name="clipboard-outline" unicode="" horiz-adv-x="600" d="M450 475v25a50 50 0 0 1-50 50H200a50 50 0 0 1-50-50v-25a75 75 0 0 1-75-75V125a75 75 0 0 1 75-75h300a75 75 0 0 1 75 75v275a75 75 0 0 1-75 75zm-250 25h200V400H200v100zm275-375a25 25 0 0 0-25-25H150a25 25 0 0 0-25 25v275a25 25 0 0 0 25 25v-25a50 50 0 0 1 50-50h200a50 50 0 0 1 50 50v25a25 25 0 0 0 25-25z"/><glyph glyph-name="clock" unicode="" horiz-adv-x="600" d="M300 550a250 250 0 1 1 250-250 250 250 0 0 1-250 250zm100-275H300a25 25 0 0 0-25 25v100a25 25 0 0 0 50 0v-75h75a25 25 0 0 0 0-50z"/><glyph glyph-name="clock-outline" unicode="" horiz-adv-x="600" d="M300 550a250 250 0 1 1 250-250 250 250 0 0 1-250 250zm0-450a200 200 0 1 0 200 200 200 200 0 0 0-200-200zm100 225h-75v75a25 25 0 0 1-50 0V300a25 25 0 0 1 25-25h100a25 25 0 0 1 0 50z"/><glyph glyph-name="close" unicode="" horiz-adv-x="600" d="m335.25 300 107.5 107.25a25 25 0 1 1-35.5 35.5L300 335.25l-107.25 107.5a25 25 0 0 1-35.5-35.5L264.75 300l-107.5-107.25a25 25 0 0 1 0-35.5 25 25 0 0 1 35.5 0L300 264.75l107.25-107.5a25 25 0 0 1 35.5 0 25 25 0 0 1 0 35.5z"/><glyph glyph-name="close-circle" unicode="" horiz-adv-x="600" d="M300 550a250 250 0 1 1 250-250 250 250 0 0 1-250 250zm67.75-282.25a25 25 0 0 0 0-35.5 25 25 0 0 0-35.5 0L300 264.75l-32.25-32.5a25 25 0 0 0-35.5 0 25 25 0 0 0 0 35.5l32.5 32.25-32.5 32.25a25 25 0 0 0 35.5 35.5l32.25-32.5 32.25 32.5a25 25 0 0 0 35.5-35.5L335.25 300z"/><glyph glyph-name="close-circle-outline" unicode="" horiz-adv-x="600" d="M300 550a250 250 0 1 1 250-250 250 250 0 0 1-250 250zm0-450a200 200 0 1 0 200 200 200 200 0 0 0-200-200zm67.75 267.75a25 25 0 0 1-35.5 0L300 335.25l-32.25 32.5a25 25 0 0 1-35.5-35.5l32.5-32.25-32.5-32.25a25 25 0 0 1 0-35.5 25 25 0 0 1 35.5 0l32.25 32.5 32.25-32.5a25 25 0 0 1 35.5 0 25 25 0 0 1 0 35.5L335.25 300l32.5 32.25a25 25 0 0 1 0 35.5z"/><glyph glyph-name="close-outline" unicode="" horiz-adv-x="600" d="m335.25 300 107.5 107.25a25 25 0 1 1-35.5 35.5L300 335.25l-107.25 107.5a25 25 0 0 1-35.5-35.5L264.75 300l-107.5-107.25a25 25 0 0 1 0-35.5 25 25 0 0 1 35.5 0L300 264.75l107.25-107.5a25 25 0 0 1 35.5 0 25 25 0 0 1 0 35.5z"/><glyph glyph-name="close-square" unicode="" horiz-adv-x="600" d="M450 525H150a75 75 0 0 1-75-75V150a75 75 0 0 1 75-75h300a75 75 0 0 1 75 75v300a75 75 0 0 1-75 75zm-82.25-257.25a25 25 0 0 0 0-35.5 25 25 0 0 0-35.5 0L300 264.75l-32.25-32.5a25 25 0 0 0-35.5 0 25 25 0 0 0 0 35.5l32.5 32.25-32.5 32.25a25 25 0 0 0 35.5 35.5l32.25-32.5 32.25 32.5a25 25 0 0 0 35.5-35.5L335.25 300z"/><glyph glyph-name="close-square-outline" unicode="" horiz-adv-x="600" d="M450 525H150a75 75 0 0 1-75-75V150a75 75 0 0 1 75-75h300a75 75 0 0 1 75 75v300a75 75 0 0 1-75 75zm25-375a25 25 0 0 0-25-25H150a25 25 0 0 0-25 25v300a25 25 0 0 0 25 25h300a25 25 0 0 0 25-25zM367.75 367.75a25 25 0 0 1-35.5 0L300 335.25l-32.25 32.5a25 25 0 0 1-35.5-35.5l32.5-32.25-32.5-32.25a25 25 0 0 1 0-35.5 25 25 0 0 1 35.5 0l32.25 32.5 32.25-32.5a25 25 0 0 1 35.5 0 25 25 0 0 1 0 35.5L335.25 300l32.5 32.25a25 25 0 0 1 0 35.5z"/><glyph glyph-name="cloud-download" unicode="" horiz-adv-x="600" d="M547.5 325c0 2.75-1.5 5.5-2.25 8.25a104.25 104.25 0 0 1-4.5 14.25c-1.25 3-3 6-4.5 9.25s-3.75 7.5-6 11S525 373 525 375s-5 6.25-7.75 9.25-5.25 5-8 7.5L500 400l-9 6a92 92 0 0 1-11 5.75l-9.75 4.5a103.25 103.25 0 0 1-12.5 3.75 75 75 0 0 1-10.25 2.25H443A150 150 0 0 1 158.25 425h-4.5a75 75 0 0 1-10.25-2.25A103.25 103.25 0 0 1 131 419l-9.75-4.5a92 92 0 0 1-11-5.75l-9-8.75-9.25-7.75c-2.75-2.5-5.5-4.75-8-7.5s-5.25-6.25-7.75-9.25-4.5-5.75-6.5-9-4-7.25-6-11-3.25-6.25-4.5-9.25a104.25 104.25 0 0 1-4.5-14.25c0-2.75-1.75-5.5-2.25-8.25A130.75 130.75 0 0 1 50 300a137.5 137.5 0 0 1 2.25-22.75c0-2.5 1.25-4.75 1.75-7.25a139.5 139.5 0 0 1 4.5-14.5l3-7.25a125 125 0 0 1 7.5-14l3.5-5.5a14 14 0 0 1 1.25-2L75 225a125 125 0 0 1 100-50 50 50 0 0 0 14.75 35.25A50 50 0 0 0 225 225a48 48 0 0 0 25-6.75V300a50 50 0 0 0 100 0v-84.25a50 50 0 0 0 25 6.75 51.25 51.25 0 0 0 36-15.25A50 50 0 0 0 425 175a125 125 0 0 1 100 50l1.25 1.25a14 14 0 0 1 1.25 2l3.5 5.5a125 125 0 0 1 7.5 14l3 7.25a139.5 139.5 0 0 1 4.5 14.5c0 2.5 1.25 4.75 1.75 7.25A137.5 137.5 0 0 1 550 300a130.75 130.75 0 0 1-2.5 25zM357.75 190.5 325 159v141a25 25 0 0 1-50 0V160.25l-32.25 32.5a25 25 0 0 1-35.5-35.5l75-75A25 25 0 0 1 300 75a25 25 0 0 1 17.25 7l75 72.5a25 25 0 1 1-34.5 36zM547.5 325c0 2.75-1.5 5.5-2.25 8.25a104.25 104.25 0 0 1-4.5 14.25c-1.25 3-3 6-4.5 9.25s-3.75 7.5-6 11S525 373 525 375s-5 6.25-7.75 9.25-5.25 5-8 7.5L500 400l-9 6a92 92 0 0 1-11 5.75l-9.75 4.5a103.25 103.25 0 0 1-12.5 3.75 75 75 0 0 1-10.25 2.25H443A150 150 0 0 1 158.25 425h-4.5a75 75 0 0 1-10.25-2.25A103.25 103.25 0 0 1 131 419l-9.75-4.5a92 92 0 0 1-11-5.75l-9-8.75-9.25-7.75c-2.75-2.5-5.5-4.75-8-7.5s-5.25-6.25-7.75-9.25-4.5-5.75-6.5-9-4-7.25-6-11-3.25-6.25-4.5-9.25a104.25 104.25 0 0 1-4.5-14.25c0-2.75-1.75-5.5-2.25-8.25A130.75 130.75 0 0 1 50 300a137.5 137.5 0 0 1 2.25-22.75c0-2.5 1.25-4.75 1.75-7.25a139.5 139.5 0 0 1 4.5-14.5l3-7.25a125 125 0 0 1 7.5-14l3.5-5.5a14 14 0 0 1 1.25-2L75 225a125 125 0 0 1 100-50 50 50 0 0 0 14.75 35.25A50 50 0 0 0 225 225a48 48 0 0 0 25-6.75V300a50 50 0 0 0 100 0v-84.25a50 50 0 0 0 25 6.75 51.25 51.25 0 0 0 36-15.25A50 50 0 0 0 425 175a125 125 0 0 1 100 50l1.25 1.25a14 14 0 0 1 1.25 2l3.5 5.5a125 125 0 0 1 7.5 14l3 7.25a139.5 139.5 0 0 1 4.5 14.5c0 2.5 1.25 4.75 1.75 7.25A137.5 137.5 0 0 1 550 300a130.75 130.75 0 0 1-2.5 25zM357.75 190.5 325 159v141a25 25 0 0 1-50 0V160.25l-32.25 32.5a25 25 0 0 1-35.5-35.5l75-75A25 25 0 0 1 300 75a25 25 0 0 1 17.25 7l75 72.5a25 25 0 1 1-34.5 36z"/><glyph glyph-name="cloud-download-outline" unicode="" horiz-adv-x="600" d="M357.75 190.5 325 159v141a25 25 0 0 1-50 0V160.25l-32.25 32.5a25 25 0 0 1-35.5-35.5l75-75A25 25 0 0 1 300 75a25 25 0 0 1 17.25 7l75 72.5a25 25 0 1 1-34.5 36zm84 234.5a150 150 0 0 1-283.5 0 125 125 0 0 1-77-206.75 25 25 0 1 1 37.5 31.75A75 75 0 0 0 175 375h2.5a25 25 0 0 1 25 20 100 100 0 0 0 196 0 25 25 0 0 1 25-20h1.5a75 75 0 0 0 56.25-125 25 25 0 0 1 2.25-35.5 25 25 0 0 1 16.5-6.25 25 25 0 0 1 18.75 8.5 125 125 0 0 1-77 208.25z"/><glyph glyph-name="cloud-upload" unicode="" horiz-adv-x="600" d="M547.5 300c0 2.75-1.5 5.5-2.25 8.25a104.25 104.25 0 0 1-4.5 14.25c-1.25 3-3 6-4.5 9.25s-3.75 7.5-6 11S525 348 525 350s-5 6.25-7.75 9.25-5.25 5-8 7.5L500 375l-9 6a92 92 0 0 1-11 5.75l-9.75 4.5a103.25 103.25 0 0 1-12.5 3.75 75 75 0 0 1-10.25 2.25l-5.75 2.75a150 150 0 0 1-283.5 0l-4.5-1.25a75 75 0 0 1-10.25-2.25 103.25 103.25 0 0 1-12.5-3.75l-9.75-4.5a92 92 0 0 1-11-5.75l-9-7.5-9.25-7.75c-2.75-2.5-5.5-4.75-8-7.5s-5.25-6.25-7.75-9.25-4.5-5.75-6.5-9-4-7.25-6-11-3.25-6.25-4.5-9.25a104.25 104.25 0 0 1-4.5-14.25c0-2.75-1.75-5.5-2.25-8.25A130.75 130.75 0 0 1 50 275a137.5 137.5 0 0 1 2.25-22.75c0-2.5 1.25-4.75 1.75-7.25a139.5 139.5 0 0 1 4.5-14.5l3-7.25a125 125 0 0 1 7.5-14l3.5-5.5a14 14 0 0 1 1.25-2L75 200a125 125 0 0 1 100-50h75v34.25a50 50 0 0 0-25-6.75 51.25 51.25 0 0 0-36 15.25 50 50 0 0 0 1.25 70.75l75 72.5A50 50 0 0 0 300 350a50 50 0 0 0 35.25-14.75l75-75a50 50 0 0 0 0-70.5A50 50 0 0 0 375 175a48 48 0 0 0-25 6.75V150h75a125 125 0 0 1 100 50l1.25 1.25a14 14 0 0 1 1.25 2l3.5 5.5a125 125 0 0 1 7.5 14l3 7.25a139.5 139.5 0 0 1 4.5 14.5c0 2.5 1.25 4.75 1.75 7.25A137.5 137.5 0 0 1 550 275a130.75 130.75 0 0 1-2.5 25zm-229.75 17.75a25 25 0 0 1-35 0l-75-72.5a25 25 0 1 1 34.5-36L275 241V100a25 25 0 0 1 50 0v139.75l32.25-32.5a25 25 0 0 1 35.5 0 25 25 0 0 1 0 35.5z"/><glyph glyph-name="cloud-upload-outline" unicode="" horiz-adv-x="600" d="M317.75 317.75a25 25 0 0 1-35 0l-75-72.5a25 25 0 1 1 34.5-36L275 241V100a25 25 0 0 1 50 0v139.75l32.25-32.5a25 25 0 0 1 35.5 0 25 25 0 0 1 0 35.5zm124 107.25a150 150 0 0 1-283.5 0 125 125 0 0 1-77-206.75 25 25 0 1 1 37.5 31.75A75 75 0 0 0 175 375h2.5a25 25 0 0 1 25 20 100 100 0 0 0 196 0 25 25 0 0 1 25-20h1.5a75 75 0 0 0 56.25-125 25 25 0 0 1 2.25-35.5 25 25 0 0 1 16.5-6.25 25 25 0 0 1 18.75 8.5 125 125 0 0 1-77 208.25z"/><glyph glyph-name="code" unicode="" horiz-adv-x="600" d="M216 469.25a25 25 0 0 1-35.25-3.25l-125-150a25 25 0 0 1 0-31.75l120.75-150A25 25 0 0 1 196 125a25 25 0 0 1 19.5 40.75L107.25 300l112 134a25 25 0 0 1-3.25 35.25zm328.5-153.5-119.5 150a25 25 0 0 1-35.25 3.75 25 25 0 0 1-3.75-35.25L492.75 300l-112-134.25A25 25 0 0 1 384 130.5a25 25 0 0 1 16-5.5 25 25 0 0 1 19.25 9l125 150a25 25 0 0 1 .25 31.75z"/><glyph glyph-name="code-download" unicode="" horiz-adv-x="600" d="m107.25 300 112 134a25 25 0 1 1-38.5 32l-125-150a25 25 0 0 1 0-31.75l120.75-150A25 25 0 0 1 196 125a25 25 0 0 1 19.5 40.75zm437.25 15.75-119.5 150a25 25 0 0 1-39-31.5L492.75 300l-112-134.25A25 25 0 0 1 384 130.5a25 25 0 0 1 16-5.5 25 25 0 0 1 19.25 9l125 150a25 25 0 0 1 .25 31.75zm-151.5-1a25 25 0 0 1-35.25 0L325 284v116a25 25 0 0 1-50 0V285.25l-32.25 32.5a25 25 0 0 1-35.5-35.5l75-75A25 25 0 0 1 300 200a25 25 0 0 1 17.25 7l75 72.5a25 25 0 0 1 .75 35.25z"/><glyph glyph-name="code-download-outline" unicode="" horiz-adv-x="600" d="m107.25 300 112 134a25 25 0 1 1-38.5 32l-125-150a25 25 0 0 1 0-31.75l120.75-150A25 25 0 0 1 196 125a25 25 0 0 1 19.5 40.75zm437.25 15.75-119.5 150a25 25 0 0 1-39-31.5L492.75 300l-112-134.25A25 25 0 0 1 384 130.5a25 25 0 0 1 16-5.5 25 25 0 0 1 19.25 9l125 150a25 25 0 0 1 .25 31.75zm-151.5-1a25 25 0 0 1-35.25 0L325 284v116a25 25 0 0 1-50 0V285.25l-32.25 32.5a25 25 0 0 1-35.5-35.5l75-75A25 25 0 0 1 300 200a25 25 0 0 1 17.25 7l75 72.5a25 25 0 0 1 .75 35.25z"/><glyph glyph-name="code-outline" unicode="" horiz-adv-x="600" d="M216 469.25a25 25 0 0 1-35.25-3.25l-125-150a25 25 0 0 1 0-31.75l120.75-150A25 25 0 0 1 196 125a25 25 0 0 1 19.5 40.75L107.25 300l112 134a25 25 0 0 1-3.25 35.25zm328.5-153.5-119.5 150a25 25 0 0 1-35.25 3.75 25 25 0 0 1-3.75-35.25L492.75 300l-112-134.25A25 25 0 0 1 384 130.5a25 25 0 0 1 16-5.5 25 25 0 0 1 19.25 9l125 150a25 25 0 0 1 .25 31.75z"/><glyph glyph-name="collapse" unicode="" horiz-adv-x="600" d="M475 375h-64.5l82.25 82.25a25 25 0 1 1-35.5 35.5l-82.25-82V475a25 25 0 0 1-25 25 25 25 0 0 1-25-25V350a25 25 0 0 1 25-25h125a25 25 0 0 1 0 50zM250 275H125a25 25 0 0 1 0-50h64.25l-82-82.25a25 25 0 0 1 0-35.5 25 25 0 0 1 35.5 0L225 189.5V125a25 25 0 0 1 25-25 25 25 0 0 1 25 25v125a25 25 0 0 1-25 25z"/><glyph glyph-name="collapse-outline" unicode="" horiz-adv-x="600" d="M475 375h-64.5l82.25 82.25a25 25 0 1 1-35.5 35.5l-82.25-82V475a25 25 0 0 1-25 25 25 25 0 0 1-25-25V350a25 25 0 0 1 25-25h125a25 25 0 0 1 0 50zM250 275H125a25 25 0 0 1 0-50h64.25l-82-82.25a25 25 0 0 1 0-35.5 25 25 0 0 1 35.5 0L225 189.5V125a25 25 0 0 1 25-25 25 25 0 0 1 25 25v125a25 25 0 0 1-25 25z"/><glyph glyph-name="color-palette" unicode="" horiz-adv-x="600" d="M488.5 473a265.25 265.25 0 0 1-190.75 77 250 250 0 0 1-1.25-500 64.5 64.5 0 0 1 63.25 47.25 63 63 0 0 1-14.25 57 12.5 12.5 0 0 0 9.25 20.75H396a153.75 153.75 0 0 1 154 141.75A212 212 0 0 1 488.5 473zM171 231.5a37.5 37.5 0 1 0 10 52 37.25 37.25 0 0 0-10-52zm36.5 137.25a37.5 37.5 0 1 0-13.75 50 37.5 37.5 0 0 0 13.75-50zM275 425a37.5 37.5 0 1 0 37.5 37.5A37.5 37.5 0 0 0 275 425zm143.75-20a37.5 37.5 0 1 0 13.75 50 37.5 37.5 0 0 0-13.75-50z"/><glyph glyph-name="color-palette-outline" unicode="" horiz-adv-x="600" d="M488.5 473a265.25 265.25 0 0 1-190.75 77 250 250 0 0 1-1.25-500 64.5 64.5 0 0 1 63.25 47.25 63 63 0 0 1-14.25 57 12.5 12.5 0 0 0 9.25 20.75H396a153.75 153.75 0 0 1 154 141.75A212 212 0 0 1 488.5 473zM397 225h-41.25A62.25 62.25 0 0 1 309 121.25a12.25 12.25 0 0 0 3-12.25c-1.25-5.25-7-8.5-14.75-9a200 200 0 0 0-195.5 227.75A202.5 202.5 0 0 0 298 500h2a211.75 211.75 0 0 0 152.5-62A162.5 162.5 0 0 0 500 318.75 104.25 104.25 0 0 0 397 225zM262.5 437.5a37.5 37.5 0 0 1 75 0 37.5 37.5 0 0 1-75 0M381.25 420a37.5 37.5 0 1 1 51.25-13.75A37.5 37.5 0 0 1 381.25 420zm-162.5 0a37.5 37.5 0 1 1 13.75-51.25A37.5 37.5 0 0 1 218.75 420zM154 318.5a37.5 37.5 0 1 1 52-10 37.25 37.25 0 0 1-52 10z"/><glyph glyph-name="color-picker" unicode="" horiz-adv-x="600" d="M485 416.5 416.5 485a48 48 0 0 1-66.5 1.75l-50-50-32.25 31a25 25 0 0 1-35.5-35.5l31-32.25L125 261.75a50 50 0 0 1-14.25-30.25L100 127.25a25 25 0 0 1 7.25-20A25 25 0 0 1 125 100h2.25l104.25 9.5a50 50 0 0 1 30.25 14.25l139.5 139.5 31-31a25 25 0 0 1 35.5 0 25 25 0 0 1 0 35.5l-31 31 50 50A48 48 0 0 1 485 416.5zm-325-190L300 366l67.25-67.5-69.75-69.75"/><glyph glyph-name="color-picker-outline" unicode="" horiz-adv-x="600" d="M485 416.5 416.5 485a48 48 0 0 1-66.5 1.75l-50-50-32.25 31a25 25 0 0 1-35.5-35.5l31-32.25L125 261.75a50 50 0 0 1-14.25-30.25L100 127.25a25 25 0 0 1 7.25-20A25 25 0 0 1 125 100h2.25l104.25 9.5a50 50 0 0 1 30.25 14.25l139.5 139.5 31-31a25 25 0 0 1 35.5 0 25 25 0 0 1 0 35.5l-31 31 50 50A48 48 0 0 1 485 416.5zm-258-257-75-7 6.75 75L300 366l67.25-67.5zm175 175L334 400l47.75 50L450 381.75z"/><glyph glyph-name="compass" unicode="" horiz-adv-x="600" d="m270 269.75 42.25 17 17.75 43.5-42.25-17-17.75-43.5zM300 550a250 250 0 1 1 250-250 250 250 0 0 1-250 250zm98.25-185.5L354.5 258a25 25 0 0 0-13.75-13.75l-105.25-42.5A25 25 0 0 0 225 200a25 25 0 0 0-17.75 7.75H206a25 25 0 0 0-4.5 25l43.75 106.5A25 25 0 0 0 259 353l105.25 42.5a25 25 0 0 0 27.5-6.25 25 25 0 0 0 6.5-24.75z"/><glyph glyph-name="compass-outline" unicode="" horiz-adv-x="600" d="M300 550a250 250 0 1 1 250-250 250 250 0 0 1-250 250zm0-450a200 200 0 1 0 200 200 200 200 0 0 0-200-200zm92 292a25 25 0 0 1-27.5 6.25l-105.25-42.5A25 25 0 0 1 245.5 342l-43.75-106.5a25 25 0 0 1 4.5-25h1.25A25 25 0 0 1 225 200a25 25 0 0 1 9.5 1.75l105.25 42.5A25 25 0 0 1 353.5 258l43.75 106.5A25 25 0 0 1 392 392zM270 269.75l17.75 43.5 42.25 17-17.75-43.5z"/><glyph glyph-name="copy" unicode="" horiz-adv-x="600" d="M450 375h-75v83.25A67 67 0 0 1 308.25 525h-166.5A67 67 0 0 1 75 458.25v-166.5A67 67 0 0 1 141.75 225H225v-75a75 75 0 0 1 75-75h150a75 75 0 0 1 75 75v150a75 75 0 0 1-75 75zm-225-75v-25h-83.25A16.75 16.75 0 0 0 125 291.75v166.5A16.75 16.75 0 0 0 141.75 475h166.5A16.75 16.75 0 0 0 325 458.25V375h-25a75 75 0 0 1-75-75z"/><glyph glyph-name="copy-outline" unicode="" horiz-adv-x="600" d="M450 75H300a75 75 0 0 0-75 75v150a75 75 0 0 0 75 75h150a75 75 0 0 0 75-75V150a75 75 0 0 0-75-75zM300 325a25 25 0 0 1-25-25V150a25 25 0 0 1 25-25h150a25 25 0 0 1 25 25v150a25 25 0 0 1-25 25zm-56.75-100h-101.5A67 67 0 0 0 75 291.75v166.5A67 67 0 0 0 141.75 525h166.5A67 67 0 0 0 375 458.25V365h-50v93.25A16.75 16.75 0 0 1 308.25 475h-166.5A16.75 16.75 0 0 1 125 458.25v-166.5A16.75 16.75 0 0 1 141.75 275h101.5z"/><glyph glyph-name="corner-down-left" unicode="" horiz-adv-x="600" d="M497.925 450.622a24.896 24.896 0 0 1-24.896 24.897 24.896 24.896 0 0 1-24.896-24.897v-124.48a24.896 24.896 0 0 0-7.22-17.677 24.896 24.896 0 0 0-17.676-7.22H201.162l66.97 84.398a24.896 24.896 0 0 1-37.842 29.129L130.705 290.29a24.896 24.896 0 0 1 0-31.12L230.29 134.69a24.896 24.896 0 0 1 19.42-9.212 24.896 24.896 0 0 1 15.435 5.477 24.896 24.896 0 0 1 3.735 35.104l-66.224 83.652H424.73a74.689 74.689 0 0 1 74.69 74.688z"/><glyph glyph-name="corner-down-left-outline" unicode="" horiz-adv-x="600" d="M497.925 450.622a24.896 24.896 0 0 1-24.896 24.897 24.896 24.896 0 0 1-24.896-24.897v-124.48a24.896 24.896 0 0 0-7.22-17.677 24.896 24.896 0 0 0-17.676-7.22H201.162l66.97 84.398a24.896 24.896 0 0 1-37.842 29.129L130.705 290.29a24.896 24.896 0 0 1 0-31.12L230.29 134.69a24.896 24.896 0 0 1 19.42-9.212 24.896 24.896 0 0 1 15.435 5.477 24.896 24.896 0 0 1 3.735 35.104l-66.224 83.652H424.73a74.689 74.689 0 0 1 74.69 74.688z"/><glyph glyph-name="corner-down-right" unicode="" horiz-adv-x="600" d="m494.5 290.5-100 125a25 25 0 0 1-39-31L423 300H200a25 25 0 0 0-25 25v125a25 25 0 0 1-50 0V325a75 75 0 0 1 75-75h223l-67.5-84.5a25 25 0 0 1 4-35A25 25 0 0 1 375 125a25 25 0 0 1 19.5 9.5l100 125a25 25 0 0 1 0 31z"/><glyph glyph-name="corner-down-right-outline" unicode="" horiz-adv-x="600" d="m494.5 290.5-100 125a25 25 0 0 1-39-31L423 300H200a25 25 0 0 0-25 25v125a25 25 0 0 1-50 0V325a75 75 0 0 1 75-75h223l-67.5-84.5a25 25 0 0 1 4-35A25 25 0 0 1 375 125a25 25 0 0 1 19.5 9.5l100 125a25 25 0 0 1 0 31z"/><glyph glyph-name="corner-left-down" unicode="" horiz-adv-x="600" d="M450 475H325a75 75 0 0 1-75-75V177l-84.5 67.5a25 25 0 0 1-31-39l125-100a25 25 0 0 1 31 0l125 100a25 25 0 1 1-31 39L300 177v223a25 25 0 0 0 25 25h125a25 25 0 0 1 0 50z"/><glyph glyph-name="corner-left-down-outline" unicode="" horiz-adv-x="600" d="M450 475H325a75 75 0 0 1-75-75V177l-84.5 67.5a25 25 0 0 1-31-39l125-100a25 25 0 0 1 31 0l125 100a25 25 0 1 1-31 39L300 177v223a25 25 0 0 0 25 25h125a25 25 0 0 1 0 50z"/><glyph glyph-name="corner-left-up" unicode="" horiz-adv-x="600" d="M450 175H325a25 25 0 0 0-25 25v223l84.5-67.5A25 25 0 0 1 400 350a25 25 0 0 1 19.5 9.5 25 25 0 0 1-4 35l-125 100a25 25 0 0 1-31 0l-125-100a25 25 0 0 1 31-39L250 423V200a75 75 0 0 1 75-75h125a25 25 0 0 1 0 50z"/><glyph glyph-name="corner-left-up-outline" unicode="" horiz-adv-x="600" d="M450 175H325a25 25 0 0 0-25 25v223l84.5-67.5A25 25 0 0 1 400 350a25 25 0 0 1 19.5 9.5 25 25 0 0 1-4 35l-125 100a25 25 0 0 1-31 0l-125-100a25 25 0 0 1 31-39L250 423V200a75 75 0 0 1 75-75h125a25 25 0 0 1 0 50z"/><glyph glyph-name="corner-right-down" unicode="" horiz-adv-x="600" d="M469.5 240.5a25 25 0 0 1-35 4L350 177v223a75 75 0 0 1-75 75H150a25 25 0 0 1 0-50h125a25 25 0 0 0 25-25V177l-84.5 67.5a25 25 0 0 1-31-39l125-100a25 25 0 0 1 31 0l125 100a25 25 0 0 1 4 35z"/><glyph glyph-name="corner-right-down-outline" unicode="" horiz-adv-x="600" d="M469.5 240.5a25 25 0 0 1-35 4L350 177v223a75 75 0 0 1-75 75H150a25 25 0 0 1 0-50h125a25 25 0 0 0 25-25V177l-84.5 67.5a25 25 0 0 1-31-39l125-100a25 25 0 0 1 31 0l125 100a25 25 0 0 1 4 35z"/><glyph glyph-name="corner-right-up" unicode="" horiz-adv-x="600" d="m465.5 394.5-125 100a25 25 0 0 1-31 0l-125-100a25 25 0 0 1 31-39L300 423V200a25 25 0 0 0-25-25H150a25 25 0 0 1 0-50h125a75 75 0 0 1 75 75v223l84.5-67.5A25 25 0 0 1 450 350a25 25 0 0 1 19.5 9.5 25 25 0 0 1-4 35z"/><glyph glyph-name="corner-right-up-outline" unicode="" horiz-adv-x="600" d="m465.5 394.5-125 100a25 25 0 0 1-31 0l-125-100a25 25 0 0 1 31-39L300 423V200a25 25 0 0 0-25-25H150a25 25 0 0 1 0-50h125a75 75 0 0 1 75 75v223l84.5-67.5A25 25 0 0 1 450 350a25 25 0 0 1 19.5 9.5 25 25 0 0 1-4 35z"/><glyph glyph-name="corner-up-left" unicode="" horiz-adv-x="600" d="M400 350H177l67.5 84.5a25 25 0 1 1-39 31l-100-125a25 25 0 0 1 0-31l100-125A25 25 0 0 1 225 175a25 25 0 0 1 15.5 5.5 25 25 0 0 1 4 35L177 300h223a25 25 0 0 0 25-25V150a25 25 0 0 1 50 0v125a75 75 0 0 1-75 75z"/><glyph glyph-name="corner-up-left-outline" unicode="" horiz-adv-x="600" d="M400 350H177l67.5 84.5a25 25 0 1 1-39 31l-100-125a25 25 0 0 1 0-31l100-125A25 25 0 0 1 225 175a25 25 0 0 1 15.5 5.5 25 25 0 0 1 4 35L177 300h223a25 25 0 0 0 25-25V150a25 25 0 0 1 50 0v125a75 75 0 0 1-75 75z"/><glyph glyph-name="corner-up-right" unicode="" horiz-adv-x="600" d="m494.5 340.5-100 125a25 25 0 0 1-39-31L423 350H200a75 75 0 0 1-75-75V150a25 25 0 0 1 50 0v125a25 25 0 0 0 25 25h223l-67.5-84.5a25 25 0 0 1 4-35A25 25 0 0 1 375 175a25 25 0 0 1 19.5 9.5l100 125a25 25 0 0 1 0 31z"/><glyph glyph-name="corner-up-right-outline" unicode="" horiz-adv-x="600" d="m494.5 340.5-100 125a25 25 0 0 1-39-31L423 350H200a75 75 0 0 1-75-75V150a25 25 0 0 1 50 0v125a25 25 0 0 0 25 25h223l-67.5-84.5a25 25 0 0 1 4-35A25 25 0 0 1 375 175a25 25 0 0 1 19.5 9.5l100 125a25 25 0 0 1 0 31z"/><glyph glyph-name="credit-card" unicode="" horiz-adv-x="600" d="M475 475H125a75 75 0 0 1-75-75V200a75 75 0 0 1 75-75h350a75 75 0 0 1 75 75v200a75 75 0 0 1-75 75zM275 225H175a25 25 0 0 0 0 50h100a25 25 0 0 0 0-50zm150 0h-50a25 25 0 0 0 0 50h50a25 25 0 0 0 0-50zm75 150H100v25a25 25 0 0 0 25 25h350a25 25 0 0 0 25-25z"/><glyph glyph-name="credit-card-outline" unicode="" horiz-adv-x="600" d="M475 475H125a75 75 0 0 1-75-75V200a75 75 0 0 1 75-75h350a75 75 0 0 1 75 75v200a75 75 0 0 1-75 75zm-375-75a25 25 0 0 0 25 25h350a25 25 0 0 0 25-25v-25H100zm400-200a25 25 0 0 0-25-25H125a25 25 0 0 0-25 25v125h400zm-325 25h100a25 25 0 0 1 0 50H175a25 25 0 0 1 0-50zm200 0h50a25 25 0 0 1 0 50h-50a25 25 0 0 1 0-50z"/><glyph glyph-name="crop" unicode="" horiz-adv-x="600" d="M525 200h-75v186a64 64 0 0 1-64 64H200v75a25 25 0 0 1-50 0v-75H75a25 25 0 0 1 0-50h75V214a64 64 0 0 1 64-64h186V75a25 25 0 0 1 50 0v75h75a25 25 0 0 1 0 50zm-311 0a14 14 0 0 0-14 14v186h186a14 14 0 0 0 14-14V200z"/><glyph glyph-name="crop-outline" unicode="" horiz-adv-x="600" d="M525 200h-75v186a64 64 0 0 1-64 64H200v75a25 25 0 0 1-50 0v-75H75a25 25 0 0 1 0-50h75V214a64 64 0 0 1 64-64h186V75a25 25 0 0 1 50 0v75h75a25 25 0 0 1 0 50zm-311 0a14 14 0 0 0-14 14v186h186a14 14 0 0 0 14-14V200z"/><glyph glyph-name="cube" unicode="" horiz-adv-x="600" d="M281.25 304.25 75 391V197.75a42.25 42.25 0 0 1 25-38L279.75 75h1.5zM300 337.5l212.75 89.25a40.5 40.5 0 0 1-12.75 9.5L320 520.5a46.75 46.75 0 0 1-40 0l-180-84.25a40.5 40.5 0 0 1-12.75-9.5zm18.75-33.25V75H320l180 84.75a42.25 42.25 0 0 1 25 37.75V391z"/><glyph glyph-name="cube-outline" unicode="" horiz-adv-x="600" d="M516.5 418.5c0 1.75-2.5 3.5-3.75 5.25l-2.25 2.5a62.5 62.5 0 0 1-21.5 17l-160 75a67.5 67.5 0 0 1-56.5 0l-160-75a65 65 0 0 1-21.5-17L88 425a25 25 0 0 1-3.75-5A59.75 59.75 0 0 1 75 388.5V212a62.25 62.25 0 0 1 36.5-56.5l160-75a67.5 67.5 0 0 1 56.75 0l160 75a62.25 62.25 0 0 1 36.75 56v177a59.75 59.75 0 0 1-8.5 30zm-223.75 55a18.25 18.25 0 0 0 14.5 0l133.25-62L300 346.25 159.5 411.5zM132.5 200a11.75 11.75 0 0 0-7.5 10.75V372.5l150-69.75v-168zm334.75 0L325 134.75v168l150 69.75v-161a12 12 0 0 0-7.75-11.5z"/><glyph glyph-name="diagonal-arrow-left-down" unicode="" horiz-adv-x="600" d="M442.75 442.75a25 25 0 0 1-35.5 0L200 235.25V375a25 25 0 0 1-50 0V175a25 25 0 0 1 25-25h200a25 25 0 0 1 0 50H235.25l207.5 207.25a25 25 0 0 1 0 35.5z"/><glyph glyph-name="diagonal-arrow-left-down-outline" unicode="" horiz-adv-x="600" d="M442.75 442.75a25 25 0 0 1-35.5 0L200 235.25V375a25 25 0 0 1-50 0V175a25 25 0 0 1 25-25h200a25 25 0 0 1 0 50H235.25l207.5 207.25a25 25 0 0 1 0 35.5z"/><glyph glyph-name="diagonal-arrow-left-up" unicode="" horiz-adv-x="600" d="M442.75 192.75 235.5 400H375a25 25 0 0 1 0 50H176.25a25 25 0 0 1-25-25V225a25 25 0 0 1 25-25H175a25 25 0 0 1 25 25v138.75l206.5-206.5a25 25 0 0 1 35.5 0 25 25 0 0 1 .75 35.5z"/><glyph glyph-name="diagonal-arrow-left-up-outline" unicode="" horiz-adv-x="600" d="M442.75 192.75 235.5 400H375a25 25 0 0 1 0 50H176.25a25 25 0 0 1-25-25V225a25 25 0 0 1 25-25H175a25 25 0 0 1 25 25v138.75l206.5-206.5a25 25 0 0 1 35.5 0 25 25 0 0 1 .75 35.5z"/><glyph glyph-name="diagonal-arrow-right-down" unicode="" horiz-adv-x="600" d="M425 400a25 25 0 0 1-25-25V235.25l-207.25 207.5a25 25 0 0 1-35.5-35.5L364.75 200H225a25 25 0 0 1 0-50h200a25 25 0 0 1 25 25v200a25 25 0 0 1-25 25z"/><glyph glyph-name="diagonal-arrow-right-down-outline" unicode="" horiz-adv-x="600" d="M425 400a25 25 0 0 1-25-25V235.25l-207.25 207.5a25 25 0 0 1-35.5-35.5L364.75 200H225a25 25 0 0 1 0-50h200a25 25 0 0 1 25 25v200a25 25 0 0 1-25 25z"/><glyph glyph-name="diagonal-arrow-right-up" unicode="" horiz-adv-x="600" d="M450 423.75a25 25 0 0 1-25 25L225 450a25 25 0 0 1 0-50h139L157.25 192.75a25 25 0 0 1 0-35.5 25 25 0 0 1 35.5 0L400 364.5V225a25 25 0 0 1 25-25 25 25 0 0 1 25 25z"/><glyph glyph-name="diagonal-arrow-right-up-outline" unicode="" horiz-adv-x="600" d="M450 423.75a25 25 0 0 1-25 25L225 450a25 25 0 0 1 0-50h139L157.25 192.75a25 25 0 0 1 0-35.5 25 25 0 0 1 35.5 0L400 364.5V225a25 25 0 0 1 25-25 25 25 0 0 1 25 25z"/><glyph glyph-name="done-all" unicode="" horiz-adv-x="600" d="M415.5 444.75a25 25 0 0 1-35.25-4.25l-175-225L119.5 320a25 25 0 1 1-39-31.25l104.25-129.5a25 25 0 0 1 19.5-9.25 25 25 0 0 1 20.75 9.5l195.75 250a25 25 0 0 1-5.25 35.25zm125 0a25 25 0 0 1-35.25-4.25l-175-225L315 234.25l-31.5-40.5L311 159.5a25 25 0 0 1 19.5-9.25 25 25 0 0 1 19.5 9.5l195.75 250a25 25 0 0 1-5.25 35zM217.75 273.5 250 314l-5 6a25 25 0 0 1-35.75 5 25 25 0 0 1-3.75-35.25z"/><glyph glyph-name="done-all-outline" unicode="" horiz-adv-x="600" d="M415.5 444.75a25 25 0 0 1-35.25-4.25l-175-225L119.5 320a25 25 0 1 1-39-31.25l104.25-129.5a25 25 0 0 1 19.5-9.25 25 25 0 0 1 20.75 9.5l195.75 250a25 25 0 0 1-5.25 35.25zm125 0a25 25 0 0 1-35.25-4.25l-175-225L315 234.25l-31.5-40.5L311 159.5a25 25 0 0 1 19.5-9.25 25 25 0 0 1 19.5 9.5l195.75 250a25 25 0 0 1-5.25 35zM217.75 273.5 250 314l-5 6a25 25 0 0 1-35.75 5 25 25 0 0 1-3.75-35.25z"/><glyph glyph-name="download" unicode="" horiz-adv-x="600" d="M125 150h350a25 25 0 0 0 25-25 25 25 0 0 0-25-25H125a25 25 0 0 0-25 25 25 25 0 0 0 25 25zm-25-25v50a25 25 0 0 0 25 25 25 25 0 0 0 25-25v-50a25 25 0 0 0-25-25 25 25 0 0 0-25 25zm350 0v50a25 25 0 0 0 25 25 25 25 0 0 0 25-25v-50a25 25 0 0 0-25-25 25 25 0 0 0-25 25zM300 225a25 25 0 0 0-14.5 4.5l-100 70.5a25 25 0 0 0-6 34.75 25 25 0 0 0 35 6L300 281l85 64a25 25 0 0 0 30-40l-100-75a25 25 0 0 0-15-5zm0 50a25 25 0 0 0-25 25v200a25 25 0 0 0 50 0V300a25 25 0 0 0-25-25z"/><glyph glyph-name="download-outline" unicode="" horiz-adv-x="600" d="M125 150h350a25 25 0 0 0 25-25 25 25 0 0 0-25-25H125a25 25 0 0 0-25 25 25 25 0 0 0 25 25zm-25-25v50a25 25 0 0 0 25 25 25 25 0 0 0 25-25v-50a25 25 0 0 0-25-25 25 25 0 0 0-25 25zm350 0v50a25 25 0 0 0 25 25 25 25 0 0 0 25-25v-50a25 25 0 0 0-25-25 25 25 0 0 0-25 25zM300 225a25 25 0 0 0-14.5 4.5l-100 70.5a25 25 0 0 0-6 34.75 25 25 0 0 0 35 6L300 281l85 64a25 25 0 0 0 30-40l-100-75a25 25 0 0 0-15-5zm0 50a25 25 0 0 0-25 25v200a25 25 0 0 0 50 0V300a25 25 0 0 0-25-25z"/><glyph glyph-name="droplet" unicode="" horiz-adv-x="600" d="M297.52 76.86a183.471 183.471 0 0 0-130.908 56.528 191.653 191.653 0 0 0 2.479 267.025l115.041 115.29a23.306 23.306 0 0 0 17.604 7.437 24.793 24.793 0 0 0 17.603-7.685L432.397 398.43a191.653 191.653 0 0 0-2.232-267.025A181.736 181.736 0 0 0 297.521 76.86z"/><glyph glyph-name="droplet-off" unicode="" horiz-adv-x="600" d="M475 196.5A193.25 193.25 0 0 1 433.5 400l-114 117.25a25 25 0 0 1-17.75 7.75 25 25 0 0 1-18-7.5L218.5 452zm-325 183A193.25 193.25 0 0 1 166 132a186 186 0 0 1 132-57 183.5 183.5 0 0 1 116 40zm367.75-261.75-400 400a25 25 0 0 1-35.5-35.5l400-400a25 25 0 0 1 35.5 0 25 25 0 0 1 0 35.5z"/><glyph glyph-name="droplet-off-outline" unicode="" horiz-adv-x="600" d="M300 125a135 135 0 0 0-97 41 143.25 143.25 0 0 0-17.25 177.75L150 379.5A193.5 193.5 0 0 1 167.5 131 184.25 184.25 0 0 1 300 75a184 184 0 0 1 114.5 39.75L378.75 150A135.75 135.75 0 0 0 300 125zm0 339.25 97-100a142.75 142.75 0 0 0 37.25-128.75L475 196.25A193 193 0 0 1 432.75 400l-115 117.5A25 25 0 0 1 300 525a25 25 0 0 1-18-7.5l-63.75-65 35.5-35.5zm217.75-346.5-400 400a25 25 0 0 1-35.5-35.5l400-400a25 25 0 0 1 35.5 0 25 25 0 0 1 0 35.5z"/><glyph glyph-name="droplet-outline" unicode="" horiz-adv-x="600" d="M297.52 76.86a183.471 183.471 0 0 0-130.908 56.528 191.653 191.653 0 0 0 2.479 267.025l115.041 115.29a23.306 23.306 0 0 0 17.604 7.437 24.793 24.793 0 0 0 17.603-7.685L432.397 398.43a191.653 191.653 0 0 0-2.232-267.025A181.736 181.736 0 0 0 297.521 76.86zm3.224 386.033-96.446-97.19a142.314 142.314 0 0 1-1.736-198.348 134.628 134.628 0 0 1 94.959-40.909 134.38 134.38 0 0 1 96.694 39.918 141.818 141.818 0 0 1 1.487 198.347z"/><glyph glyph-name="edit" unicode="" horiz-adv-x="600" d="M485 416.5 416.5 485a50 50 0 0 1-66.5 1.75l-225-225a50 50 0 0 1-14.25-30.25L100 127.25a25 25 0 0 1 7.25-20A25 25 0 0 1 125 100h2.25l104.25 9.5a50 50 0 0 1 30.25 14.25l225 225A48 48 0 0 1 485 416.5zM400 333l-67 67 48.75 50L450 381.75z"/><glyph glyph-name="edit-2" unicode="" horiz-adv-x="600" d="M475 100H125a25 25 0 0 1 0-50h350a25 25 0 0 1 0 50zm-350 50h2.25l104.25 9.5a50 50 0 0 1 30.25 14.25l225 225A48 48 0 0 1 485 466.5L416.5 535a50 50 0 0 1-66.5 1.75l-225-225a50 50 0 0 1-14.25-30.25L100 177.25a25 25 0 0 1 7.25-20A25 25 0 0 1 125 150zm256.75 350L450 431.75 400 383l-67 67z"/><glyph glyph-name="edit-2-outline" unicode="" horiz-adv-x="600" d="M475 100H125a25 25 0 0 1 0-50h350a25 25 0 0 1 0 50zm-350 50h2.25l104.25 9.5a50 50 0 0 1 30.25 14.25l225 225A48 48 0 0 1 485 466.5L416.5 535a50 50 0 0 1-66.5 1.75l-225-225a50 50 0 0 1-14.25-30.25L100 177.25a25 25 0 0 1 7.25-20A25 25 0 0 1 125 150zm256.75 350L450 431.75 400 383l-67 67zm-222.5-222.75L300 417l67.5-67.5-140-140-75-7z"/><glyph glyph-name="edit-outline" unicode="" horiz-adv-x="600" d="M485 416.5 416.5 485a50 50 0 0 1-66.5 1.75l-225-225a50 50 0 0 1-14.25-30.25L100 127.25a25 25 0 0 1 7.25-20A25 25 0 0 1 125 100h2.25l104.25 9.5a50 50 0 0 1 30.25 14.25l225 225A48 48 0 0 1 485 416.5zm-258-257-75-7 6.75 75L300 367l67.5-67.5zM400 333l-67 67 48.75 50L450 381.75z"/><glyph glyph-name="email" unicode="" horiz-adv-x="600" d="M475 500H125a75 75 0 0 1-75-75V175a75 75 0 0 1 75-75h350a75 75 0 0 1 75 75v250a75 75 0 0 1-75 75zm0-50L312.5 338.25a25 25 0 0 0-25 0L125 450z"/><glyph glyph-name="email-outline" unicode="" horiz-adv-x="600" d="M475 500H125a75 75 0 0 1-75-75V175a75 75 0 0 1 75-75h350a75 75 0 0 1 75 75v250a75 75 0 0 1-75 75zm-16.75-50L300 331.25 141.75 450zM475 150H125a25 25 0 0 0-25 25v243.75L285 280a25 25 0 0 1 15-5 25 25 0 0 1 15 5l185 138.75V175a25 25 0 0 0-25-25z"/><glyph glyph-name="expand" unicode="" horiz-adv-x="600" d="M500 475a25 25 0 0 1-25 25H350a25 25 0 0 1 0-50h64.25l-82-82.25a25 25 0 0 1 0-35.5 25 25 0 0 1 35.5 0L450 414.5V350a25 25 0 0 1 25-25 25 25 0 0 1 25 25zM267.75 267.75a25 25 0 0 1-35.5 0l-82.25-82V250a25 25 0 0 1-25 25 25 25 0 0 1-25-25V125a25 25 0 0 1 25-25h125a25 25 0 0 1 0 50h-64.5l82.25 82.25a25 25 0 0 1 0 35.5z"/><glyph glyph-name="expand-outline" unicode="" horiz-adv-x="600" d="M500 475a25 25 0 0 1-25 25H350a25 25 0 0 1 0-50h64.25l-82-82.25a25 25 0 0 1 0-35.5 25 25 0 0 1 35.5 0L450 414.5V350a25 25 0 0 1 25-25 25 25 0 0 1 25 25zM267.75 267.75a25 25 0 0 1-35.5 0l-82.25-82V250a25 25 0 0 1-25 25 25 25 0 0 1-25-25V125a25 25 0 0 1 25-25h125a25 25 0 0 1 0 50h-64.5l82.25 82.25a25 25 0 0 1 0 35.5z"/><glyph glyph-name="external-link" unicode="" horiz-adv-x="600" d="M500 325a25 25 0 0 1-25-25V150a25 25 0 0 0-25-25H150a25 25 0 0 0-25 25v300a25 25 0 0 0 25 25h150a25 25 0 0 1 0 50H150a75 75 0 0 1-75-75V150a75 75 0 0 1 75-75h300a75 75 0 0 1 75 75v150a25 25 0 0 1-25 25zM400 475h39.5L282.25 318a25 25 0 0 1 0-35.5 25 25 0 0 1 35.5 0L475 439.5V400a25 25 0 0 1 25-25 25 25 0 0 1 25 25v100a25 25 0 0 1-25 25H400a25 25 0 0 1 0-50z"/><glyph glyph-name="external-link-outline" unicode="" horiz-adv-x="600" d="M500 325a25 25 0 0 1-25-25V150a25 25 0 0 0-25-25H150a25 25 0 0 0-25 25v300a25 25 0 0 0 25 25h150a25 25 0 0 1 0 50H150a75 75 0 0 1-75-75V150a75 75 0 0 1 75-75h300a75 75 0 0 1 75 75v150a25 25 0 0 1-25 25zM400 475h39.5L282.25 318a25 25 0 0 1 0-35.5 25 25 0 0 1 35.5 0L475 439.5V400a25 25 0 0 1 25-25 25 25 0 0 1 25 25v100a25 25 0 0 1-25 25H400a25 25 0 0 1 0-50z"/><glyph glyph-name="eye" unicode="" horiz-adv-x="600" d="M262.5 300a37.5 37.5 0 0 1 75 0 37.5 37.5 0 0 1-75 0m284.25 12.5c-16 27.75-104 167-253.5 162.5C155 471.5 75 350 53.25 312.5a25 25 0 0 1 0-25C69 260.25 153.25 125 300.5 125h6.25c138.25 3.5 218.5 125 240 162.5a25 25 0 0 1 0 25zM300 212.5a87.5 87.5 0 1 0 87.5 87.5 87.5 87.5 0 0 0-87.5-87.5z"/><glyph glyph-name="eye-off" unicode="" horiz-adv-x="600" d="M262.5 300a37.5 37.5 0 0 1 75 0 37.5 37.5 0 0 1-75 0m119.75-153L350 180.5l-1.75 1.75L316.5 214a101.75 101.75 0 0 0-15.25-1.5A87.5 87.5 0 0 0 212.5 300a101.75 101.75 0 0 0 1.5 15.25l-50 50-39 38a397.25 397.25 0 0 1-71.75-90.75 25 25 0 0 1 0-25C69 260.25 153.25 125 300.5 125h6.25a237 237 0 0 1 80.75 16.75zm-167.5 309 70-70a101.75 101.75 0 0 0 15.25 1.5 87.5 87.5 0 0 0 87.5-87.5 101.75 101.75 0 0 0-1.5-15.25l67-67 21-21a397.25 397.25 0 0 1 72.75 90.75 25 25 0 0 1 0 25c-16 27.75-104 167-253.5 162.5a237 237 0 0 1-80.75-16.75zm303-338.25L485.25 150l-50 50-238 238.25L160.5 475l-42.75 42.75a25 25 0 0 1-35.5-35.5l56-57.25L182 382.5 364.75 200l1.75-1.75 33.5-33.5L414.75 150l67.5-67.75a25 25 0 0 1 35.5 0 25 25 0 0 1 0 35.5z"/><glyph glyph-name="eye-off-2" unicode="" horiz-adv-x="600" d="M445.25 265.25A223.25 223.25 0 0 1 525 409.5a25 25 0 1 1-50 6 176.75 176.75 0 0 0-350 0 25 25 0 1 1-50-6 223.25 223.25 0 0 1 79.5-144.25l-57.5-58A25 25 0 0 1 132.25 172l65.25 65a226.5 226.5 0 0 1 77.5-23v-89a25 25 0 0 1 50 0v89a226.5 226.5 0 0 1 77.5 23l65.25-65A25 25 0 0 1 503 207.25z"/><glyph glyph-name="eye-off-2-outline" unicode="" horiz-adv-x="600" d="M445.25 265.25A223.25 223.25 0 0 1 525 409.5a25 25 0 1 1-50 6 176.75 176.75 0 0 0-350 0 25 25 0 1 1-50-6 223.25 223.25 0 0 1 79.5-144.25l-57.5-58A25 25 0 0 1 132.25 172l65.25 65a226.5 226.5 0 0 1 77.5-23v-89a25 25 0 0 1 50 0v89a226.5 226.5 0 0 1 77.5 23l65.25-65A25 25 0 0 1 503 207.25z"/><glyph glyph-name="eye-off-outline" unicode="" horiz-adv-x="600" d="M117.75 517.75a25 25 0 0 1-35.5-35.5L223 341.5A87.5 87.5 0 0 1 341.5 223L482.25 82.25a25 25 0 0 1 35.5 0 25 25 0 0 1 0 35.5zM300 262.5a37.5 37.5 0 0 0-37.5 37.5v1.75l39-39zm5.5-87.5c-107.5-2.5-178 89.75-200 125a342.5 342.5 0 0 0 56 68L125 403.25a397.25 397.25 0 0 1-71.75-90.75 25 25 0 0 1 0-25C69 260.25 153.25 125 300.5 125h6.25a237 237 0 0 1 80.75 16.75l-39.5 39.5a193.5 193.5 0 0 0-42.5-6.25zm241.25 137.5c-16 27.75-104.25 167-253.5 162.5a237 237 0 0 1-80.75-16.75l39.5-39.5a193.5 193.5 0 0 0 42.5 6.25c107.25 2.75 177.75-89.75 200-125a342.5 342.5 0 0 0-57.25-68L475 196.75a397.25 397.25 0 0 1 72.75 90.75 25 25 0 0 1-1 25z"/><glyph glyph-name="eye-outline" unicode="" horiz-adv-x="600" d="M546.75 312.5c-16 27.75-104 167-253.5 162.5C155 471.5 75 350 53.25 312.5a25 25 0 0 1 0-25C69 260.25 153.25 125 300.5 125h6.25c138.25 3.5 218.5 125 240 162.5a25 25 0 0 1 0 25zM305.5 175c-107.75-2.5-178 89.75-200 125 25 40.25 90.25 122.5 190.25 125 107.25 2.75 177.75-89.75 200-125C470 259.75 405.5 177.5 305.5 175zM300 387.5a87.5 87.5 0 1 1 87.5-87.5 87.5 87.5 0 0 1-87.5 87.5zm0-125a37.5 37.5 0 1 0 37.5 37.5 37.5 37.5 0 0 0-37.5-37.5z"/><glyph glyph-name="facebook" unicode="" horiz-adv-x="600" d="M425 512.5a12.5 12.5 0 0 1-12.5 12.5H350a119.25 119.25 0 0 1-125-112.5V345h-62.5a12.5 12.5 0 0 1-12.5-12.5v-65a12.5 12.5 0 0 1 12.5-12.5H225V87.5A12.5 12.5 0 0 1 237.5 75h75A12.5 12.5 0 0 1 325 87.5V255h65.5a12.5 12.5 0 0 1 12.25 9.25l18 65a12.5 12.5 0 0 1-12 15.75H325v67.5a25 25 0 0 0 25 22.5h62.5a12.5 12.5 0 0 1 12.5 12.5z"/><glyph glyph-name="facebook-outline" unicode="" horiz-adv-x="600" d="M325 50H225a25 25 0 0 0-25 25v155h-50a25 25 0 0 0-25 25v90a25 25 0 0 0 25 25h50v42.5A144.25 144.25 0 0 0 350 550h75a25 25 0 0 0 25-25v-90a25 25 0 0 0-25-25h-75v-40h75a25 25 0 0 0 20-9.75 25 25 0 0 0 4-22l-25-90A25 25 0 0 0 399 230h-49V75a25 25 0 0 0-25-25zm-75 50h50v155a25 25 0 0 0 25 25h56l11 40h-67a25 25 0 0 0-25 25v67.5a50 50 0 0 0 50 47.5h50v40h-50a94.5 94.5 0 0 1-100-87.5V345a25 25 0 0 0-25-25h-50v-40h50a25 25 0 0 0 25-25z"/><glyph glyph-name="file" unicode="" horiz-adv-x="600" d="m493.5 416.75-111 125A25 25 0 0 1 364 550H164a63.25 63.25 0 0 1-64-62.5v-375A63.25 63.25 0 0 1 164 50h272a63.25 63.25 0 0 1 64 62.5V400a25 25 0 0 1-6.5 16.75zM350 500l93.5-100h-75a19.75 19.75 0 0 0-18.5 21.25z"/><glyph glyph-name="file-add" unicode="" horiz-adv-x="600" d="m493.5 416.75-111 125A25 25 0 0 1 364 550H164a63.25 63.25 0 0 1-64-62.5v-375A63.25 63.25 0 0 1 164 50h272a63.25 63.25 0 0 1 64 62.5V400a25 25 0 0 1-6.5 16.75zM350 225h-25v-25a25 25 0 0 0-50 0v25h-25a25 25 0 0 0 0 50h25v25a25 25 0 0 0 50 0v-25h25a25 25 0 0 0 0-50zm17.75 175A19.75 19.75 0 0 0 350 421.25V500l93.5-100z"/><glyph glyph-name="file-add-outline" unicode="" horiz-adv-x="600" d="m493.5 391.75-136 150A25 25 0 0 1 339 550H164a63.25 63.25 0 0 1-64-62.5v-375A63.25 63.25 0 0 1 164 50h272a63.25 63.25 0 0 1 64 62.5V375a25 25 0 0 1-6.5 16.75zM350 475l68.5-75h-50a19.75 19.75 0 0 0-18.5 21.25zm86-375H164a13.25 13.25 0 0 0-14 12.5v375a13.25 13.25 0 0 0 14 12.5h136v-78.75A69.75 69.75 0 0 1 367.75 350H450V112.5a13.25 13.25 0 0 0-14-12.5zm-86 175h-25v25a25 25 0 0 1-50 0v-25h-25a25 25 0 0 1 0-50h25v-25a25 25 0 0 1 50 0v25h25a25 25 0 0 1 0 50z"/><glyph glyph-name="file-outline" unicode="" horiz-adv-x="600" d="m493.5 391.75-136 150A25 25 0 0 1 339 550H164a63.25 63.25 0 0 1-64-62.5v-375A63.25 63.25 0 0 1 164 50h272a63.25 63.25 0 0 1 64 62.5V375a25 25 0 0 1-6.5 16.75zM441.25 375h-98.5A19.75 19.75 0 0 0 325 396.25V500h2.75zM436 100H164a13.25 13.25 0 0 0-14 12.5v375a13.25 13.25 0 0 0 14 12.5h111V396.25A69.75 69.75 0 0 1 342.75 325H450V112.5a13.25 13.25 0 0 0-14-12.5z"/><glyph glyph-name="file-remove" unicode="" horiz-adv-x="600" d="m493.5 416.75-111 125A25 25 0 0 1 364 550H164a63.25 63.25 0 0 1-64-62.5v-375A63.25 63.25 0 0 1 164 50h272a63.25 63.25 0 0 1 64 62.5V400a25 25 0 0 1-6.5 16.75zM350 225H250a25 25 0 0 0 0 50h100a25 25 0 0 0 0-50zm17.75 175A19.75 19.75 0 0 0 350 421.25V500l93.5-100z"/><glyph glyph-name="file-remove-outline" unicode="" horiz-adv-x="600" d="m493.5 391.75-136 150A25 25 0 0 1 339 550H164a63.25 63.25 0 0 1-64-62.5v-375A63.25 63.25 0 0 1 164 50h272a63.25 63.25 0 0 1 64 62.5V375a25 25 0 0 1-6.5 16.75zM350 475l68.5-75h-50a19.75 19.75 0 0 0-18.5 21.25zm86-375H164a13.25 13.25 0 0 0-14 12.5v375a13.25 13.25 0 0 0 14 12.5h136v-78.75A69.75 69.75 0 0 1 367.75 350H450V112.5a13.25 13.25 0 0 0-14-12.5zm-86 175H250a25 25 0 0 1 0-50h100a25 25 0 0 1 0 50z"/><glyph glyph-name="file-text" unicode="" horiz-adv-x="600" d="m493.5 416.75-111 125A25 25 0 0 1 364 550H164a63.25 63.25 0 0 1-64-62.5v-375A63.25 63.25 0 0 1 164 50h272a63.25 63.25 0 0 1 64 62.5V400a25 25 0 0 1-6.5 16.75zM225 300h75a25 25 0 0 0 0-50h-75a25 25 0 0 0 0 50zm150-150H225a25 25 0 0 0 0 50h150a25 25 0 0 0 0-50zm-7.25 250A19.75 19.75 0 0 0 350 421.25V500l93.5-100z"/><glyph glyph-name="file-text-outline" unicode="" horiz-adv-x="600" d="M375 200H225a25 25 0 0 1 0-50h150a25 25 0 0 1 0 50zm-150 50h75a25 25 0 0 1 0 50h-75a25 25 0 0 1 0-50zm268.5 141.75-136 150A25 25 0 0 1 339 550H164a63.25 63.25 0 0 1-64-62.5v-375A63.25 63.25 0 0 1 164 50h272a63.25 63.25 0 0 1 64 62.5V375a25 25 0 0 1-6.5 16.75zM350 475l68.5-75h-50a19.75 19.75 0 0 0-18.5 21.25zm86-375H164a13.25 13.25 0 0 0-14 12.5v375a13.25 13.25 0 0 0 14 12.5h136v-78.75A69.75 69.75 0 0 1 367.75 350H450V112.5a13.25 13.25 0 0 0-14-12.5z"/><glyph glyph-name="film" unicode="" horiz-adv-x="600" d="M456.5 525h-313A68.5 68.5 0 0 1 75 456.5v-313A68.5 68.5 0 0 1 143.5 75h313a68.5 68.5 0 0 1 68.5 68.5v313a68.5 68.5 0 0 1-68.5 68.5zM175 325h-50v50h50zm-50-50h50v-50h-50zm350 50h-50v50h50zm-50-50h50v-50h-50zm50 181.5V425h-50v50h31.5a18.5 18.5 0 0 0 18.5-18.5zM143.5 475H175v-50h-50v31.5a18.5 18.5 0 0 0 18.5 18.5zM125 143.5V175h50v-50h-31.5a18.5 18.5 0 0 0-18.5 18.5zm350 0a18.5 18.5 0 0 0-18.5-18.5H425v50h50z"/><glyph glyph-name="film-outline" unicode="" horiz-adv-x="600" d="M456.5 525h-313A68.5 68.5 0 0 1 75 456.5v-313A68.5 68.5 0 0 1 143.5 75h313a68.5 68.5 0 0 1 68.5 68.5v313a68.5 68.5 0 0 1-68.5 68.5zM175 325h-50v50h50zm-50-50h50v-50h-50zm100 200h150V125H225zm250-150h-50v50h50zm-50-50h50v-50h-50zm50 181.5V425h-50v50h31.5a18.5 18.5 0 0 0 18.5-18.5zM143.5 475H175v-50h-50v31.5a18.5 18.5 0 0 0 18.5 18.5zM125 143.5V175h50v-50h-31.5a18.5 18.5 0 0 0-18.5 18.5zm350 0a18.5 18.5 0 0 0-18.5-18.5H425v50h50z"/><glyph glyph-name="flag" unicode="" horiz-adv-x="600" d="M481.75 483a44.75 44.75 0 0 1-40 6.25 188.25 188.25 0 0 0-54.25-7 213.5 213.5 0 0 0-78.25 19.5A253.75 253.75 0 0 1 212.5 525c-72.25 0-100-25-105-28.5a25 25 0 0 1-7.5-18V100a25 25 0 0 1 50 0v107.5a157 157 0 0 0 62.5 10.25 213.5 213.5 0 0 0 78.25-19.5A253.75 253.75 0 0 1 387.5 175a191.5 191.5 0 0 1 87.5 17.5 43.5 43.5 0 0 1 25 38.75v216A44.25 44.25 0 0 1 481.75 483z"/><glyph glyph-name="flag-outline" unicode="" horiz-adv-x="600" d="M481.75 483a44.75 44.75 0 0 1-40 6.25 188.25 188.25 0 0 0-54.25-7 213.5 213.5 0 0 0-78.25 19.5A253.75 253.75 0 0 1 212.5 525c-72.25 0-100-25-105-28.5a25 25 0 0 1-7.5-18V100a25 25 0 0 1 50 0v107.5a157 157 0 0 0 62.5 10.25 213.5 213.5 0 0 0 78.25-19.5A253.75 253.75 0 0 1 387.5 175a191.5 191.5 0 0 1 87.5 17.5 43.5 43.5 0 0 1 25 38.75v216A44.25 44.25 0 0 1 481.75 483zM450 235.25A158 158 0 0 0 387.5 225a209 209 0 0 0-78.25 19.75 258.5 258.5 0 0 1-96.75 23 237.75 237.75 0 0 1-62.5-7.25v204a153.25 153.25 0 0 0 62.5 10.5 209 209 0 0 0 78.25-19.75 258.5 258.5 0 0 1 96.75-23 235.25 235.25 0 0 1 62.5 7.5z"/><glyph glyph-name="flash" unicode="" horiz-adv-x="600" d="M277.75 25a25 25 0 0 0-8.5 1.5A25 25 0 0 0 253 52.75L272.25 230H125a25 25 0 0 0-20.75 39L301.5 564a25 25 0 0 0 29.25 9.5 25 25 0 0 0 16.25-25L327.75 370H475a25 25 0 0 0 20.75-39L298.5 36a25 25 0 0 0-20.75-11z"/><glyph glyph-name="flash-off" unicode="" horiz-adv-x="600" d="m433.25 237.5 62.5 93.5A25 25 0 0 1 475 370H327.75L347 547.25a25 25 0 0 1-16.25 25 25 25 0 0 1-29.25-9.5l-78-115.5zm-266.5 125-62.5-93.5A25 25 0 0 1 125 230h147.25L253 52.75a25 25 0 0 1 16.25-26.25 25 25 0 0 1 8.5-1.5 25 25 0 0 1 20.75 11l78 116.75zm351-244.75-400 400a25 25 0 0 1-35.5-35.5l400-400a25 25 0 0 1 35.5 0 25 25 0 0 1 0 35.5z"/><glyph glyph-name="flash-off-outline" unicode="" horiz-adv-x="600" d="m517.75 117.75-400 400a25 25 0 0 1-35.5-35.5l400-400a25 25 0 0 1 35.5 0 25 25 0 0 1 0 35.5zM313.5 148.5l6.75 60.5L250 280h-78.25l31 46.5-36 36-62.5-93.5A25 25 0 0 1 125 230h147.25L253 52.75a25 25 0 0 1 16.25-26.25 25 25 0 0 1 8.5-1.5 25 25 0 0 1 20.75 11l78 116.75-36 36zm-27 303-6.75-60.5L350 320h77.5l-31-46.5 36-36L495 331a25 25 0 0 1-20 39H327.75L347 547.25a25 25 0 0 1-16.25 25 25 25 0 0 1-29.25-9.5l-78-115.5 36-36z"/><glyph glyph-name="flash-outline" unicode="" horiz-adv-x="600" d="M277.75 25a25 25 0 0 0-8.5 1.5A25 25 0 0 0 253 52.75L272.25 230H125a25 25 0 0 0-20.75 39L301.5 564a25 25 0 0 0 29.25 9.5 25 25 0 0 0 16.25-25L327.75 370H475a25 25 0 0 0 20.75-39L298.5 36a25 25 0 0 0-20.75-11zm-106 255H300a25 25 0 0 0 18.5-8.25 25 25 0 0 0 6.25-19.5L313.5 148.5 428.25 320H300a25 25 0 0 0-25 27.75l11.25 103.75z"/><glyph glyph-name="flip" unicode="" horiz-adv-x="600" d="M125 447.75v-300l-32.25 32.5a25 25 0 0 1-35.5-35.5l75-75a25 25 0 0 1 35.5 0l75 75a25 25 0 0 1 0 35.5 25 25 0 0 1-35.5 0L175 147.75v300a39 39 0 0 0 38.25 39.75H275a25 25 0 0 1 0 50h-61.75A89 89 0 0 1 125 447.75zm232.25 7.5a25 25 0 0 1 35.5-35.5l32.25 32.5v-300a39 39 0 0 0-38.25-39.75H325a25 25 0 0 1 0-50h61.75A89 89 0 0 1 475 152.25v300l32.25-32.5a25 25 0 0 1 35.5 0 25 25 0 0 1 0 35.5l-75 75a25 25 0 0 1-35.5 0z"/><glyph glyph-name="flip-2" unicode="" horiz-adv-x="600" d="M152.25 125h300l-32.5-32.25a25 25 0 0 1 35.5-35.5l75 75a25 25 0 0 1 0 35.5l-75 75a25 25 0 0 1-35.5 0 25 25 0 0 1 0-35.5l32.5-32.25h-300a39 39 0 0 0-39.75 38.25V275a25 25 0 0 1-50 0v-61.75A89 89 0 0 1 152.25 125zm-7.5 232.25a25 25 0 1 1 35.5 35.5L147.75 425h300a39 39 0 0 0 39.75-38.25V325a25 25 0 0 1 50 0v61.75A89 89 0 0 1 447.75 475h-300l32.5 32.25a25 25 0 0 1 0 35.5 25 25 0 0 1-35.5 0l-75-75a25 25 0 0 1 0-35.5z"/><glyph glyph-name="flip-2-outline" unicode="" horiz-adv-x="600" d="M152.25 125h300l-32.5-32.25a25 25 0 0 1 35.5-35.5l75 75a25 25 0 0 1 0 35.5l-75 75a25 25 0 0 1-35.5 0 25 25 0 0 1 0-35.5l32.5-32.25h-300a39 39 0 0 0-39.75 38.25V275a25 25 0 0 1-50 0v-61.75A89 89 0 0 1 152.25 125zm-7.5 232.25a25 25 0 1 1 35.5 35.5L147.75 425h300a39 39 0 0 0 39.75-38.25V325a25 25 0 0 1 50 0v61.75A89 89 0 0 1 447.75 475h-300l32.5 32.25a25 25 0 0 1 0 35.5 25 25 0 0 1-35.5 0l-75-75a25 25 0 0 1 0-35.5z"/><glyph glyph-name="flip-outline" unicode="" horiz-adv-x="600" d="M125 447.75v-300l-32.25 32.5a25 25 0 0 1-35.5-35.5l75-75a25 25 0 0 1 35.5 0l75 75a25 25 0 0 1 0 35.5 25 25 0 0 1-35.5 0L175 147.75v300a39 39 0 0 0 38.25 39.75H275a25 25 0 0 1 0 50h-61.75A89 89 0 0 1 125 447.75zm232.25 7.5a25 25 0 0 1 35.5-35.5l32.25 32.5v-300a39 39 0 0 0-38.25-39.75H325a25 25 0 0 1 0-50h61.75A89 89 0 0 1 475 152.25v300l32.25-32.5a25 25 0 0 1 35.5 0 25 25 0 0 1 0 35.5l-75 75a25 25 0 0 1-35.5 0z"/><glyph glyph-name="folder" unicode="" horiz-adv-x="600" d="M487.5 87.5h-375A61.75 61.75 0 0 0 50 148.25v303.5a61.75 61.75 0 0 0 62.5 60.75h115a25 25 0 0 0 19.25-9.25l65-79.5h175A61.75 61.75 0 0 0 550 363V148.25a61.75 61.75 0 0 0-62.5-60.75z"/><glyph glyph-name="folder-add" unicode="" horiz-adv-x="600" d="M487.5 423.75h-175l-65.75 79.5a25 25 0 0 1-19.25 9.25h-115A61.75 61.75 0 0 1 50 451.75v-303.5a61.75 61.75 0 0 1 62.5-60.75h375a61.75 61.75 0 0 1 62.5 60.75V363a61.75 61.75 0 0 1-62.5 60.75zM350 225h-25v-25a25 25 0 0 0-50 0v25h-25a25 25 0 0 0 0 50h25v25a25 25 0 0 0 50 0v-25h25a25 25 0 0 0 0-50z"/><glyph glyph-name="folder-add-outline" unicode="" horiz-adv-x="600" d="M350 275h-25v25a25 25 0 0 1-50 0v-25h-25a25 25 0 0 1 0-50h25v-25a25 25 0 0 1 50 0v25h25a25 25 0 0 1 0 50zm137.5 148.75h-175l-65.75 79.5a25 25 0 0 1-19.25 9.25h-115A61.75 61.75 0 0 1 50 451.75v-303.5a61.75 61.75 0 0 1 62.5-60.75h375a61.75 61.75 0 0 1 62.5 60.75V363a61.75 61.75 0 0 1-62.5 60.75zm12.5-275A11.5 11.5 0 0 0 487.5 138h-375a11.5 11.5 0 0 0-12.5 10.75v303a11.5 11.5 0 0 0 12.5 10.75h103.25l65-79.5a25 25 0 0 1 19.25-9.25h187.5A11.5 11.5 0 0 0 500 363z"/><glyph glyph-name="folder-outline" unicode="" horiz-adv-x="600" d="M487.5 87.5h-375A61.75 61.75 0 0 0 50 148.25v303.5a61.75 61.75 0 0 0 62.5 60.75h115a25 25 0 0 0 19.25-9.25l65-79.5h175A61.75 61.75 0 0 0 550 363V148.25a61.75 61.75 0 0 0-62.5-60.75zM100 256V148.25a11.5 11.5 0 0 1 12.5-10.75h375a11.5 11.5 0 0 1 12.5 10.75V363a11.5 11.5 0 0 1-12.5 10.75H300a25 25 0 0 0-19.25 9.25l-65 79.5H112.5a11.5 11.5 0 0 1-12.5-10.75z"/><glyph glyph-name="folder-remove" unicode="" horiz-adv-x="600" d="M487.5 423.75h-175l-65.75 79.5a25 25 0 0 1-19.25 9.25h-115A61.75 61.75 0 0 1 50 451.75v-303.5a61.75 61.75 0 0 1 62.5-60.75h375a61.75 61.75 0 0 1 62.5 60.75V363a61.75 61.75 0 0 1-62.5 60.75zM350 225H250a25 25 0 0 0 0 50h100a25 25 0 0 0 0-50z"/><glyph glyph-name="folder-remove-outline" unicode="" horiz-adv-x="600" d="M350 275H250a25 25 0 0 1 0-50h100a25 25 0 0 1 0 50zm137.5 148.75h-175l-65.75 79.5a25 25 0 0 1-19.25 9.25h-115A61.75 61.75 0 0 1 50 451.75v-303.5a61.75 61.75 0 0 1 62.5-60.75h375a61.75 61.75 0 0 1 62.5 60.75V363a61.75 61.75 0 0 1-62.5 60.75zm12.5-275A11.5 11.5 0 0 0 487.5 138h-375a11.5 11.5 0 0 0-12.5 10.75v303a11.5 11.5 0 0 0 12.5 10.75h103.25l65-79.5a25 25 0 0 1 19.25-9.25h187.5A11.5 11.5 0 0 0 500 363z"/><glyph glyph-name="funnel" unicode="" horiz-adv-x="600" d="M347.5 50a25 25 0 0 0-15 5l-100 76.25a25 25 0 0 0-9.75 20V233l-120 230.5A25 25 0 0 0 125 500h350a25 25 0 0 0 21.5-12.25 25 25 0 0 0 0-25l-125-230.25V75a25 25 0 0 0-13.75-22.5A25 25 0 0 0 347.5 50z"/><glyph glyph-name="funnel-outline" unicode="" horiz-adv-x="600" d="M347.5 50a25 25 0 0 0-15 5l-100 76.25a25 25 0 0 0-9.75 20V233l-120 230.5A25 25 0 0 0 125 500h350a25 25 0 0 0 21.5-12.25 25 25 0 0 0 0-25l-125-230.25V75a25 25 0 0 0-13.75-22.5A25 25 0 0 0 347.5 50zm-75 113.5 50-38.25V239a25 25 0 0 0 2.5 11l107.5 200H166l103.25-200a25 25 0 0 0 2.75-11.5z"/><glyph glyph-name="gift" unicode="" horiz-adv-x="600" d="M116 218.25V97.75A23 23 0 0 1 139 75h140.5v143.25zM320.5 75H461a23 23 0 0 1 23 22.75v120.5H320.5zm182 347.75h-46a70.5 70.5 0 0 1 7.25 30.75A71.75 71.75 0 0 1 392 525a105.25 105.25 0 0 1-92-64.25A105.25 105.25 0 0 1 208 525a71.75 71.75 0 0 1-71.75-71.5 70.5 70.5 0 0 1 7.25-30.75h-46C85 422.75 75 408 75 390v-98.25c0-18 10-32.75 22.5-32.75h182v163.75h41V259h182c12.5 0 22.5 14.75 22.5 32.75V390c0 18-10 32.75-22.5 32.75zm-294.5 0a30.75 30.75 0 1 0 0 61.25c35 0 54.75-36 64.5-61.25zm184 0h-64.5c9.75 25 29.5 61.25 64.5 61.25a30.75 30.75 0 1 0 0-61.25z"/><glyph glyph-name="gift-outline" unicode="" horiz-adv-x="600" d="M480 425h-9.75a75 75 0 0 1 4.75 25 77 77 0 0 1-78.5 75 111.5 111.5 0 0 1-96.5-60 111.5 111.5 0 0 1-96.5 60 77 77 0 0 1-78.5-75 75 75 0 0 1 4.75-25H120a50 50 0 0 1-45-55v-90a52 52 0 0 1 37.5-55V115.75A43.75 43.75 0 0 1 157.75 75h284.5a43.75 43.75 0 0 1 45.25 41.75V225a52 52 0 0 1 37.5 55v90a50 50 0 0 1-45 55zm-5-55v-90a14 14 0 0 0 0-5H325v100h150a14 14 0 0 0 0-5zm-78.5 105a27 27 0 0 0 28.5-25 27 27 0 0 0-28.5-25H335a73.25 73.25 0 0 0 61.5 50zM175 450a27 27 0 0 0 28.5 25 73.25 73.25 0 0 0 61.25-50H203.5a27 27 0 0 0-28.5 25zm-50-80a14 14 0 0 0 0 5h150V275H125a14 14 0 0 0 0 5zm37.5-145H275V125H162.5zM325 125v100h112.5V125z"/><glyph glyph-name="github" unicode="" horiz-adv-x="600" d="M300 575A272.25 272.25 0 0 1 25 305.75 269.75 269.75 0 0 1 213 50c13.75-2.5 18.75 5.75 18.75 13v45.75c-76.5-16.25-92.75 36-92.75 36a71.5 71.5 0 0 1-30.5 39.5c-25 16.5 2 16.25 2 16.25a57.75 57.75 0 0 0 42-27.75 59.25 59.25 0 0 1 80-22.25 58.25 58.25 0 0 0 17.5 36c-61 6.75-125 29.75-125 133a103.75 103.75 0 0 0 27.75 72.75 94.5 94.5 0 0 0 2.75 71s23.25 7.25 75-27.5a267 267 0 0 0 137.5 0c52.5 34.75 75 27.5 75 27.5a94.5 94.5 0 0 0 2.75-71A103.75 103.75 0 0 0 475 320c0-103.5-64.5-126.25-125-133a62.5 62.5 0 0 0 18.75-50V63.25c0-8.75 5-15.75 18.75-13A270 270 0 0 1 575 305.75 272.25 272.25 0 0 1 300 575"/><glyph glyph-name="github-outline" unicode="" horiz-adv-x="600" d="M406 50a25 25 0 0 0-25 25v65a53.75 53.75 0 0 1-13.5 41.5 25 25 0 0 0 15.25 41.75C443.75 230.5 500 250 500 355.75a100 100 0 0 1-16.75 55.5 68.75 68.75 0 0 0-10.25 51.5 92.75 92.75 0 0 1 0 35.25 191.25 191.25 0 0 1-52.25-27.25 25 25 0 0 0-21-3.75 253.75 253.75 0 0 1-138 0 25 25 0 0 0-21 3.75A185 185 0 0 1 188 498a88 88 0 0 1 0-35.25 71 71 0 0 0-10.75-52A101.75 101.75 0 0 1 160.5 355c0-97.25 47-123.25 117.5-132.25a25 25 0 0 0 20.5-16.5 25 25 0 0 0-5.25-25 51.5 51.5 0 0 1-13.75-39V75a25 25 0 0 0-50 0v14.25A150 150 0 0 0 97.75 141.5a97.5 97.5 0 0 1-29 22 25 25 0 1 0 12.5 48.5 123.25 123.25 0 0 0 50-34c25-25 50-47 97.5-38a97.25 97.25 0 0 0 5.75 39.5c-51.5 13-125 50-125 175a150 150 0 0 0 25 83.25 21.25 21.25 0 0 1 3.25 15.5A142.25 142.25 0 0 0 146 533.5a25 25 0 0 0 15.75 14.25c8.5 2.5 39 7.5 96.75-30a304 304 0 0 0 142.25 0c57.75 37.5 88.25 32.75 96.5 30A25 25 0 0 0 513 533.5a142.75 142.75 0 0 0 8.25-80.5 18.75 18.75 0 0 1 2.75-14.25 150 150 0 0 0 25-83.5c0-126.75-73-163.5-125-175a107 107 0 0 0 5.5-41.75V75A25 25 0 0 0 406 50z"/><glyph glyph-name="globe" unicode="" horiz-adv-x="600" d="M550 300a250 250 0 0 1-250 250 250 250 0 0 1 0-500 250 250 0 0 1 250 250zm-51.75 25H425a322.75 322.75 0 0 1-58.25 163.5A200 200 0 0 0 498.25 325zM227 275h148a286 286 0 0 0-75-165.25A275 275 0 0 0 227 275zm0 50a285 285 0 0 0 73 165 279.75 279.75 0 0 0 75-165zm9 164.25A329.5 329.5 0 0 1 176.75 325h-75A200 200 0 0 0 236 489.25zM101.75 275h75a321.5 321.5 0 0 1 58.75-164 200 200 0 0 0-133.75 164zM365.5 111.25A328.5 328.5 0 0 1 425 275h73.75A200 200 0 0 0 365.5 111.25z"/><glyph glyph-name="globe-2" unicode="" horiz-adv-x="600" d="M300 550a250 250 0 1 1 250-250 250 250 0 0 1-250 250zm0-50a204.75 204.75 0 0 0 44.75-5.25 65.25 65.25 0 0 0-19.5-25c-5.5-4.25-11.5-7.75-17.5-11.5a114 114 0 0 1-46.25-41.75A162.25 162.25 0 0 1 246 334c0-34 0-54-23.75-71.75-34.25-26.75-86.5-11.75-119 1.75a208.25 208.25 0 0 0-3.25 36 200 200 0 0 0 200 200zm122.25-358a169.75 169.75 0 0 1-15.75 28.5c-2.75 4-5.5 8-8 12.25-9.75 17-6.25 25 9.5 50l2.5 4.25a119.25 119.25 0 0 1 14.5 60.75 135.5 135.5 0 0 0 2.25 25c4 18.25 42.75 23.25 66.75 25a198.5 198.5 0 0 0-71.5-207z"/><glyph glyph-name="globe-2-outline" unicode="" horiz-adv-x="600" d="M300 550a250 250 0 1 1 250-250 250 250 0 0 1-250 250zm0-50a204.75 204.75 0 0 0 44.75-5.25 65.25 65.25 0 0 0-19.5-25c-5.5-4.25-11.5-7.75-17.5-11.5a114 114 0 0 1-46.25-41.75A162.25 162.25 0 0 1 246 334c0-34 0-54-23.75-71.75-34.25-26.75-86.5-11.75-119 1.75a208.25 208.25 0 0 0-3.25 36 200 200 0 0 0 200 200zM125 205a210.5 210.5 0 0 1 50-6.75 125 125 0 0 1 78.5 25c42.75 33.5 42.75 76.5 42.75 111a119 119 0 0 0 9.25 58.5 71.5 71.5 0 0 0 28 22.75 243.75 243.75 0 0 1 23 15.25 113.75 113.75 0 0 1 35 46.75A200 200 0 0 0 475 397c-35.75-5-86.5-16.75-96.5-63.25A175 175 0 0 1 375 300a73.25 73.25 0 0 0-7.25-36.75l-2.5-4.25c-16.25-27-34.5-57.75-9.75-100 3-5.25 6.25-10.25 9.5-15.25a57.25 57.25 0 0 0 13-27A197.25 197.25 0 0 0 300 100a200 200 0 0 0-175 105zm298.25-63a169.75 169.75 0 0 1-15.75 28.5c-2.75 4-5.5 8-8 12.25-9.75 17-6.25 25 9.5 50l2.5 4.25a119.25 119.25 0 0 1 13.5 60.75 135.5 135.5 0 0 0 2.25 25c4 18.25 42.75 23.25 66.75 25a198.5 198.5 0 0 0-71.5-207z"/><glyph glyph-name="globe-3" unicode="" horiz-adv-x="600" d="M300 550a250 250 0 1 1 250-250 250 250 0 0 1-250 250zM125 205a210.5 210.5 0 0 1 50-6.75 125 125 0 0 1 78.5 25c42.75 33.5 42.75 76.5 42.75 111a119 119 0 0 0 9.25 58.5 71.5 71.5 0 0 0 28 22.75 243.75 243.75 0 0 1 23 15.25 113.75 113.75 0 0 1 35 46.75A200 200 0 0 0 475 397c-35.75-5-86.5-16.75-96.5-63.25A175 175 0 0 1 375 300a73.25 73.25 0 0 0-7.25-36.75l-2.5-4.25c-16.25-27-34.5-57.75-9.75-100 3-5.25 6.25-10.25 9.5-15.25a57.25 57.25 0 0 0 13-27A197.25 197.25 0 0 0 300 100a200 200 0 0 0-175 105z"/><glyph glyph-name="globe-outline" unicode="" horiz-adv-x="600" d="M550 300a250 250 0 0 1-250 250 250 250 0 0 1 0-500 250 250 0 0 1 250 250zm-51.75 25H425a322.75 322.75 0 0 1-58.25 163.5A200 200 0 0 0 498.25 325zM227 275h148a286 286 0 0 0-75-165.25A275 275 0 0 0 227 275zm0 50a285 285 0 0 0 73 165 279.75 279.75 0 0 0 75-165zm9 164.25A329.5 329.5 0 0 1 176.75 325h-75A200 200 0 0 0 236 489.25zM101.75 275h75a321.5 321.5 0 0 1 58.75-164 200 200 0 0 0-133.75 164zM365.5 111.25A328.5 328.5 0 0 1 425 275h73.75A200 200 0 0 0 365.5 111.25z"/><glyph glyph-name="google" unicode="" horiz-adv-x="600" d="M437.5 250A137.75 137.75 0 0 0 325 151.75 153.75 153.75 0 0 0 150 288a150 150 0 0 0 150 162 153 153 0 0 0 56.75-11 12.5 12.5 0 0 1 16 5.25l36 66.25A13 13 0 0 1 403 528 250 250 0 0 1 50 292.75 253 253 0 0 1 289.25 50 250 250 0 0 1 550 287v50a12.75 12.75 0 0 1-12.5 12.5h-225A12.5 12.5 0 0 1 300 337v-75a12.5 12.5 0 0 1 12.5-12.5h125"/><glyph glyph-name="google-outline" unicode="" horiz-adv-x="600" d="M300 50h-10.75A254 254 0 0 0 50 292.75 250 250 0 0 0 403 528a37 37 0 0 0 19.25-21.5 36.75 36.75 0 0 0-2.5-29L387.5 418a36 36 0 0 0-45.75-16 112.5 112.5 0 0 1-122.5-27 110.25 110.25 0 0 1-29-83.5 109 109 0 0 1 41.5-75 113 113 0 0 1 86.25-25 97.25 97.25 0 0 1 65.75 39.25h-72.5a36.25 36.25 0 0 0-36.25 36v67A36.25 36.25 0 0 0 311.25 370h202.5A36.5 36.5 0 0 0 550 334v-47A250 250 0 0 0 300 50zm0 450a200 200 0 0 1-200-206 203 203 0 0 1 191.25-194A200 200 0 0 1 500 289.5V320H325v-39.5h132.75L447.5 248A150 150 0 0 0 325 141.75 164.5 164.5 0 0 0 200 175a158.25 158.25 0 0 0-18 232.5 163 163 0 0 0 168 44.75L369.25 488A197.5 197.5 0 0 1 300 500z"/><glyph glyph-name="grid" unicode="" horiz-adv-x="600" d="M225 525H125a50 50 0 0 1-50-50V375a50 50 0 0 1 50-50h100a50 50 0 0 1 50 50v100a50 50 0 0 1-50 50zm250 0H375a50 50 0 0 1-50-50V375a50 50 0 0 1 50-50h100a50 50 0 0 1 50 50v100a50 50 0 0 1-50 50zM225 275H125a50 50 0 0 1-50-50V125a50 50 0 0 1 50-50h100a50 50 0 0 1 50 50v100a50 50 0 0 1-50 50zm250 0H375a50 50 0 0 1-50-50V125a50 50 0 0 1 50-50h100a50 50 0 0 1 50 50v100a50 50 0 0 1-50 50z"/><glyph glyph-name="grid-outline" unicode="" horiz-adv-x="600" d="M225 525H125a50 50 0 0 1-50-50V375a50 50 0 0 1 50-50h100a50 50 0 0 1 50 50v100a50 50 0 0 1-50 50zM125 375v100h100V375zm350 150H375a50 50 0 0 1-50-50V375a50 50 0 0 1 50-50h100a50 50 0 0 1 50 50v100a50 50 0 0 1-50 50zM375 375v100h100V375zM225 275H125a50 50 0 0 1-50-50V125a50 50 0 0 1 50-50h100a50 50 0 0 1 50 50v100a50 50 0 0 1-50 50zM125 125v100h100V125zm350 150H375a50 50 0 0 1-50-50V125a50 50 0 0 1 50-50h100a50 50 0 0 1 50 50v100a50 50 0 0 1-50 50zM375 125v100h100V125z"/><glyph glyph-name="hard-drive" unicode="" horiz-adv-x="600" d="m519.75 316.5-83.5 167A75 75 0 0 1 369 525H231a75 75 0 0 1-67.25-41.5l-83.5-167A50 50 0 0 1 75 294V150a75 75 0 0 1 75-75h300a75 75 0 0 1 75 75v144a50 50 0 0 1-5.25 22.5zM200 175a25 25 0 1 0 25 25 25 25 0 0 0-25-25zm200 0H300a25 25 0 0 0 0 50h100a25 25 0 0 0 0-50zM140.5 325l68 136.25A25 25 0 0 0 231 475h138a25 25 0 0 0 22.5-13.75l68-136.25z"/><glyph glyph-name="hard-drive-outline" unicode="" horiz-adv-x="600" d="m519.75 316.5-83.5 167A75 75 0 0 1 369 525H231a75 75 0 0 1-67.25-41.5l-83.5-167A50 50 0 0 1 75 294V150a75 75 0 0 1 75-75h300a75 75 0 0 1 75 75v144a50 50 0 0 1-5.25 22.5zM208.5 461.25A25 25 0 0 0 231 475h138a25 25 0 0 0 22.5-13.75l68-136.25h-319zM450 125H150a25 25 0 0 0-25 25v125h350V150a25 25 0 0 0-25-25zm-50 100H300a25 25 0 0 1 0-50h100a25 25 0 0 1 0 50zm-225-25a25 25 0 0 1 50 0 25 25 0 0 1-50 0"/><glyph glyph-name="hash" unicode="" horiz-adv-x="600" d="M500 250H392.5l18.25 100H500a25 25 0 0 1 0 50h-80.25L437 495.25A25 25 0 0 1 416 525a25 25 0 0 1-30.5-20.5L366.75 400h-97L287 495.25A25 25 0 0 1 266 525a25 25 0 0 1-30.5-20.5L216.75 400H100a25 25 0 0 1 0-50h107.5l-18.25-100H100a25 25 0 0 1 0-50h80.25L163 104.75A25 25 0 0 1 184 75a25 25 0 0 1 30.5 20.5L233.25 200h97L313 104.75A25 25 0 0 1 334 75a25 25 0 0 1 30.5 20.5L383.25 200H500a25 25 0 0 1 0 50zm-257.5 0 18.25 100h96.75l-18.25-100z"/><glyph glyph-name="hash-outline" unicode="" horiz-adv-x="600" d="M500 250H392.5l18.25 100H500a25 25 0 0 1 0 50h-80.25L437 495.25A25 25 0 0 1 416 525a25 25 0 0 1-30.5-20.5L366.75 400h-97L287 495.25A25 25 0 0 1 266 525a25 25 0 0 1-30.5-20.5L216.75 400H100a25 25 0 0 1 0-50h107.5l-18.25-100H100a25 25 0 0 1 0-50h80.25L163 104.75A25 25 0 0 1 184 75a25 25 0 0 1 30.5 20.5L233.25 200h97L313 104.75A25 25 0 0 1 334 75a25 25 0 0 1 30.5 20.5L383.25 200H500a25 25 0 0 1 0 50zm-257.5 0 18.25 100h96.75l-18.25-100z"/><glyph glyph-name="headphones" unicode="" horiz-adv-x="600" d="M300 550A255 255 0 0 1 50 290.75V175a100 100 0 1 1 100 100 97.75 97.75 0 0 1-50-14v29.75A205 205 0 0 0 300 500a205 205 0 0 0 200-209.25V261a97.75 97.75 0 0 1-50 14 100 100 0 1 1 100-100v115.75A255 255 0 0 1 300 550z"/></font>
</defs>
</svg>
