<svg xmlns="http://www.w3.org/2000/svg" width="777.799" height="292.64" id="svg3861" version="1.1"><g id="layer1" transform="translate(107.143 -229.373)"><path id="path3961" style="font-size:2.76755rem;font-style:normal;font-variant:normal;font-weight:700;font-stretch:normal;line-height:125%;letter-spacing:0;word-spacing:0;fill:#000;fill-opacity:1;stroke:none;font-family:Arial;-inkscape-font-specification:Arial Bold" d="M-106.358 512.32v-32.969h22.596v5.578h-16.443v7.309h15.3v5.554h-15.3v8.973h17.025v5.555z"/><path id="path3963" style="font-size:2.76755rem;font-style:normal;font-variant:normal;font-weight:700;font-stretch:normal;line-height:125%;letter-spacing:0;word-spacing:0;fill:#000;fill-opacity:1;stroke:none;font-family:Arial;-inkscape-font-specification:Arial Bold" d="M-57.881 512.32h-5.842v-12.189c0-2.579-.124-4.247-.374-5.004-.25-.757-.655-1.345-1.216-1.765-.561-.42-1.237-.63-2.027-.63-1.011 0-1.919.3-2.723.9-.804.6-1.354 1.394-1.652 2.384-.298.99-.447 2.818-.447 5.487v10.817h-5.842v-23.883h5.426v3.508c1.926-2.698 4.351-4.048 7.276-4.048 1.288 0 2.466.251 3.533.754 1.067.502 1.875 1.143 2.422 1.922.548.78.929 1.665 1.143 2.654.215.99.323 2.406.323 4.25z"/><path id="path3965" style="font-size:2.76755rem;font-style:normal;font-variant:normal;font-weight:700;font-stretch:normal;line-height:125%;letter-spacing:0;word-spacing:0;fill:#000;fill-opacity:1;stroke:none;font-family:Arial;-inkscape-font-specification:Arial Bold" d="m-52.477 513.894 6.673.877c.111.84.367 1.417.77 1.732.554.45 1.427.675 2.619.675 1.524 0 2.667-.248 3.43-.742.512-.33.9-.862 1.164-1.597.18-.525.27-1.492.27-2.901v-3.486c-1.746 2.579-3.95 3.868-6.61 3.868-2.966 0-5.315-1.357-7.048-4.07-1.358-2.144-2.037-4.813-2.037-8.006 0-4.003.89-7.062 2.671-9.176 1.781-2.114 3.995-3.17 6.642-3.17 2.73 0 4.982 1.296 6.756 3.89v-3.351h5.467v21.432c0 2.818-.215 4.925-.644 6.32-.43 1.394-1.033 2.488-1.809 3.283-.776.794-1.812 1.416-3.108 1.866-1.295.45-2.934.675-4.916.675-3.742 0-6.395-.694-7.961-2.08-1.566-1.387-2.35-3.145-2.35-5.274 0-.21.008-.465.021-.765zm5.218-14.01c0 2.534.454 4.389 1.362 5.566.907 1.177 2.026 1.765 3.357 1.765 1.427 0 2.633-.603 3.617-1.81s1.476-2.995 1.476-5.364c0-2.474-.471-4.31-1.414-5.51-.942-1.199-2.134-1.799-3.575-1.799-1.4 0-2.554.589-3.461 1.766-.908 1.177-1.362 2.972-1.362 5.386z"/><path id="path3967" style="font-size:2.76755rem;font-style:normal;font-variant:normal;font-weight:700;font-stretch:normal;line-height:125%;letter-spacing:0;word-spacing:0;fill:#000;fill-opacity:1;stroke:none;font-family:Arial;-inkscape-font-specification:Arial Bold" d="M-25.91 512.32v-32.969h5.841v32.97z"/><path id="path3969" style="font-size:2.76755rem;font-style:normal;font-variant:normal;font-weight:700;font-stretch:normal;line-height:125%;letter-spacing:0;word-spacing:0;fill:#000;fill-opacity:1;stroke:none;font-family:Arial;-inkscape-font-specification:Arial Bold" d="M-14.103 485.198v-5.847h5.841v5.847zm0 27.122v-23.883h5.841v23.883z"/><path id="path3971" style="font-size:2.76755rem;font-style:normal;font-variant:normal;font-weight:700;font-stretch:normal;line-height:125%;letter-spacing:0;word-spacing:0;fill:#000;fill-opacity:1;stroke:none;font-family:Arial;-inkscape-font-specification:Arial Bold" d="m-4.354 505.506 5.862-.967c.25 1.23.756 2.163 1.518 2.8s1.83.956 3.201.956c1.51 0 2.647-.3 3.41-.9.512-.42.768-.982.768-1.687 0-.48-.138-.877-.415-1.192-.291-.3-.943-.577-1.954-.832-4.712-1.124-7.699-2.151-8.96-3.08-1.746-1.29-2.619-3.082-2.619-5.375 0-2.07.755-3.809 2.266-5.218 1.51-1.41 3.852-2.114 7.026-2.114 3.021 0 5.266.532 6.735 1.597 1.47 1.064 2.48 2.639 3.035 4.723l-5.509 1.101c-.235-.929-.682-1.641-1.34-2.136-.659-.495-1.598-.742-2.817-.742-1.538 0-2.64.232-3.305.697-.444.33-.665.757-.665 1.282 0 .45.194.832.582 1.147.526.42 2.345 1.012 5.456 1.776 3.111.765 5.284 1.702 6.517 2.812 1.22 1.124 1.83 2.69 1.83 4.7 0 2.189-.846 4.07-2.537 5.645-1.69 1.574-4.192 2.36-7.504 2.36-3.007 0-5.387-.659-7.14-1.978-1.753-1.32-2.9-3.111-3.44-5.375z"/><path id="path3973" style="font-size:2.76755rem;font-style:normal;font-variant:normal;font-weight:700;font-stretch:normal;line-height:125%;letter-spacing:0;word-spacing:0;fill:#000;fill-opacity:1;stroke:none;font-family:Arial;-inkscape-font-specification:Arial Bold" d="M27.222 479.351v12.122c1.885-2.384 4.137-3.576 6.756-3.576 1.345 0 2.557.27 3.638.81s1.895 1.23 2.443 2.069c.547.84.921 1.769 1.122 2.788.201 1.02.302 2.602.302 4.746v14.01H35.64v-12.616c0-2.504-.11-4.093-.332-4.768a3.101 3.101 0 0 0-1.175-1.608c-.561-.397-1.264-.596-2.11-.596-.97 0-1.836.255-2.598.765-.762.51-1.32 1.278-1.673 2.305-.354 1.027-.53 2.545-.53 4.554v11.964H21.38v-32.969z"/><path id="path3975" style="font-size:2.76755rem;font-style:normal;font-variant:normal;font-weight:700;font-stretch:normal;line-height:125%;letter-spacing:0;word-spacing:0;fill:#000;fill-opacity:1;stroke:none;font-family:Arial;-inkscape-font-specification:Arial Bold" d="M56.678 488.437h3.243v-1.8c0-2.008.198-3.507.593-4.497.394-.99 1.122-1.795 2.182-2.418 1.06-.622 2.401-.933 4.023-.933 1.663 0 3.29.27 4.885.81l-.79 4.408c-.929-.24-1.823-.36-2.682-.36-.845 0-1.452.213-1.819.64-.367.428-.55 1.249-.55 2.463v1.687h4.365v4.97h-4.366v18.913h-5.84v-18.913h-3.244z"/><path id="path3977" style="font-size:2.76755rem;font-style:normal;font-variant:normal;font-weight:700;font-stretch:normal;line-height:125%;letter-spacing:0;word-spacing:0;fill:#000;fill-opacity:1;stroke:none;font-family:Arial;-inkscape-font-specification:Arial Bold" d="M72.103 500.041c0-2.099.478-4.13 1.434-6.094.956-1.964 2.31-3.464 4.064-4.498 1.753-1.035 3.71-1.552 5.872-1.552 3.34 0 6.077 1.173 8.211 3.52 2.134 2.346 3.202 5.31 3.202 8.894 0 3.613-1.078 6.608-3.233 8.984-2.155 2.377-4.868 3.565-8.138 3.565-2.024 0-3.953-.495-5.79-1.484-1.836-.99-3.232-2.44-4.188-4.352-.956-1.912-1.434-4.24-1.434-6.983zm5.986.338c0 2.368.52 4.182 1.56 5.442 1.039 1.26 2.32 1.889 3.845 1.889 1.524 0 2.803-.63 3.835-1.89 1.033-1.259 1.549-3.088 1.549-5.486 0-2.34-.516-4.138-1.549-5.398-1.032-1.26-2.31-1.889-3.835-1.889-1.524 0-2.806.63-3.846 1.89-1.039 1.259-1.559 3.073-1.559 5.442z"/><path id="path3979" style="font-size:2.76755rem;font-style:normal;font-variant:normal;font-weight:700;font-stretch:normal;line-height:125%;letter-spacing:0;word-spacing:0;fill:#000;fill-opacity:1;stroke:none;font-family:Arial;-inkscape-font-specification:Arial Bold" d="M105.071 512.32h-5.84v-23.883h5.425v3.396c.928-1.604 1.763-2.661 2.505-3.171.74-.51 1.583-.765 2.525-.765 1.33 0 2.612.397 3.846 1.192l-1.809 5.51c-.984-.69-1.898-1.035-2.744-1.035-.817 0-1.51.244-2.078.731-.569.488-1.015 1.368-1.341 2.643-.326 1.274-.489 3.943-.489 8.006z"/><path id="path3981" style="font-size:2.76755rem;font-style:normal;font-variant:normal;font-weight:700;font-stretch:normal;line-height:125%;letter-spacing:0;word-spacing:0;fill:#000;fill-opacity:1;stroke:none;font-family:Arial;-inkscape-font-specification:Arial Bold" d="M127.688 512.32v-32.969h6.153v32.97z"/><path id="path3983" style="font-size:2.76755rem;font-style:normal;font-variant:normal;font-weight:700;font-stretch:normal;line-height:125%;letter-spacing:0;word-spacing:0;fill:#000;fill-opacity:1;stroke:none;font-family:Arial;-inkscape-font-specification:Arial Bold" d="M159.722 512.32h-5.842v-12.189c0-2.579-.124-4.247-.374-5.004-.25-.757-.655-1.345-1.216-1.765-.561-.42-1.237-.63-2.027-.63-1.011 0-1.92.3-2.723.9-.804.6-1.355 1.394-1.652 2.384-.298.99-.447 2.818-.447 5.487v10.817h-5.842v-23.883h5.426v3.508c1.926-2.698 4.351-4.048 7.275-4.048 1.29 0 2.467.251 3.534.754 1.067.502 1.875 1.143 2.422 1.922.547.78.929 1.665 1.143 2.654.215.99.323 2.406.323 4.25z"/><path id="path3985" style="font-size:2.76755rem;font-style:normal;font-variant:normal;font-weight:700;font-stretch:normal;line-height:125%;letter-spacing:0;word-spacing:0;fill:#000;fill-opacity:1;stroke:none;font-family:Arial;-inkscape-font-specification:Arial Bold" d="M175.79 488.437v5.037H171.8v9.626c0 1.949.038 3.084.114 3.407.077.322.25.588.52.798.27.21.6.315.987.315.54 0 1.324-.202 2.35-.607l.498 4.902c-1.358.63-2.896.945-4.614.945-1.054 0-2.003-.191-2.848-.574-.846-.382-1.466-.877-1.86-1.484-.396-.607-.67-1.428-.822-2.462-.125-.735-.187-2.22-.187-4.453v-10.413h-2.682v-5.037h2.682v-4.745l5.862-3.688v8.433z"/><path id="path3987" style="font-size:2.76755rem;font-style:normal;font-variant:normal;font-weight:700;font-stretch:normal;line-height:125%;letter-spacing:0;word-spacing:0;fill:#000;fill-opacity:1;stroke:none;font-family:Arial;-inkscape-font-specification:Arial Bold" d="m192.67 504.719 5.82 1.057c-.748 2.309-1.93 4.067-3.544 5.273-1.615 1.207-3.634 1.81-6.06 1.81-3.838 0-6.68-1.356-8.523-4.07-1.455-2.174-2.182-4.917-2.182-8.23 0-3.959.956-7.058 2.868-9.3 1.913-2.241 4.331-3.362 7.255-3.362 3.285 0 5.876 1.173 7.775 3.52 1.898 2.346 2.806 5.94 2.723 10.783h-14.634c.041 1.874.512 3.332 1.413 4.374.9 1.042 2.023 1.563 3.368 1.563.914 0 1.683-.27 2.307-.81.624-.54 1.095-1.409 1.414-2.608zm.332-6.387c-.041-1.83-.478-3.22-1.31-4.172-.83-.952-1.843-1.428-3.034-1.428-1.275 0-2.329.503-3.16 1.507-.832 1.005-1.24 2.369-1.226 4.093z"/><path id="path3989" style="font-size:2.76755rem;font-style:normal;font-variant:normal;font-weight:700;font-stretch:normal;line-height:125%;letter-spacing:0;word-spacing:0;fill:#000;fill-opacity:1;stroke:none;font-family:Arial;-inkscape-font-specification:Arial Bold" d="M209.175 512.32h-5.841v-23.883h5.425v3.396c.929-1.604 1.764-2.661 2.505-3.171.741-.51 1.583-.765 2.526-.765 1.33 0 2.612.397 3.845 1.192l-1.808 5.51c-.984-.69-1.899-1.035-2.744-1.035-.818 0-1.51.244-2.079.731-.568.488-1.015 1.368-1.34 2.643-.326 1.274-.49 3.943-.49 8.006z"/><path id="path3991" style="font-size:2.76755rem;font-style:normal;font-variant:normal;font-weight:700;font-stretch:normal;line-height:125%;letter-spacing:0;word-spacing:0;fill:#000;fill-opacity:1;stroke:none;font-family:Arial;-inkscape-font-specification:Arial Bold" d="M240.21 512.32h-5.84v-12.189c0-2.579-.126-4.247-.375-5.004-.25-.757-.655-1.345-1.216-1.765-.561-.42-1.237-.63-2.027-.63-1.011 0-1.92.3-2.723.9-.804.6-1.355 1.394-1.653 2.384-.298.99-.446 2.818-.446 5.487v10.817h-5.842v-23.883h5.426v3.508c1.926-2.698 4.351-4.048 7.275-4.048 1.29 0 2.467.251 3.534.754 1.067.502 1.875 1.143 2.422 1.922.547.78.928 1.665 1.143 2.654.215.99.322 2.406.322 4.25z"/><path id="path3993" style="font-size:2.76755rem;font-style:normal;font-variant:normal;font-weight:700;font-stretch:normal;line-height:125%;letter-spacing:0;word-spacing:0;fill:#000;fill-opacity:1;stroke:none;font-family:Arial;-inkscape-font-specification:Arial Bold" d="m250.521 495.723-5.3-1.034c.595-2.309 1.62-4.018 3.076-5.128 1.455-1.11 3.617-1.664 6.485-1.664 2.606 0 4.546.334 5.82 1 1.276.668 2.173 1.515 2.693 2.542s.78 2.912.78 5.656l-.063 7.376c0 2.1.094 3.647.28 4.644.188.997.538 2.066 1.05 3.205h-5.778c-.153-.42-.34-1.042-.562-1.866a12.067 12.067 0 0 0-.208-.743c-.997 1.05-2.065 1.837-3.2 2.362a8.573 8.573 0 0 1-3.639.787c-2.272 0-4.064-.667-5.373-2.002-1.31-1.334-1.965-3.02-1.965-5.06 0-1.349.298-2.552.894-3.61a6.027 6.027 0 0 1 2.505-2.428c1.074-.562 2.623-1.053 4.646-1.473 2.73-.555 4.622-1.072 5.675-1.552v-.63c0-1.214-.277-2.08-.831-2.597-.555-.517-1.601-.776-3.14-.776-1.039 0-1.85.221-2.431.664-.583.442-1.054 1.218-1.414 2.327zm7.816 5.128c-.748.27-1.933.592-3.555.967-1.621.375-2.681.742-3.18 1.102-.762.584-1.143 1.327-1.143 2.226 0 .885.305 1.65.914 2.294.61.645 1.386.967 2.329.967 1.053 0 2.057-.375 3.014-1.124.706-.57 1.17-1.267 1.392-2.092.153-.54.23-1.567.23-3.08z"/><path id="path3995" style="font-size:2.76755rem;font-style:normal;font-variant:normal;font-weight:700;font-stretch:normal;line-height:125%;letter-spacing:0;word-spacing:0;fill:#000;fill-opacity:1;stroke:none;font-family:Arial;-inkscape-font-specification:Arial Bold" d="M279.977 488.437v5.037h-3.991v9.626c0 1.949.038 3.084.114 3.407.076.322.25.588.52.798.27.21.599.315.987.315.54 0 1.324-.202 2.35-.607l.498 4.902c-1.358.63-2.896.945-4.615.945-1.053 0-2.002-.191-2.848-.574-.845-.382-1.465-.877-1.86-1.484s-.669-1.428-.821-2.462c-.125-.735-.187-2.22-.187-4.453v-10.413h-2.682v-5.037h2.682v-4.745l5.862-3.688v8.433z"/><path id="path3997" style="font-size:2.76755rem;font-style:normal;font-variant:normal;font-weight:700;font-stretch:normal;line-height:125%;letter-spacing:0;word-spacing:0;fill:#000;fill-opacity:1;stroke:none;font-family:Arial;-inkscape-font-specification:Arial Bold" d="M284.072 485.198v-5.847h5.841v5.847zm0 27.122v-23.883h5.841v23.883z"/><path id="path3999" style="font-size:2.76755rem;font-style:normal;font-variant:normal;font-weight:700;font-stretch:normal;line-height:125%;letter-spacing:0;word-spacing:0;fill:#000;fill-opacity:1;stroke:none;font-family:Arial;-inkscape-font-specification:Arial Bold" d="M294.528 500.041c0-2.099.478-4.13 1.434-6.094.957-1.964 2.311-3.464 4.064-4.498 1.753-1.035 3.71-1.552 5.873-1.552 3.34 0 6.077 1.173 8.21 3.52 2.135 2.346 3.202 5.31 3.202 8.894 0 3.613-1.077 6.608-3.232 8.984-2.155 2.377-4.868 3.565-8.139 3.565-2.023 0-3.953-.495-5.789-1.484-1.836-.99-3.232-2.44-4.189-4.352-.956-1.912-1.434-4.24-1.434-6.983zm5.987.338c0 2.368.52 4.182 1.559 5.442 1.04 1.26 2.321 1.889 3.846 1.889 1.524 0 2.802-.63 3.835-1.89 1.032-1.259 1.549-3.088 1.549-5.486 0-2.34-.517-4.138-1.55-5.398-1.032-1.26-2.31-1.889-3.834-1.889-1.525 0-2.807.63-3.846 1.89-1.04 1.259-1.56 3.073-1.56 5.442z"/><path id="path4001" style="font-size:2.76755rem;font-style:normal;font-variant:normal;font-weight:700;font-stretch:normal;line-height:125%;letter-spacing:0;word-spacing:0;fill:#000;fill-opacity:1;stroke:none;font-family:Arial;-inkscape-font-specification:Arial Bold" d="M341.986 512.32h-5.842v-12.189c0-2.579-.124-4.247-.374-5.004-.25-.757-.654-1.345-1.216-1.765-.561-.42-1.237-.63-2.027-.63-1.011 0-1.919.3-2.723.9-.803.6-1.354 1.394-1.652 2.384-.298.99-.447 2.818-.447 5.487v10.817h-5.841v-23.883h5.425v3.508c1.926-2.698 4.352-4.048 7.276-4.048 1.288 0 2.466.251 3.534.754 1.067.502 1.874 1.143 2.421 1.922.548.78.929 1.665 1.144 2.654.214.99.322 2.406.322 4.25z"/><path id="path4003" style="font-size:2.76755rem;font-style:normal;font-variant:normal;font-weight:700;font-stretch:normal;line-height:125%;letter-spacing:0;word-spacing:0;fill:#000;fill-opacity:1;stroke:none;font-family:Arial;-inkscape-font-specification:Arial Bold" d="m352.296 495.723-5.3-1.034c.595-2.309 1.621-4.018 3.076-5.128 1.455-1.11 3.617-1.664 6.486-1.664 2.605 0 4.545.334 5.82 1 1.275.668 2.173 1.515 2.692 2.542.52 1.027.78 2.912.78 5.656l-.063 7.376c0 2.1.094 3.647.281 4.644.187.997.537 2.066 1.05 3.205h-5.78c-.152-.42-.339-1.042-.56-1.866a12.075 12.075 0 0 0-.208-.743c-.998 1.05-2.065 1.837-3.202 2.362a8.573 8.573 0 0 1-3.637.787c-2.273 0-4.064-.667-5.374-2.002-1.31-1.334-1.964-3.02-1.964-5.06 0-1.349.298-2.552.894-3.61a6.027 6.027 0 0 1 2.504-2.428c1.074-.562 2.623-1.053 4.646-1.473 2.73-.555 4.622-1.072 5.675-1.552v-.63c0-1.214-.277-2.08-.831-2.597-.554-.517-1.6-.776-3.139-.776-1.04 0-1.85.221-2.432.664-.582.442-1.053 1.218-1.414 2.327zm7.816 5.128c-.748.27-1.933.592-3.554.967-1.622.375-2.682.742-3.18 1.102-.763.584-1.144 1.327-1.144 2.226 0 .885.305 1.65.915 2.294.61.645 1.385.967 2.328.967 1.053 0 2.058-.375 3.014-1.124.707-.57 1.171-1.267 1.393-2.092.152-.54.228-1.567.228-3.08z"/><path id="path4005" style="font-size:2.76755rem;font-style:normal;font-variant:normal;font-weight:700;font-stretch:normal;line-height:125%;letter-spacing:0;word-spacing:0;fill:#000;fill-opacity:1;stroke:none;font-family:Arial;-inkscape-font-specification:Arial Bold" d="M371.629 512.32v-32.969h5.84v32.97z"/><path id="path4007" style="font-size:2.76755rem;font-style:normal;font-variant:normal;font-weight:700;font-stretch:normal;line-height:125%;letter-spacing:0;word-spacing:0;fill:#000;fill-opacity:1;stroke:none;font-family:Arial;-inkscape-font-specification:Arial Bold" d="M394.038 496.038c0-3.358.464-6.177 1.392-8.456a15.635 15.635 0 0 1 2.838-4.52c1.199-1.334 2.512-2.324 3.939-2.969 1.899-.87 4.088-1.304 6.569-1.304 4.49 0 8.083 1.507 10.778 4.52 2.696 3.014 4.043 7.204 4.043 12.572 0 5.322-1.337 9.486-4.012 12.492-2.674 3.006-6.25 4.51-10.726 4.51-4.532 0-8.135-1.496-10.81-4.487-2.674-2.991-4.011-7.11-4.011-12.358zm6.34-.225c0 3.733.797 6.563 2.39 8.49 1.594 1.926 3.617 2.89 6.07 2.89 2.453 0 4.466-.956 6.039-2.868 1.573-1.911 2.36-4.779 2.36-8.602 0-3.778-.766-6.596-2.298-8.456-1.531-1.859-3.565-2.788-6.1-2.788-2.537 0-4.581.94-6.133 2.822-1.552 1.882-2.328 4.72-2.328 8.512z"/><path id="path4009" style="font-size:2.76755rem;font-style:normal;font-variant:normal;font-weight:700;font-stretch:normal;line-height:125%;letter-spacing:0;word-spacing:0;fill:#000;fill-opacity:1;stroke:none;font-family:Arial;-inkscape-font-specification:Arial Bold" d="M428.17 488.437h5.447v3.508a8.459 8.459 0 0 1 2.868-2.923c1.206-.75 2.543-1.125 4.012-1.125 2.564 0 4.74 1.087 6.528 3.261 1.787 2.174 2.681 5.203 2.681 9.086 0 3.988-.9 7.087-2.702 9.299-1.802 2.211-3.984 3.317-6.548 3.317-1.22 0-2.325-.263-3.316-.787-.99-.525-2.033-1.425-3.128-2.699v12.032h-5.842zm5.78 11.537c0 2.683.491 4.666 1.475 5.948.984 1.282 2.183 1.923 3.597 1.923 1.358 0 2.487-.589 3.388-1.766.9-1.176 1.351-3.107 1.351-5.79 0-2.504-.464-4.363-1.393-5.578-.928-1.214-2.078-1.821-3.45-1.821-1.428 0-2.613.596-3.555 1.788-.942 1.191-1.414 2.957-1.414 5.296z"/><path id="path4011" style="font-size:2.76755rem;font-style:normal;font-variant:normal;font-weight:700;font-stretch:normal;line-height:125%;letter-spacing:0;word-spacing:0;fill:#000;fill-opacity:1;stroke:none;font-family:Arial;-inkscape-font-specification:Arial Bold" d="M454.196 488.437h5.447v3.508a8.458 8.458 0 0 1 2.868-2.923c1.206-.75 2.543-1.125 4.012-1.125 2.564 0 4.74 1.087 6.528 3.261 1.787 2.174 2.681 5.203 2.681 9.086 0 3.988-.9 7.087-2.702 9.299-1.802 2.211-3.985 3.317-6.548 3.317-1.22 0-2.325-.263-3.316-.787-.99-.525-2.034-1.425-3.128-2.699v12.032h-5.842zm5.78 11.537c0 2.683.491 4.666 1.475 5.948.984 1.282 2.183 1.923 3.596 1.923 1.358 0 2.488-.589 3.389-1.766.9-1.176 1.35-3.107 1.35-5.79 0-2.504-.463-4.363-1.392-5.578-.928-1.214-2.079-1.821-3.45-1.821-1.428 0-2.613.596-3.555 1.788-.943 1.191-1.414 2.957-1.414 5.296z"/><path id="path4013" style="font-size:2.76755rem;font-style:normal;font-variant:normal;font-weight:700;font-stretch:normal;line-height:125%;letter-spacing:0;word-spacing:0;fill:#000;fill-opacity:1;stroke:none;font-family:Arial;-inkscape-font-specification:Arial Bold" d="M479.037 500.041c0-2.099.478-4.13 1.435-6.094.956-1.964 2.31-3.464 4.064-4.498 1.753-1.035 3.71-1.552 5.872-1.552 3.34 0 6.077 1.173 8.211 3.52 2.134 2.346 3.201 5.31 3.201 8.894 0 3.613-1.077 6.608-3.232 8.984-2.155 2.377-4.868 3.565-8.138 3.565-2.024 0-3.953-.495-5.79-1.484-1.836-.99-3.232-2.44-4.188-4.352-.957-1.912-1.435-4.24-1.435-6.983zm5.987.338c0 2.368.52 4.182 1.56 5.442 1.039 1.26 2.32 1.889 3.845 1.889 1.524 0 2.803-.63 3.835-1.89 1.033-1.259 1.549-3.088 1.549-5.486 0-2.34-.516-4.138-1.549-5.398-1.032-1.26-2.31-1.889-3.835-1.889s-2.806.63-3.846 1.89c-1.04 1.259-1.559 3.073-1.559 5.442z"/><path id="path4015" style="font-size:2.76755rem;font-style:normal;font-variant:normal;font-weight:700;font-stretch:normal;line-height:125%;letter-spacing:0;word-spacing:0;fill:#000;fill-opacity:1;stroke:none;font-family:Arial;-inkscape-font-specification:Arial Bold" d="M512.006 512.32h-5.841v-23.883h5.425v3.396c.929-1.604 1.764-2.661 2.505-3.171.742-.51 1.584-.765 2.526-.765 1.33 0 2.612.397 3.846 1.192l-1.809 5.51c-.984-.69-1.898-1.035-2.744-1.035-.817 0-1.51.244-2.078.731-.569.488-1.016 1.368-1.341 2.643-.326 1.274-.489 3.943-.489 8.006z"/><path id="path4017" style="font-size:2.76755rem;font-style:normal;font-variant:normal;font-weight:700;font-stretch:normal;line-height:125%;letter-spacing:0;word-spacing:0;fill:#000;fill-opacity:1;stroke:none;font-family:Arial;-inkscape-font-specification:Arial Bold" d="M533.085 488.437v5.037h-3.992v9.626c0 1.949.039 3.084.115 3.407.076.322.25.588.52.798.27.21.599.315.987.315.54 0 1.323-.202 2.349-.607l.499 4.902c-1.358.63-2.897.945-4.615.945-1.053 0-2.003-.191-2.848-.574-.845-.382-1.465-.877-1.86-1.484s-.67-1.428-.822-2.462c-.124-.735-.187-2.22-.187-4.453v-10.413h-2.681v-5.037h2.681v-4.745l5.862-3.688v8.433z"/><path id="path4019" style="font-size:2.76755rem;font-style:normal;font-variant:normal;font-weight:700;font-stretch:normal;line-height:125%;letter-spacing:0;word-spacing:0;fill:#000;fill-opacity:1;stroke:none;font-family:Arial;-inkscape-font-specification:Arial Bold" d="M551.71 512.32v-3.576a8.76 8.76 0 0 1-3.17 3.014c-1.31.735-2.692 1.102-4.147 1.102-1.483 0-2.813-.352-3.991-1.057a6.075 6.075 0 0 1-2.557-2.969c-.527-1.274-.79-3.036-.79-5.285v-15.112h5.841v10.974c0 3.359.108 5.417.323 6.174.214.757.606 1.357 1.174 1.799.568.442 1.289.663 2.162.663.998 0 1.892-.296 2.681-.888.79-.592 1.33-1.327 1.622-2.204.29-.877.436-3.025.436-6.443v-10.075h5.842v23.883z"/><path id="path4021" style="font-size:2.76755rem;font-style:normal;font-variant:normal;font-weight:700;font-stretch:normal;line-height:125%;letter-spacing:0;word-spacing:0;fill:#000;fill-opacity:1;stroke:none;font-family:Arial;-inkscape-font-specification:Arial Bold" d="M583.286 512.32h-5.841v-12.189c0-2.579-.125-4.247-.374-5.004-.25-.757-.655-1.345-1.216-1.765-.561-.42-1.237-.63-2.027-.63-1.012 0-1.92.3-2.723.9-.804.6-1.355 1.394-1.653 2.384-.298.99-.447 2.818-.447 5.487v10.817h-5.84v-23.883h5.425v3.508c1.926-2.698 4.351-4.048 7.275-4.048 1.289 0 2.467.251 3.534.754 1.067.502 1.874 1.143 2.422 1.922.547.78.928 1.665 1.143 2.654.215.99.322 2.406.322 4.25z"/><path id="path4023" style="font-size:2.76755rem;font-style:normal;font-variant:normal;font-weight:700;font-stretch:normal;line-height:125%;letter-spacing:0;word-spacing:0;fill:#000;fill-opacity:1;stroke:none;font-family:Arial;-inkscape-font-specification:Arial Bold" d="M589.232 485.198v-5.847h5.84v5.847zm0 27.122v-23.883h5.84v23.883z"/><path id="path4025" style="font-size:2.76755rem;font-style:normal;font-variant:normal;font-weight:700;font-stretch:normal;line-height:125%;letter-spacing:0;word-spacing:0;fill:#000;fill-opacity:1;stroke:none;font-family:Arial;-inkscape-font-specification:Arial Bold" d="M611.162 488.437v5.037h-3.99v9.626c0 1.949.037 3.084.113 3.407.077.322.25.588.52.798.27.21.6.315.988.315.54 0 1.323-.202 2.348-.607l.5 4.902c-1.359.63-2.897.945-4.615.945-1.054 0-2.003-.191-2.848-.574-.846-.382-1.466-.877-1.86-1.484-.396-.607-.67-1.428-.822-2.462-.125-.735-.187-2.22-.187-4.453v-10.413h-2.682v-5.037h2.682v-4.745l5.862-3.688v8.433z"/><path id="path4027" style="font-size:2.76755rem;font-style:normal;font-variant:normal;font-weight:700;font-stretch:normal;line-height:125%;letter-spacing:0;word-spacing:0;fill:#000;fill-opacity:1;stroke:none;font-family:Arial;-inkscape-font-specification:Arial Bold" d="M612.493 488.437h6.215l5.28 16.957 5.155-16.957h6.05l-7.796 22.984-1.393 4.16c-.512 1.394-1 2.459-1.465 3.193-.464.735-.998 1.331-1.6 1.788-.603.458-1.345.814-2.225 1.069-.88.254-1.874.382-2.983.382-1.122 0-2.224-.128-3.305-.382l-.52-4.948c.915.195 1.74.292 2.474.292 1.358 0 2.363-.43 3.014-1.293.651-.862 1.15-1.96 1.497-3.294z"/><path id="path3916" style="font-size:24.45526rem;font-style:normal;font-variant:normal;font-weight:700;font-stretch:normal;text-align:start;line-height:125%;letter-spacing:0;word-spacing:0;-ms-writing-mode:lr-tb;writing-mode:lr-tb;text-anchor:start;fill:#c7002b;fill-opacity:1;stroke:none;font-family:Tunga;-inkscape-font-specification:Tunga Bold" d="M555.558 458.001c-38.22.253-51.186-5.16-67.688-18.008-16.502-12.848-24.178-33.324-25.553-59.408h52.214c2.318 26.846 17.208 37.278 42.175 37.127 19.413-.058 36.834-4.654 34.782-24.168-1.355-20.317-32.186-16.982-72.2-33.921-28.037-8.344-54.886-30.607-52.566-65.35 3.534-47.225 45.988-64.723 85.843-64.9 47.555-.038 83.878 23.264 84.52 72.009l-51.399-.714c-.233-28.744-32.047-28.836-35.978-28.889-20.671-.677-30.901 10.511-30.406 19.461.202 17.022 21.113 21.633 41.567 28.178 38.427 12.202 83.52 19.483 83.77 70.937-.397 20.506-6.051 35.657-23.204 49.393-13.243 10.35-35.742 18.098-65.877 18.253z"/><path style="fill:#c7002b;fill-opacity:1;stroke:none" d="M-107.143 238.684h55.714v215.92h-55.714z" id="path3952"/><path style="fill:#c7002b;fill-opacity:1;stroke:none" d="M-27.857 238.684H138.57v43.942H26.264v40.45h112.307v42.858H26.264v44.285h112.307v44.385H-27.857z" id="path3954"/><path style="fill:#c7002b;fill-opacity:1;stroke:none" d="M160 238.684h55V408.22h101.429v46.385H160z" id="path3956"/><path style="fill:#c7002b;fill-opacity:1;stroke:none" d="M276.024 238.684h179.302v43.942h-62.124v171.978h-54.8V282.626h-62.378z" id="path3958"/><path id="path4576" style="font-size:2.19293rem;font-style:normal;font-variant:normal;font-weight:700;font-stretch:normal;line-height:125%;letter-spacing:0;word-spacing:0;fill:#000;fill-opacity:1;stroke:none;font-family:Arial;-inkscape-font-specification:Arial Bold" d="M631.693 263.79v-21.414h-7.262v-4.36h19.448v4.36h-7.245v21.415z"/><path id="path4578" style="font-size:2.19293rem;font-style:normal;font-variant:normal;font-weight:700;font-stretch:normal;line-height:125%;letter-spacing:0;word-spacing:0;fill:#000;fill-opacity:1;stroke:none;font-family:Arial;-inkscape-font-specification:Arial Bold" d="M647.017 263.79v-25.775h7.396l4.44 17.582 4.39-17.582h7.413v25.776h-4.591V243.5l-4.858 20.29h-4.758l-4.84-20.29v20.29z"/></g></svg>