<?xml version="1.0" encoding="utf-8"?>
<!-- Generator: Adobe Illustrator 25.2.0, SVG Export Plug-In . SVG Version: 6.00 Build 0)  -->
<svg version="1.1" id="图层_1" xmlns="http://www.w3.org/2000/svg" xmlns:xlink="http://www.w3.org/1999/xlink" x="0px" y="0px"
	 viewBox="0 0 280.9 65" style="enable-background:new 0 0 280.9 65;" xml:space="preserve">
<style type="text/css">
	.st0{fill:none;}
	.st1{fill:#FFFFFF;}
	.st2{fill:#E60012;}
</style>
<g>
	<path class="st0" d="M71.4,27.4c0.3,0,0.6-0.1,0.8-0.1c7.6,0,15.1,0,22.7,0c0.4,0,0.8,0.2,1.1,0.5c1,1,2.2,1,3.5,0.6
		c1.2-0.4,1.6-1.4,1.6-2.6c0-7.4,0-14.9,0-22.3c0-1.2-0.5-2.2-1.7-2.6S97,0.6,96,1.5C95.7,1.8,95.3,2,94.9,2c-7.7,0-15.5,0-23.2,0
		c-0.3,0-0.7-0.2-1-0.4c-1.1-1-2.4-1.3-3.7-0.7c-1.3,0.5-1.6,1.6-1.6,2.9c0,13,0,25.9,0,38.9c0,0.7,0.3,1.5,0.6,2.1
		c0.7,1.1,2.1,1.5,3.3,1.1c1.2-0.4,2-1.5,2-2.9c0-4.8,0-9.6,0-14.4C71.4,28.2,71.4,27.8,71.4,27.4z M130,6.4c0.5,0,0.9,0,1.2,0
		c3.5,0,6.9,0,10.4,0c1.6,0,2.8-1.1,3.1-2.6c0.3-1.4-0.6-3-1.9-3.5c-1.4-0.6-3.1-0.2-3.8,1.1c-0.4,0.7-0.9,0.8-1.5,0.8
		c-8.7,0-17.3,0-26,0c-1.7,0-2.5,0.7-2.4,2.2c0,1.4,0.8,2.1,2.4,2.1c3.8,0,7.6,0,11.4,0c0.4,0,0.7,0,1.2,0.1c0,0.5,0,0.9,0,1.3
		c0,11.5,0,23,0,34.4c0,0.4,0,0.8,0,1.1c0.1,1.5,1.2,2.5,2.7,2.7c1.9,0.2,3.3-1.2,3.3-3.3c0-11.7,0-23.3,0-35
		C130,7.3,130,6.9,130,6.4z M33.1,40.3c0-0.5,0-0.9,0-1.3c0-11.6,0-23.1,0-34.7c0-0.3,0-0.6,0-0.9c-0.1-1.2-1-2.3-2.2-2.6
		c-2-0.5-3.8,0.9-3.8,3.3c0,11.5,0,22.9,0,34.4c0,1.6,0,3.2,0,4.7c0,1.1,0.4,2.1,1.5,2.6c1.2,0.5,2.5,0.5,3.5-0.5
		c0.5-0.5,1-0.6,1.6-0.6c6.4,0,12.8,0,19.1,0c0.4,0,0.8,0,1.1,0c1.3-0.2,2.3-0.9,2.7-2.2c0.4-1.3,0.1-2.4-0.9-3.4
		c-1.6-1.5-3.9-1-5.2,1.2C44.9,40.3,39,40.3,33.1,40.3z M15,3.7c-0.2-0.5-0.4-1.3-0.9-1.8c-0.9-1.2-2.6-1.6-4-1.1S7.9,2.5,7.9,4.2
		c0,1.8,0.2,3.6,0.2,5.4C8,17.5,7.9,25.5,7.8,33.4c-0.2,7.6-1.2,15-4,22.1c-0.9,2.4-2.2,4.6-3.4,6.9c-0.5,0.9-0.5,1.9,0.2,2.3
		C1.3,65.2,2.2,65,3,64.2c0.1-0.1,0.2-0.2,0.3-0.3c6-6.8,9.2-14.8,9.8-23.9c0.7-10.6,1.1-21.1,1-31.7c0-1.1-0.2-2.2,0.5-3.3
		C14.9,4.8,14.9,4.3,15,3.7z M244.5,10.7c0.1,0,0.2,0.1,0.3,0.1c-1.1,0.9-1.1,1.8-0.1,2.3c1.6,0.8,3.2,0.8,4.7-0.2
		c0.4-0.2,0.7-1,0.7-1.4s-0.5-0.9-0.9-1.2c-0.4-0.3-1-0.3-1.6-0.4s-1.1-0.2-1.7-0.3c1-0.3,2.1-0.5,2.9-1c1-0.6,1-1.7,0.8-2.5
		c0.5-0.4,0.9-0.6,1.1-0.9c0.1-0.1-0.1-0.7-0.3-0.8c-0.3-0.1-0.8-0.1-1.2,0c-0.3,0-0.7,0.3-1,0.2c-1.6-0.4-2.6-0.3-3.4,0.8
		c-0.8,1.1-0.5,2.2,0,2.9C244.7,9.4,244.6,10.1,244.5,10.7z M269.5,9.7c1-0.3,2-0.5,2.8-1c1-0.6,1-1.7,0.7-2.8c0.7,0,1.4,0,1.2-0.8
		c-0.1-0.3-0.8-0.7-1-0.6c-0.8,0.4-1.6,0.2-2.4,0.1c-1-0.2-1.9,0.3-2.5,1.1c-0.7,1.1-0.5,2.1,0.1,2.9c-0.2,0.7-0.4,1.3-0.3,1.7
		c0.1,0.4,0.1,0.6-0.2,0.9c-0.7,0.7-0.6,1.4,0.3,1.9c1.6,0.8,3.2,0.8,4.7-0.1c0.4-0.2,0.8-1,0.8-1.5c0-0.4-0.6-1-1.1-1.2
		c-0.7-0.3-1.6-0.3-2.4-0.5C269.9,9.9,269.7,9.8,269.5,9.7z M158.7,23.6c0.9,0,1.7,0.1,2.5,0c1.5-0.2,2.6-1.3,2.5-2.7
		c0-1.3-1.2-2.5-2.6-2.5c-1.4-0.1-2.9,0-4.3,0c-0.2,0-0.4,0.2-0.6,0.3c0.2,0.2,0.3,0.5,0.5,0.5c0.7,0.1,0.8,0.5,0.8,1.1
		c0,1.9,0,3.9,0,5.8c0,0.6-0.1,1-0.8,1c-0.2,0-0.3,0.3-0.5,0.5c0.2,0.1,0.4,0.4,0.6,0.4c0.9,0,1.8,0,2.8,0c0.2,0,0.4-0.3,0.6-0.4
		c-0.2-0.1-0.3-0.4-0.5-0.4c-0.8,0-0.8-0.5-0.8-1.1C158.7,25.3,158.7,24.6,158.7,23.6z M171.7,11.2c0.4,0.1,0.6,0.2,0.8,0.2
		c1.8,0.4,3-0.5,3.4-2.3c0.5-2.2-0.4-4.1-2-4.5c-0.5-0.1-1,0.1-1.5,0.1c-0.3,0-0.6-0.1-0.9-0.1c-0.7,0.1-1.3,0.3-2,0.5
		c0.2,0.3,0.5,0.7,0.8,1.1c0,1.8,0,3.8,0,5.8c0,0.3-0.3,0.6-0.5,0.8c-0.1,0.2-0.3,0.4-0.3,0.6c0,0.1,0.3,0.3,0.5,0.3
		c0.7,0,1.4,0,2,0c0.2,0,0.4-0.2,0.5-0.4c0-0.1-0.1-0.4-0.2-0.4C171.3,12.7,171.7,11.9,171.7,11.2z M159.4,35.9c0,2.3,0,4.5,0,6.7
		c0,0.7-0.1,1.1-0.9,1.2c-0.2,0-0.4,0.3-0.6,0.4c0.2,0.1,0.5,0.4,0.7,0.4c1,0,2,0,3,0c0.2,0,0.4-0.3,0.7-0.5
		c-0.2-0.1-0.4-0.4-0.6-0.4c-0.8,0-0.9-0.5-0.9-1.2c0-1.3,0-2.6,0-3.9c0-0.9,0-1.9,0-2.8c1.4-0.3,2.3,0.1,2.8,1.3
		c0.2,0.4,0.5,0.8,0.9,0.3c0.4-0.6-0.8-2.5-1.5-2.5c-1.9,0-3.8,0-5.6,0c-0.7,0-1.1,0.3-1.2,0.9c-0.1,0.3-0.3,0.6-0.3,1
		c0,0.3,0.1,0.6,0.1,0.9c0.3-0.2,0.6-0.3,0.7-0.5C157.2,35.9,158.1,35.6,159.4,35.9z M213.3,26.8c0-1,0-2.2,0-3.4
		c0-1.8-1.3-2.6-2.9-2c-0.2,0.1-0.4,0.2-0.6,0.3c-0.5-0.6-1.7-0.7-2.2-0.1c-0.1,0.1,0,0.6,0.1,0.6c0.7,0.1,0.6,0.6,0.6,1
		c0,1,0,2.1,0,3.1c0,0.3-0.3,0.6-0.5,0.8c-0.1,0.2-0.3,0.4-0.3,0.5c0.1,0.2,0.3,0.4,0.5,0.4c0.6,0,1.3,0,1.9,0
		c0.2,0,0.4-0.2,0.5-0.4c-0.1-0.2-0.2-0.3-0.4-0.5s-0.5-0.4-0.5-0.6c-0.1-1-0.1-2.1,0-3.1c0.1-0.9,0.8-1.2,1.5-1.2
		c0.8,0,0.9,0.6,0.9,1.2c0,1,0,2,0,3c0,0.2-0.3,0.5-0.5,0.7c-0.1,0.2-0.3,0.4-0.4,0.6c0.2,0.1,0.4,0.3,0.6,0.3c0.6,0,1.2,0.1,1.7,0
		c0.3,0,0.6-0.2,1-0.4C214,27.5,213.7,27.2,213.3,26.8z M187.1,5c-0.5-0.6-1.7-0.7-2.2-0.1c-0.1,0.1,0,0.4,0.1,0.6
		c0.2,0.3,0.5,0.7,0.5,1c0.1,1,0.1,2,0,3c0,0.3-0.3,0.6-0.5,0.9c-0.1,0.2-0.3,0.3-0.2,0.5c0,0.1,0.3,0.3,0.4,0.3c0.7,0,1.4,0,2.1,0
		c0.2,0,0.5-0.2,0.4-0.3c0-0.2-0.2-0.4-0.3-0.5c-0.2-0.2-0.5-0.4-0.5-0.6c-0.1-1.1-0.2-2.2,0-3.2c0.1-0.5,0.9-1,1.4-1.1
		c0.7-0.2,0.9,0.5,0.9,1c0.1,1,0.1,2,0,3c0,0.3-0.4,0.6-0.6,0.8c-0.1,0.2-0.3,0.3-0.4,0.5c0.2,0.1,0.3,0.4,0.5,0.4
		c0.8,0,1.5,0,2.3,0c0.2,0,0.4-0.2,0.5-0.4c0-0.1-0.2-0.4-0.3-0.4c-0.7,0-0.6-0.5-0.6-0.9c0-1,0-2.1,0-3.1c-0.1-1.5-1.3-2.3-2.7-1.8
		C187.7,4.8,187.4,4.9,187.1,5z M223.5,11.4c0.4,0,0.9,0,1.3,0c2.1,0,2.1,0,2.7-2V9.3c0-0.2-0.1-0.5-0.1-0.7
		c-0.2,0.1-0.6,0.2-0.7,0.4c-0.7,1.4-1.8,1.7-3.3,1.6c-0.6,0-0.8-0.3-0.8-0.9c0-2.1,0-4.1,0-6.2c0-0.5,0.1-0.9,0.8-1
		c0.2,0,0.4-0.3,0.5-0.5c-0.2-0.1-0.3-0.4-0.5-0.4c-1,0-1.9,0-2.9,0c-0.2,0-0.3,0.3-0.5,0.4c0.1,0.2,0.3,0.4,0.4,0.4
		c0.6,0.1,0.8,0.4,0.8,1c0,2.1,0,4.1,0,6.2c0,0.3-0.4,0.6-0.6,0.9c-0.2,0.2-0.4,0.4-0.6,0.5c0.3,0.1,0.5,0.3,0.8,0.3
		C221.7,11.4,222.6,11.4,223.5,11.4z M265.3,10.1c0-0.5,0-1,0-1.6s0-1.2,0-1.8c0-1-0.4-1.7-1.4-2c-1-0.2-2-0.2-2.8,0.5
		c-0.3,0.3-0.5,0.8-0.5,1.2c0,0.1,0.6,0.6,0.7,0.5c0.3-0.2,0.5-0.6,0.8-0.8c0.3-0.2,0.8-0.6,1-0.6c0.4,0.1,0.7,0.6,0.9,1
		c0.2,0.5-0.2,0.7-0.7,0.9c-0.8,0.3-1.6,0.7-2.4,1.2c-0.6,0.4-0.9,1.1-0.6,1.9s0.9,1.1,1.7,1.1c0.7,0,1.3-0.3,2.1-0.5
		c0.4,0.5,1.1,0.7,1.8,0.3c0.2-0.1,0.3-0.4,0.4-0.5C266,10.5,265.7,10.3,265.3,10.1z M240.7,10.1c-0.4,0.4-0.7,0.6-1,0.8
		c0.4,0.1,0.7,0.3,1.1,0.4c0.5,0.1,1.1,0,1.6,0c0.2,0,0.4-0.2,0.5-0.4c0-0.1-0.2-0.4-0.3-0.4c-0.7,0-0.7-0.5-0.7-1c0-1,0-2.1,0-3.1
		c0-1.3-0.9-2-2.2-1.9c-0.5,0.1-1,0.3-1.4,0.5c-0.3-0.3-0.7-0.5-1-0.5c-0.4,0.1-0.8,0.4-1.2,0.6c0.2,0.3,0.5,0.5,0.8,0.9
		c0,1,0,2.2,0,3.4c0,0.3-0.3,0.7-0.5,1c-0.1,0.2-0.3,0.4-0.2,0.5c0,0.1,0.3,0.3,0.4,0.3c0.7,0,1.4,0,2.1,0c0.2,0,0.4-0.2,0.4-0.3
		c0-0.2-0.2-0.4-0.3-0.5s-0.4-0.1-0.5-0.2c0-1.2,0-2.3,0-3.4c0-0.7,0.7-1.4,1.5-1.4c0.9,0,1,0.6,1,1.3C240.7,8,240.7,9.1,240.7,10.1
		z M182.6,10.1c0-1.1,0-2.3,0-3.6c0-0.9-0.3-1.5-1.2-1.8c-1-0.3-2-0.3-3,0.3c-0.3,0.2-0.6,0.5-0.6,0.8s0.2,0.9,0.4,1
		c0.3,0.1,0.7-0.2,1-0.4c0.1,0,0-0.3,0.1-0.4c0.3-0.2,0.8-0.7,1-0.6c0.4,0.2,0.7,0.7,0.9,1.1c0.1,0.1-0.4,0.6-0.7,0.7
		c-0.8,0.4-1.6,0.7-2.4,1.2c-0.6,0.4-1,1.2-0.5,1.9c0.3,0.5,1,1,1.6,1.1s1.4-0.3,2-0.4c0.6,0.2,1.3,0.2,1.9,0.2
		c0.1,0,0.3-0.3,0.4-0.5C183.3,10.5,183,10.3,182.6,10.1z M167.4,10.1c0-1.1,0-2.3,0-3.6c0-1-0.4-1.8-1.4-1.9
		c-0.9-0.1-1.8,0.1-2.7,0.3c-0.3,0.1-0.6,0.5-0.7,0.8c0,0.3,0.2,0.9,0.4,0.9c0.3,0.1,0.7-0.2,1-0.4c0.1-0.1,0-0.4,0.1-0.5
		c0.4-0.2,0.9-0.5,1.1-0.4c0.4,0.2,0.6,0.7,0.8,1.1c0.1,0.1-0.3,0.5-0.6,0.7c-0.8,0.4-1.6,0.7-2.4,1.2c-0.7,0.4-0.9,1.2-0.7,2
		c0.3,0.8,0.9,1.1,1.7,1.1c0.7,0,1.3-0.3,1.9-0.5c0.6,0.2,1.3,0.3,1.9,0.2c0.1,0,0.2-0.4,0.4-0.5C168.1,10.5,167.8,10.3,167.4,10.1z
		 M158.1,12.8c-0.4-0.4-0.6-0.6-0.8-0.7c-0.3-0.1-0.7-0.3-1-0.2c-0.2,0.1-0.5,0.5-0.5,0.8c0.1,0.3,0.4,0.7,0.7,0.8
		c0.3,0.2,0.8,0.2,1.2,0.1c1.5-0.3,2.3-1.3,2.3-2.9c0-2.4,0-4.7,0-7.1c0-0.6,0.1-1,0.7-1.1c0.2,0,0.4-0.3,0.6-0.4
		c-0.2-0.1-0.5-0.4-0.7-0.4c-0.9,0-1.8-0.1-2.8,0c-0.3,0-0.5,0.3-0.8,0.4c0.2,0.1,0.4,0.4,0.7,0.4c0.6,0.1,0.9,0.3,0.9,1
		c0,2.5,0,5.1,0,7.6C158.5,11.6,158.3,12.1,158.1,12.8z M233.9,10c0-1,0-2.2,0-3.4c0-1.2-0.5-1.8-1.5-2c-1.2-0.3-2.8,0.2-3.1,1
		c-0.1,0.3,0,1,0.3,1.2c0.5,0.3,0.9,0,1.2-0.6c0.1-0.3,0.6-0.7,0.9-0.7c0.3,0,0.7,0.3,0.9,0.6c0.2,0.2,0.1,0.6,0.1,0.8
		c-1.1,0.5-2.1,1-3,1.5c-0.7,0.4-1,1.3-0.6,2c0.3,0.5,1.1,0.9,1.7,1c0.6,0.1,1.3-0.3,1.9-0.5c0.6,0.2,1.2,0.3,1.8,0.3
		c0.2,0,0.3-0.3,0.4-0.5C234.6,10.5,234.3,10.3,233.9,10z M258,4.4c-0.8,0.1-1.3,0.2-1.9,0.4c-0.2,0-0.3,0.3-0.4,0.5
		c0.2,0.1,0.3,0.3,0.5,0.4c0.2,0.1,0.4,0.1,0.6,0.2c0,1.1,0,2.1,0,3.1c0,0.8-0.9,1.7-1.8,1.6s-0.9-0.8-1-1.5c0-1.3,0-2.5,0-3.8
		c0-0.2-0.4-0.7-0.6-0.6c-0.5,0.1-1,0.4-1.5,0.6c0.1,0.1,0.1,0.4,0.2,0.4c0.8,0,0.6,0.7,0.6,1.1c0,0.8,0,1.6,0,2.5
		c0,2.1,1.3,2.9,3.2,2.1c0.2-0.1,0.5-0.1,0.8-0.1c0.6,0.1,1.2,0.2,1.8,0.2c0.1,0,0.4-0.2,0.4-0.4c0-0.1-0.2-0.4-0.3-0.4
		c-0.7-0.1-0.7-0.5-0.7-1C258,7.8,258,6.2,258,4.4z M224.3,29.2c-0.2-0.1-0.4-0.2-0.5-0.2c-0.3,0-0.7-0.1-1,0
		c-0.1,0-0.2,0.6-0.1,0.7c0.2,0.3,0.6,0.5,0.9,0.5c1.1,0.1,1.7-0.4,2.1-1.4c0.7-1.9,1.5-3.8,2.3-5.7c0.1-0.4,0.5-0.6,0.8-0.9
		c0.1-0.1,0.4-0.4,0.3-0.4c-0.1-0.2-0.3-0.4-0.5-0.4c-0.6,0-1.3-0.1-2,0c-0.2,0-0.3,0.2-0.5,0.4c0.1,0.2,0.3,0.3,0.4,0.5
		c0.1,0.1,0.3,0.1,0.6,0.2c-0.4,1.1-0.8,2.1-1.3,3.2c-0.2-0.4-0.3-0.6-0.4-0.8c-0.4-0.8-0.7-1.6-1-2.3c0.3-0.4,0.5-0.6,0.8-0.9
		c-0.4-0.1-0.7-0.3-1.1-0.3c-0.5-0.1-1,0-1.5,0c-0.2,0-0.4,0.2-0.5,0.4c0,0.1,0.2,0.3,0.3,0.5c0.3,0.3,0.6,0.6,0.8,0.9
		c0.5,1,0.9,2.2,1.5,3.1C225.3,27.4,225,28.2,224.3,29.2z M208.4,8c0.6,0,1.2,0,1.7,0s1.1,0.1,1.6,0c0.3-0.1,0.8-0.4,0.8-0.6
		c0.2-1.1-0.8-2.4-1.9-2.8c-1.3-0.4-2.4,0.1-3.1,1.2c-0.7,1.3-0.7,2.6-0.2,4c0.8,2,3.7,2.3,5,0.7c0.1-0.2,0.1-0.5,0.2-0.8
		c-0.2,0-0.6,0-0.7,0.1c-0.7,0.7-1.4,1-2.3,0.6C208.6,10,208.4,9.1,208.4,8z M174,28.2c1.8,0,3.1-1.4,3.1-3.5c0-2-1.2-3.5-3-3.5
		s-3.1,1.5-3.1,3.5C171,26.9,172.2,28.2,174,28.2z M194.2,8c0.7,0,1.2,0,1.7,0s1.1,0.1,1.6,0c0.3-0.1,0.8-0.4,0.8-0.6
		c0.1-1.1-0.8-2.4-1.9-2.7c-1.2-0.4-2.4,0-3.1,1.2c-0.7,1.4-0.8,2.8-0.1,4.2c0.9,1.7,3.7,1.9,4.9,0.4c0.1-0.2,0.1-0.5,0.1-0.8
		c-0.2,0-0.6,0-0.7,0.1c-0.7,0.7-1.4,1-2.3,0.6C194.4,10,194.3,9.1,194.2,8z M276.7,8c1.1,0,2.2,0,3.4,0c0.3,0,0.8-0.4,0.8-0.6
		c0.2-1-0.8-2.3-1.8-2.7c-1.2-0.4-2.4-0.1-3.1,1s-0.8,2.4-0.5,3.7c0.6,2.3,3.4,3,5.1,1.3c0.2-0.2,0.2-0.6,0.3-0.9
		c-0.3,0.1-0.6,0.2-0.8,0.3c-0.5,0.2-0.9,0.5-1.4,0.6C277.5,10.6,276.9,9.8,276.7,8z M166.2,41.3c1.1,0,2.2,0,3.3,0
		c0.3,0,0.8-0.3,0.8-0.6c0.2-1.4-1.1-2.7-2.5-2.8c-2.4-0.2-3.4,2.4-2.9,4.7c0.2,1.1,0.8,1.9,1.9,2.2c1.2,0.3,2.3,0.1,3.2-0.8
		c0.2-0.2,0.2-0.6,0.2-0.9c-0.3,0.1-0.7,0-0.8,0.2c-0.7,0.6-1.4,0.9-2.2,0.5C166.4,43.2,166.2,42.3,166.2,41.3z M201.6,24.7
		c1.2,0,2.3,0,3.4,0c0.5,0,0.7-0.2,0.7-0.7c0-1.1-0.8-2.3-1.9-2.7c-1.3-0.4-2.4,0-3.1,1.2c-0.7,1.3-0.7,2.6-0.2,4
		c0.9,2.3,3.9,2,5,0.7c0.1-0.2,0.1-0.5,0.2-0.8c-0.3,0.1-0.6,0-0.8,0.2c-0.7,0.7-1.4,0.9-2.2,0.5C201.8,26.7,201.5,25.8,201.6,24.7z
		 M202.2,4.6c-1,0-1.7,0.5-1.9,1.5s0.2,1.8,1.1,2.2c0.7,0.3,1.4,0.5,2.1,0.8c0.3,0.1,0.6,0.6,0.5,0.8c-0.1,0.3-0.5,0.7-0.8,0.7
		c-0.4,0-0.9-0.2-1.3-0.4c-0.4-0.2-0.6-0.6-0.9-0.9c-0.2-0.1-0.4-0.2-0.6-0.2c-0.1,0.2-0.2,0.4-0.2,0.6c0.1,0.5,0.4,1,0.6,1.5
		c0.1,0.1,0.3,0.3,0.5,0.3c0.5,0.1,1,0,1.5,0.1c1.1,0.2,2.2-0.4,2.5-1.4c0.3-1.1-0.1-2-1.3-2.5c-0.6-0.2-1.2-0.4-1.8-0.6
		c-0.5-0.2-1-0.5-0.6-1c0.2-0.3,0.9-0.6,1.2-0.4c0.5,0.2,0.9,0.8,1.4,1.1c0.2,0.1,0.5,0.1,0.8,0.1c-0.4-0.7-0.6-1.5-1.1-2.1
		C203.6,4.4,202.8,4.6,202.2,4.6z M174.3,37.9c-1.1-0.1-1.8,0.5-2,1.5c-0.2,0.9,0.2,1.7,1.2,2.1c0.6,0.2,1.2,0.4,1.7,0.6
		s1.1,0.5,0.8,1.2s-0.9,0.8-1.5,0.5s-1-0.8-1.6-1.2c-0.2-0.1-0.5-0.1-0.7-0.2c0,0.3,0,0.7,0.1,1c0.2,0.5,0.4,1.2,0.8,1.3
		c0.6,0.2,1.3,0.1,2,0.2c1.1,0,1.9-0.6,2.1-1.6c0.2-1-0.2-1.8-1.2-2.2c-0.6-0.3-1.3-0.4-1.9-0.6c-0.5-0.2-1-0.5-0.6-1
		c0.2-0.3,0.9-0.5,1.2-0.4c0.5,0.2,0.9,0.7,1.4,1c0.2,0.1,0.5,0.1,0.8,0.2c-0.3-0.7-0.5-1.6-1-2.1C175.6,37.6,174.8,37.9,174.3,37.9
		z M181.1,19.3c0.3,0.1,0.5,0.2,0.6,0.2c0.4,0,0.8,0,1.1-0.1c0.1-0.1,0.2-0.7,0.1-0.8c-0.3-0.2-0.7-0.5-1-0.5c-1,0-1.6,0.7-1.9,1.5
		c-0.2,0.6-0.3,1.2-0.4,1.7c-0.5,0.3-0.9,0.5-1.3,0.7c0.4,0.2,0.9,0.4,1.4,0.7c0,1.2,0,2.4,0,3.7c0,0.3-0.4,0.5-0.7,0.7
		c-0.2,0.2-0.4,0.3-0.5,0.5c0.2,0.1,0.4,0.4,0.6,0.4c0.9,0,1.8,0,2.7,0c0.2,0,0.4-0.2,0.6-0.4c-0.2-0.2-0.4-0.4-0.6-0.5
		c-0.3-0.2-0.7-0.4-0.8-0.5c-0.1-1.4,0-2.7,0-3.9c0.6-0.3,1.1-0.4,1.5-0.6c-0.5-0.2-1-0.5-1.6-0.8C181,20.8,181.1,20.1,181.1,19.3z
		 M215.4,24.8c0,1.5,0.5,2.6,1.6,3.1c1.2,0.5,2.4,0.4,3.5-0.5c0.3-0.2,0.3-0.7,0.5-1.1c-0.3,0.1-0.7,0.1-1,0.3c-1.3,1-2.8,0.5-3-1.1
		c-0.1-0.7,0-1.6,0.2-2.3c0.2-0.5,0.7-0.9,1.2-1.1c0.1-0.1,0.6,0.6,0.9,0.8c0.3,0.2,0.7,0.3,1.1,0.4c0.1-0.4,0.3-0.9,0.2-1.2
		c-0.1-0.3-0.6-0.6-1-0.8C217.3,20.6,215.4,22.3,215.4,24.8z M188.8,24.9c0,1.5,0.6,2.6,1.7,3.1c1.2,0.5,2.4,0.4,3.4-0.5
		c0.3-0.2,0.3-0.7,0.5-1.1c-0.3,0.1-0.7,0.1-1,0.3c-1.3,1-2.8,0.5-3-1.1c-0.1-0.7-0.1-1.5,0.2-2.2c0.2-0.5,0.6-1,1.1-1.2
		c0.6-0.3,0.7,0.4,1,0.8c0.2,0.2,0.7,0.3,1,0.4c0.1-0.4,0.5-0.9,0.3-1.1c-0.2-0.4-0.7-0.8-1.1-0.9C190.7,20.6,188.8,22.3,188.8,24.9
		z M167.4,21.8c-0.3-0.7-1.8-0.8-2.3-0.1c-0.1,0.1,0.1,0.6,0.2,0.6c0.9,0,0.8,0.6,0.8,1.2c0,0.9,0,1.8,0,2.7c0,0.5,0,0.9-0.6,0.9
		c-0.2,0-0.3,0.3-0.5,0.4c0.2,0.1,0.3,0.4,0.5,0.4c0.9,0,1.8,0,2.7,0c0.2,0,0.3-0.3,0.5-0.4c-0.1-0.2-0.3-0.5-0.4-0.5
		c-1,0.1-0.9-0.6-0.9-1.2s0-1.2,0-1.8c0.1-1.1,0.8-1.6,1.9-1.5c0.3,0,0.7-0.4,1-0.6c-0.3-0.3-0.6-0.9-0.8-0.9
		C168.7,21.2,168.1,21.6,167.4,21.8z M179.6,39.2c0,1.2-0.1,2.4,0,3.6c0.1,0.6,0.3,1.6,0.7,1.7c0.6,0.2,1.5,0,2.2-0.2
		c0.2-0.1,0.3-0.6,0.5-0.9c-0.3,0-0.6,0.1-0.9,0.2c-0.5,0.2-1.2,0.6-1.2-0.4c-0.1-1.4,0-2.7,0-4.2c0.5,0,0.9,0,1.3,0
		c0.2,0,0.4-0.3,0.6-0.4c-0.2-0.1-0.4-0.4-0.6-0.4c-0.4-0.1-0.9,0-1.4,0c0-0.6,0-1.1,0-1.6c0-0.2-0.2-0.4-0.4-0.5
		c-0.2,0.2-0.4,0.3-0.5,0.5c-0.2,0.4-0.3,1-0.6,1.3C178.5,38.7,178.5,38.7,179.6,39.2z M186.7,21.1c-0.7,0.2-1.2,0.3-1.7,0.5
		s-0.6,0.6-0.1,0.8c0.6,0.2,0.6,0.6,0.6,1c0,1,0,2,0,3c0,0.3-0.3,0.6-0.5,0.9c-0.1,0.2-0.3,0.3-0.3,0.5s0.3,0.4,0.4,0.4
		c0.7,0,1.4,0,2.2,0c0.1,0,0.3-0.2,0.4-0.4c0-0.1-0.1-0.4-0.2-0.4c-0.9-0.1-0.7-0.8-0.7-1.3C186.6,24.4,186.7,22.8,186.7,21.1z
		 M198,24.2c0-0.7,0-1.4,0-2.1c0-0.3-0.3-0.9-0.3-0.9c-0.6,0.1-1.1,0.4-1.7,0.5c0.2,0.2,0.4,0.5,0.7,0.7c0.1,0.1,0.1,0.2,0.1,0.2
		c0,1.4,0,2.7,0,4.1c0,0.1-0.3,0.3-0.5,0.4c-0.1,0.1-0.3,0.3-0.2,0.5c0,0.1,0.3,0.3,0.4,0.3c0.7,0,1.4,0,2,0c0.2,0,0.4-0.2,0.4-0.3
		c0-0.1-0.1-0.5-0.2-0.5c-0.9-0.1-0.6-0.7-0.7-1.2C198,25.4,198,24.8,198,24.2z M216.6,7.9c0.4,0,0.9,0.1,1.3,0
		c0.2,0,0.4-0.3,0.6-0.5c-0.2-0.2-0.4-0.5-0.6-0.6c-0.9-0.1-1.8-0.1-2.6,0c-0.2,0-0.4,0.4-0.6,0.6c0.2,0.2,0.4,0.5,0.6,0.5
		C215.8,8,216.2,7.9,216.6,7.9z M187.2,19.2c-0.5-0.5-0.8-0.9-1.1-0.9s-0.6,0.4-0.9,0.7c0.3,0.3,0.5,0.8,0.8,0.9
		C186.2,19.9,186.6,19.5,187.2,19.2z M198.6,19c-0.6-0.4-1-0.7-1.3-0.7c-0.3,0.1-0.8,0.5-0.7,0.8c0,0.3,0.5,0.7,0.8,0.7
		C197.7,19.9,198.1,19.4,198.6,19z"/>
	<path d="M71.4,27.4c0,0.4,0,0.8,0,1.1c0,4.8,0,9.6,0,14.4c0,1.4-0.8,2.5-2,2.9s-2.6,0-3.3-1.1c-0.4-0.6-0.6-1.4-0.6-2.1
		c0-13,0-25.9,0-38.9c0-1.2,0.3-2.3,1.6-2.9c1.3-0.6,2.6-0.3,3.7,0.7c0.2,0.2,0.6,0.4,1,0.4c7.7,0,15.5,0,23.2,0
		c0.4,0,0.8-0.2,1.1-0.5c1-0.9,2.2-1.1,3.4-0.6c1.2,0.4,1.7,1.4,1.7,2.6c0,7.4,0,14.9,0,22.3c0,1.2-0.4,2.2-1.6,2.6
		s-2.4,0.4-3.5-0.6c-0.3-0.3-0.7-0.5-1.1-0.5c-7.6,0-15.1,0-22.7,0C72,27.3,71.7,27.4,71.4,27.4z M95.1,23.2c0-5.7,0-11.3,0-16.9
		c-7.9,0-15.8,0-23.6,0c0,5.7,0,11.3,0,16.9C79.4,23.2,87.2,23.2,95.1,23.2z"/>
	<path d="M130,6.4c0,0.6,0,1,0,1.4c0,11.7,0,23.3,0,35c0,2.1-1.4,3.5-3.3,3.3c-1.5-0.1-2.5-1.2-2.7-2.7c0-0.4,0-0.8,0-1.1
		c0-11.5,0-23,0-34.4c0-0.4,0-0.8,0-1.3c-0.5,0-0.8-0.1-1.2-0.1c-3.8,0-7.6,0-11.4,0c-1.7,0-2.4-0.7-2.4-2.1c0-1.5,0.8-2.2,2.4-2.2
		c8.7,0,17.3,0,26,0c0.7,0,1.1-0.1,1.5-0.8c0.7-1.2,2.4-1.7,3.8-1.1c1.3,0.6,2.2,2.1,1.9,3.5c-0.3,1.5-1.5,2.6-3.1,2.6
		c-3.5,0-6.9,0-10.4,0C130.8,6.4,130.5,6.4,130,6.4z"/>
	<path d="M33.1,40.3c6,0,11.8,0,17.6,0c1.3-2.2,3.6-2.7,5.2-1.2c1,0.9,1.3,2.1,0.9,3.4c-0.4,1.3-1.4,2-2.7,2.2c-0.4,0-0.8,0-1.1,0
		c-6.4,0-12.8,0-19.1,0c-0.6,0-1.1,0.1-1.6,0.6c-1,1-2.2,0.9-3.5,0.5c-1.1-0.4-1.5-1.4-1.5-2.6c0-1.6,0-3.2,0-4.7
		c0-11.5,0-22.9,0-34.4c0-2.3,1.7-3.8,3.8-3.3c1.2,0.3,2.1,1.3,2.2,2.6c0,0.3,0,0.6,0,0.9c0,11.6,0,23.1,0,34.7
		C33.1,39.4,33.1,39.8,33.1,40.3z"/>
	<path d="M15,3.7c-0.1,0.6-0.1,1.1-0.3,1.4c-0.7,1-0.5,2.1-0.5,3.3c0,10.6-0.3,21.2-1,31.7c-0.6,9.1-3.8,17-9.8,23.9
		c-0.1,0.1-0.2,0.2-0.3,0.3c-0.8,0.8-1.7,1-2.4,0.5c-0.6-0.5-0.6-1.4-0.2-2.3c1.2-2.3,2.4-4.5,3.4-6.9c2.8-7.1,3.8-14.5,4-22.1
		c0.2-7.9,0.3-15.9,0.3-23.8c0-1.8-0.1-3.6-0.2-5.4c0-1.7,0.8-2.9,2.2-3.4s3-0.1,4,1.1C14.6,2.4,14.8,3.2,15,3.7z"/>
	<path d="M244.5,10.7c0.1-0.6,0.2-1.3,0.3-2.2c-0.6-0.7-0.8-1.8,0-2.9s1.8-1.3,3.4-0.8c0.3,0.1,0.7-0.2,1-0.2c0.4,0,0.8-0.1,1.2,0
		c0.2,0.1,0.4,0.6,0.3,0.8c-0.2,0.3-0.6,0.5-1.1,0.9c0.2,0.8,0.2,1.9-0.8,2.5c-0.8,0.5-1.9,0.6-2.9,1c0.6,0.1,1.1,0.2,1.7,0.3
		c0.5,0.1,1.1,0.1,1.6,0.4c0.4,0.2,0.9,0.7,0.9,1.2s-0.3,1.2-0.7,1.4c-1.5,0.9-3.1,0.9-4.7,0.2c-1.1-0.5-1-1.4,0.1-2.3
		C244.7,10.8,244.6,10.7,244.5,10.7z M248.3,7.1c0-0.9-0.6-1.7-1.3-1.7s-1.2,0.7-1.2,1.6s0.5,1.6,1.2,1.6S248.3,8,248.3,7.1z
		 M246.8,13c0.1-0.1,0.1-0.1,0.2-0.2c0.5-0.1,0.9-0.1,1.4-0.3c0.2-0.1,0.4-0.4,0.6-0.6c-0.2-0.2-0.4-0.4-0.7-0.5
		c-0.4-0.1-0.8-0.3-1.2-0.2c-0.6,0.2-1.2,0.5-1.9,0.8C245.7,12.3,246.3,12.6,246.8,13z"/>
	<path d="M269.5,9.7c0.2,0.1,0.5,0.1,0.7,0.2c0.8,0.1,1.7,0.2,2.4,0.5c0.5,0.2,1,0.8,1.1,1.2c0,0.5-0.4,1.2-0.8,1.5
		c-1.5,0.9-3.1,0.9-4.7,0.1c-0.9-0.5-1-1.2-0.3-1.9c0.3-0.3,0.3-0.5,0.2-0.9c-0.1-0.5,0.2-1,0.3-1.7c-0.6-0.7-0.8-1.8-0.1-2.9
		c0.6-0.9,1.4-1.3,2.5-1.1c0.8,0.2,1.6,0.4,2.4-0.1c0.2-0.1,0.9,0.3,1,0.6c0.2,0.8-0.5,0.9-1.2,0.8c0.3,1.1,0.3,2.2-0.7,2.8
		C271.5,9.3,270.4,9.4,269.5,9.7z M271.8,7.1c0-1-0.5-1.7-1.2-1.7s-1.2,0.7-1.3,1.6c0,0.9,0.5,1.6,1.2,1.6S271.7,8,271.8,7.1z
		 M268.6,12c0.8,0.8,2.6,1,3.4,0.4c0.2-0.1,0.3-0.7,0.1-0.9C271.4,10.8,269.4,11.1,268.6,12z"/>
	<path d="M158.7,23.6c0,0.9,0,1.7,0,2.4c0,0.6,0,1.1,0.8,1.1c0.2,0,0.3,0.3,0.5,0.4c-0.2,0.2-0.4,0.4-0.6,0.4c-0.9,0-1.8,0-2.8,0
		c-0.2,0-0.4-0.3-0.6-0.4c0.2-0.2,0.3-0.5,0.5-0.5c0.7,0,0.8-0.5,0.8-1c0-1.9,0-3.9,0-5.8c0-0.6-0.1-1-0.8-1.1
		c-0.2,0-0.3-0.3-0.5-0.5c0.2-0.1,0.4-0.3,0.6-0.3c1.4,0,2.9-0.1,4.3,0c1.5,0.1,2.6,1.2,2.6,2.5c0,1.4-1,2.6-2.5,2.7
		C160.4,23.7,159.6,23.6,158.7,23.6z M158.7,22.7c0.3,0,0.5,0.1,0.7,0.1c0.4,0,0.8,0,1.2,0c0.9-0.1,1.6-0.7,1.5-1.6
		c-0.1-0.6-0.4-1.4-0.8-1.6c-0.7-0.3-1.6-0.2-2.4-0.2c-0.1,0-0.2,0.3-0.2,0.4C158.7,20.7,158.7,21.7,158.7,22.7z"/>
	<path d="M171.7,11.2c0,0.7-0.4,1.5,0.7,1.7c0.1,0,0.2,0.3,0.2,0.4c-0.1,0.2-0.3,0.4-0.5,0.4c-0.7,0-1.4,0-2,0
		c-0.2,0-0.5-0.2-0.5-0.3c0-0.2,0.2-0.4,0.3-0.6c0.2-0.3,0.5-0.6,0.5-0.8c0-2,0-4,0-5.8c-0.3-0.5-0.6-0.8-0.8-1.1
		c0.7-0.2,1.3-0.4,2-0.5c0.3-0.1,0.6,0.1,0.9,0.1c0.5,0,1-0.2,1.5-0.1c1.6,0.3,2.5,2.3,2,4.5c-0.4,1.9-1.6,2.7-3.4,2.3
		C172.3,11.4,172,11.3,171.7,11.2z M171.6,8.1L171.6,8.1c0,0.3,0,0.5,0,0.8c-0.1,0.8,0.2,1.3,1,1.5c0.9,0.1,1.4-0.2,1.7-1
		c0.4-1.1,0.5-2.2-0.2-3.1c-0.3-0.4-1-0.7-1.4-0.6s-0.9,0.7-1.1,1.1C171.5,7.2,171.6,7.7,171.6,8.1z"/>
	<path d="M159.4,35.9c-1.4-0.3-2.2,0-2.8,1.2c-0.1,0.2-0.5,0.4-0.7,0.5c0-0.3-0.2-0.6-0.1-0.9c0-0.3,0.2-0.6,0.3-1
		c0.2-0.7,0.5-0.9,1.2-0.9c1.9,0,3.8,0,5.6,0c0.7,0,1.9,2,1.5,2.5s-0.7,0.1-0.9-0.3c-0.5-1.2-1.4-1.6-2.8-1.3c0,0.9,0,1.8,0,2.8
		c0,1.3,0,2.6,0,3.9c0,0.7,0.1,1.1,0.9,1.2c0.2,0,0.4,0.3,0.6,0.4c-0.2,0.2-0.4,0.4-0.7,0.5c-1,0.1-2,0-3,0c-0.2,0-0.5-0.3-0.7-0.4
		c0.2-0.2,0.4-0.4,0.6-0.4c0.8,0,0.9-0.5,0.9-1.2C159.4,40.4,159.4,38.2,159.4,35.9z"/>
	<path d="M213.3,26.8c0.5,0.4,0.7,0.7,1,0.9c-0.3,0.1-0.6,0.3-1,0.4c-0.6,0.1-1.2,0-1.7,0c-0.2,0-0.4-0.2-0.6-0.3
		c0.1-0.2,0.3-0.4,0.4-0.6c0.2-0.2,0.5-0.4,0.5-0.7c0.1-1,0-2,0-3c0-0.6-0.1-1.3-0.9-1.2c-0.7,0-1.5,0.4-1.5,1.2c-0.1,1,0,2.1,0,3.1
		c0,0.2,0.3,0.4,0.5,0.6c0.1,0.2,0.3,0.3,0.4,0.5c-0.2,0.1-0.3,0.3-0.5,0.4c-0.6,0-1.3,0-1.9,0c-0.2,0-0.4-0.2-0.5-0.4
		c0-0.1,0.2-0.3,0.3-0.5c0.2-0.3,0.4-0.5,0.5-0.8c0.1-1,0-2.1,0-3.1c0-0.4,0.1-0.9-0.6-1c-0.1,0-0.2-0.5-0.1-0.6
		c0.5-0.6,1.7-0.5,2.2,0.1c0.2-0.1,0.4-0.2,0.6-0.3c1.7-0.6,2.9,0.2,2.9,2C213.3,24.6,213.3,25.8,213.3,26.8z"/>
	<path d="M187.1,5c0.3-0.1,0.6-0.3,0.8-0.4c1.5-0.5,2.6,0.3,2.7,1.8c0,1,0,2.1,0,3.1c0,0.5-0.1,0.9,0.6,0.9c0.1,0,0.4,0.3,0.3,0.4
		c-0.1,0.2-0.3,0.4-0.5,0.4c-0.8,0-1.5,0-2.3,0c-0.2,0-0.3-0.2-0.5-0.4c0.1-0.2,0.3-0.3,0.4-0.5c0.2-0.3,0.5-0.6,0.6-0.8
		c0.1-1,0.1-2,0-3c0-0.6-0.3-1.2-0.9-1c-0.6,0.2-1.3,0.7-1.4,1.1c-0.2,1-0.1,2.1,0,3.2c0,0.2,0.3,0.4,0.5,0.6
		c0.1,0.2,0.3,0.4,0.3,0.5s-0.3,0.3-0.4,0.3c-0.7,0-1.4,0-2.1,0c-0.2,0-0.4-0.2-0.4-0.3c0-0.1,0.2-0.3,0.2-0.5
		c0.2-0.3,0.5-0.6,0.5-0.9c0.1-1,0.1-2,0-3c0-0.3-0.4-0.7-0.5-1c-0.1-0.2-0.2-0.5-0.1-0.6C185.4,4.4,186.6,4.4,187.1,5z"/>
	<path d="M223.5,11.4c-0.9,0-1.8,0-2.7,0c-0.3,0-0.5-0.2-0.8-0.3c0.2-0.2,0.4-0.3,0.6-0.5c0.2-0.3,0.6-0.6,0.6-0.9
		c0.1-2.1,0-4.1,0-6.2c0-0.6-0.2-0.9-0.8-1c-0.2,0-0.3-0.3-0.4-0.4c0.2-0.1,0.3-0.4,0.5-0.4c1,0,1.9,0,2.9,0c0.2,0,0.3,0.2,0.5,0.4
		c-0.2,0.2-0.3,0.4-0.5,0.5c-0.7,0-0.8,0.4-0.8,1c0,2.1,0,4.1,0,6.2c0,0.6,0.2,0.8,0.8,0.9c1.4,0.1,2.6-0.3,3.3-1.6
		c0.1-0.2,0.5-0.2,0.7-0.4c0,0.2,0.1,0.5,0.1,0.7v0.1c-0.6,2-0.6,2-2.7,2C224.4,11.4,224,11.4,223.5,11.4z"/>
	<path d="M265.3,10.1c0.4,0.2,0.7,0.4,1,0.6c-0.1,0.2-0.2,0.4-0.4,0.5c-0.7,0.5-1.4,0.3-1.8-0.3c-0.8,0.2-1.4,0.5-2.1,0.5
		c-0.8,0.1-1.4-0.3-1.7-1.1c-0.3-0.8,0-1.5,0.6-1.9c0.7-0.5,1.5-0.9,2.4-1.2c0.5-0.2,0.9-0.4,0.7-0.9c-0.2-0.4-0.5-0.9-0.9-1
		c-0.3-0.1-0.7,0.3-1,0.6c-0.3,0.2-0.5,0.6-0.8,0.8c-0.1,0.1-0.7-0.4-0.7-0.5c0.1-0.4,0.2-0.9,0.5-1.2c0.8-0.7,1.8-0.7,2.8-0.5
		c1,0.3,1.4,1,1.4,2c0,0.6,0,1.2,0,1.8C265.3,9.1,265.3,9.6,265.3,10.1z M263.8,8c-0.7,0.4-1.3,0.7-1.9,1.1
		c-0.2,0.2-0.3,0.7-0.2,0.9c0.2,0.2,0.6,0.4,0.9,0.4C263.8,10.3,264.1,9.6,263.8,8z"/>
	<path d="M240.7,10.1c0-1,0-2.1,0-3.3c0-0.6-0.1-1.3-1-1.3c-0.7,0-1.5,0.7-1.5,1.4c0,1.1,0,2.2,0,3.4c0.2,0.1,0.4,0.1,0.5,0.2
		c0.2,0.1,0.3,0.3,0.3,0.5c0,0.1-0.3,0.3-0.4,0.3c-0.7,0-1.4,0-2.1,0c-0.2,0-0.4-0.2-0.4-0.3c0-0.1,0.1-0.3,0.2-0.5
		c0.2-0.3,0.5-0.7,0.5-1c0.1-1.2,0-2.4,0-3.4c-0.4-0.4-0.6-0.7-0.8-0.9c0.4-0.2,0.8-0.5,1.2-0.6c0.3-0.1,0.7,0.2,1,0.5
		c0.5-0.2,0.9-0.4,1.4-0.5c1.3-0.2,2.1,0.6,2.2,1.9c0,1,0,2.1,0,3.1c0,0.5-0.1,1,0.7,1c0.1,0,0.3,0.3,0.3,0.4
		c-0.1,0.2-0.3,0.4-0.5,0.4c-0.5,0.1-1.1,0.1-1.6,0c-0.4,0-0.8-0.3-1.1-0.4C239.9,10.7,240.2,10.5,240.7,10.1z"/>
	<path d="M182.6,10.1c0.4,0.2,0.7,0.4,1,0.6c-0.1,0.2-0.2,0.5-0.4,0.5c-0.6,0-1.3,0-1.9-0.2c-0.7,0.2-1.4,0.5-2,0.4
		s-1.2-0.6-1.6-1.1c-0.4-0.7-0.1-1.5,0.5-1.9c0.7-0.5,1.6-0.8,2.4-1.2c0.3-0.2,0.7-0.6,0.7-0.7c-0.2-0.4-0.5-0.9-0.9-1.1
		c-0.2-0.1-0.7,0.3-1,0.6c-0.1,0.1,0,0.3-0.1,0.4c-0.3,0.2-0.7,0.5-1,0.4c-0.2-0.1-0.4-0.6-0.4-1c0-0.3,0.3-0.6,0.6-0.8
		c0.9-0.6,1.9-0.7,3-0.3c0.9,0.3,1.2,1,1.2,1.8C182.6,7.8,182.6,9,182.6,10.1z M181.3,8c-0.7,0.4-1.4,0.8-2,1.2
		c-0.2,0.1-0.3,0.7-0.2,0.9c0.2,0.2,0.6,0.4,0.9,0.4C181.1,10.3,181.5,9.6,181.3,8z"/>
	<path d="M167.4,10.1c0.4,0.2,0.7,0.4,1,0.6c-0.1,0.2-0.2,0.5-0.4,0.5c-0.6,0-1.3,0-1.9-0.2c-0.6,0.2-1.3,0.4-1.9,0.5
		c-0.7,0-1.4-0.3-1.7-1.1c-0.3-0.8,0-1.5,0.7-2s1.6-0.7,2.4-1.2c0.3-0.1,0.6-0.5,0.6-0.7c-0.1-0.4-0.4-0.9-0.8-1.1
		c-0.3-0.1-0.8,0.2-1.1,0.4c-0.1,0.1,0,0.4-0.1,0.5c-0.3,0.2-0.7,0.5-1,0.4c-0.2-0.1-0.5-0.6-0.4-0.9c0-0.3,0.4-0.7,0.7-0.8
		c0.9-0.2,1.8-0.4,2.7-0.3c1,0.1,1.4,0.9,1.4,1.9C167.4,7.8,167.4,9,167.4,10.1z M166,8c-0.7,0.4-1.3,0.7-1.9,1.1
		c-0.2,0.2-0.2,0.7-0.3,1.1c0.4,0.1,0.8,0.3,1.1,0.2C166.1,10.1,166.3,9.6,166,8z"/>
	<path d="M158.1,12.8c0.2-0.7,0.4-1.2,0.4-1.7c0-2.5,0-5.1,0-7.6c0-0.7-0.4-0.9-0.9-1c-0.2-0.1-0.5-0.3-0.7-0.4
		c0.3-0.2,0.5-0.4,0.8-0.4c0.9-0.1,1.8,0,2.8,0c0.2,0,0.5,0.3,0.7,0.4c-0.2,0.2-0.3,0.4-0.6,0.4c-0.7,0.1-0.7,0.6-0.7,1.1
		c0,2.4,0,4.7,0,7.1c0,1.7-0.7,2.6-2.3,2.9c-0.4,0.1-0.8,0-1.2-0.1c-0.3-0.1-0.6-0.5-0.7-0.8c0-0.2,0.2-0.7,0.5-0.8
		c0.3-0.1,0.7,0.1,1,0.2C157.5,12.2,157.6,12.4,158.1,12.8z"/>
	<path d="M233.9,10c0.4,0.3,0.7,0.5,1,0.7c-0.1,0.2-0.3,0.5-0.4,0.5c-0.6,0-1.2,0-1.8-0.3c-0.7,0.2-1.3,0.5-1.9,0.5
		c-0.6-0.1-1.4-0.5-1.7-1c-0.4-0.7-0.1-1.5,0.6-2c0.9-0.6,1.9-1,3-1.5c0-0.2,0-0.6-0.1-0.8c-0.2-0.3-0.6-0.7-0.9-0.6
		c-0.3,0-0.8,0.4-0.9,0.7c-0.3,0.6-0.6,0.9-1.2,0.6c-0.3-0.2-0.4-0.9-0.3-1.2c0.3-0.8,2-1.3,3.1-1c1,0.2,1.5,0.9,1.5,2
		C233.9,7.8,233.9,9,233.9,10z M232.5,8c-0.7,0.4-1.4,0.7-1.9,1.2c-0.2,0.2-0.4,0.8-0.3,0.9c0.2,0.2,0.7,0.4,1,0.3
		C232.5,10.2,232.7,9.6,232.5,8z"/>
	<path d="M258,4.4c0,1.9,0,3.5,0,5.1c0,0.5-0.1,1,0.7,1c0.1,0,0.3,0.3,0.3,0.4s-0.2,0.4-0.4,0.4c-0.6,0-1.2-0.1-1.8-0.2
		c-0.3,0-0.6,0-0.8,0.1c-1.9,0.8-3.2,0-3.2-2.1c0-0.8,0-1.6,0-2.5c0-0.5,0.2-1.1-0.6-1.1c-0.1,0-0.2-0.3-0.2-0.4
		c0.5-0.2,1-0.5,1.5-0.6c0.2,0,0.6,0.4,0.6,0.6c0.1,1.3,0,2.5,0,3.8c0,0.7,0,1.4,1,1.5c0.8,0.1,1.7-0.8,1.8-1.6c0-1,0-2.1,0-3.1
		c-0.2-0.1-0.4-0.1-0.6-0.2s-0.3-0.3-0.5-0.4c0.1-0.2,0.2-0.4,0.4-0.5C256.6,4.6,257.2,4.5,258,4.4z"/>
	<path d="M224.3,29.2c0.7-1,1-1.8,0.4-2.9c-0.6-1-1-2.1-1.5-3.1c-0.2-0.4-0.6-0.6-0.8-0.9c-0.1-0.1-0.3-0.4-0.3-0.5
		c0.1-0.2,0.3-0.4,0.5-0.4c0.5-0.1,1-0.1,1.5,0c0.4,0,0.7,0.2,1.1,0.3c-0.2,0.3-0.5,0.5-0.8,0.9c0.3,0.7,0.6,1.5,1,2.3
		c0.1,0.2,0.2,0.4,0.4,0.8c0.5-1.2,0.8-2.2,1.3-3.2c-0.2-0.1-0.4-0.1-0.6-0.2c-0.2-0.1-0.3-0.3-0.4-0.5c0.2-0.1,0.3-0.4,0.5-0.4
		c0.6,0,1.3,0,2,0c0.2,0,0.4,0.2,0.5,0.4c0,0.1-0.2,0.3-0.3,0.4c-0.3,0.3-0.7,0.6-0.8,0.9c-0.8,1.9-1.5,3.8-2.3,5.7
		c-0.4,1-1.1,1.5-2.1,1.4c-0.3,0-0.7-0.3-0.9-0.5c-0.1-0.1,0-0.7,0.1-0.7c0.3-0.1,0.7-0.1,1,0C223.9,29,224.1,29.1,224.3,29.2z"/>
	<path d="M208.4,8c0.1,1,0.3,1.9,1.2,2.4c0.9,0.4,1.7,0.1,2.3-0.6c0.1-0.1,0.5-0.1,0.7-0.1c0,0.3,0,0.6-0.2,0.8
		c-1.3,1.7-4.2,1.3-5-0.7c-0.5-1.3-0.5-2.7,0.2-4c0.6-1.1,1.8-1.6,3.1-1.2c1.1,0.3,2.1,1.7,1.9,2.8c0,0.2-0.5,0.6-0.8,0.6
		c-0.5,0.1-1.1,0-1.6,0C209.5,8,209,8,208.4,8z M211.2,7.1c-0.1-1-0.5-1.7-1.4-1.6c-0.8,0.1-1.2,0.7-1.2,1.6
		C209.4,7.1,210.2,7.1,211.2,7.1z"/>
	<path d="M174,28.2c-1.8,0-3-1.3-3-3.4s1.3-3.5,3.1-3.5s3,1.5,3,3.5S175.8,28.2,174,28.2z M175.7,24.8c-0.1-0.6-0.1-1.1-0.3-1.5
		c-0.3-0.5-0.9-1.1-1.3-1.1c-0.5,0-1.2,0.6-1.4,1.1c-0.5,1-0.5,2.2,0.1,3.2c0.2,0.4,0.8,0.8,1.3,0.8c0.4,0,1-0.4,1.2-0.9
		C175.6,26,175.6,25.3,175.7,24.8z"/>
	<path d="M194.2,8c0.1,1,0.2,1.9,1.2,2.4c0.9,0.4,1.6,0.1,2.3-0.6c0.1-0.1,0.5-0.1,0.7-0.1c0,0.3,0,0.6-0.1,0.8
		c-1.2,1.5-4,1.3-4.9-0.4c-0.7-1.4-0.7-2.9,0.1-4.2c0.6-1.2,1.8-1.6,3.1-1.2c1.1,0.3,2.1,1.7,1.9,2.7c0,0.2-0.5,0.6-0.8,0.6
		c-0.5,0.1-1.1,0-1.6,0C195.4,8,194.9,8,194.2,8z M197,7c-0.1-0.9-0.5-1.6-1.3-1.6c-0.9,0-1.2,0.7-1.3,1.6C195.2,7,196.1,7,197,7z"
		/>
	<path d="M276.7,8c0.1,1.8,0.7,2.6,1.9,2.5c0.5,0,0.9-0.4,1.4-0.6c0.3-0.1,0.6-0.2,0.8-0.3c-0.1,0.3-0.1,0.7-0.3,0.9
		c-1.6,1.7-4.4,1-5.1-1.3c-0.3-1.3-0.3-2.5,0.5-3.7c0.7-1.1,1.9-1.4,3.1-1c1,0.4,2,1.7,1.8,2.7c0,0.3-0.5,0.6-0.8,0.6
		C279,8.1,277.9,8,276.7,8z M276.8,7c1,0,1.8,0,2.7,0c-0.1-0.9-0.4-1.6-1.3-1.6C277.3,5.4,277,6.1,276.8,7z"/>
	<path d="M166.2,41.3c0,1.1,0.2,1.9,1.1,2.4c0.8,0.5,1.6,0.1,2.2-0.5c0.2-0.2,0.6-0.1,0.8-0.2c-0.1,0.3-0.1,0.7-0.2,0.9
		c-0.9,0.9-2,1.1-3.2,0.8c-1.1-0.3-1.7-1.1-1.9-2.2c-0.5-2.3,0.5-4.9,2.9-4.7c1.4,0.1,2.7,1.4,2.5,2.8c0,0.2-0.5,0.6-0.8,0.6
		C168.4,41.3,167.4,41.3,166.2,41.3z M166.3,40.3c1,0,1.8,0,2.7,0c-0.1-0.9-0.4-1.6-1.4-1.6C166.7,38.7,166.4,39.4,166.3,40.3z"/>
	<path d="M201.6,24.7c-0.1,1.1,0.2,1.9,1.1,2.4c0.8,0.4,1.6,0.1,2.2-0.5c0.2-0.2,0.5-0.1,0.8-0.2c0,0.3,0,0.6-0.2,0.8
		c-1.1,1.3-4.2,1.6-5-0.7c-0.5-1.4-0.5-2.7,0.2-4c0.6-1.2,1.8-1.6,3.1-1.2c1.1,0.3,1.9,1.5,1.9,2.7c0,0.5-0.2,0.7-0.7,0.7
		C203.9,24.7,202.8,24.7,201.6,24.7z M204.3,23.8c-0.1-1.1-0.6-1.7-1.3-1.6c-0.7,0-1.2,0.6-1.2,1.6
		C202.6,23.8,203.5,23.8,204.3,23.8z"/>
	<path d="M202.2,4.6c0.6,0,1.4-0.2,1.6,0c0.5,0.5,0.8,1.4,1.1,2.1c-0.3,0-0.6,0.1-0.8-0.1c-0.5-0.3-0.9-0.9-1.4-1.1
		c-0.3-0.1-1,0.1-1.2,0.4c-0.3,0.5,0.1,0.9,0.6,1c0.6,0.2,1.2,0.4,1.8,0.6c1.1,0.5,1.6,1.4,1.3,2.5c-0.3,1-1.4,1.5-2.5,1.4
		c-0.5-0.1-1,0-1.5-0.1c-0.2,0-0.4-0.1-0.5-0.3c-0.2-0.5-0.4-1-0.6-1.5c0-0.2,0.1-0.4,0.2-0.6c0.2,0.1,0.4,0.1,0.6,0.2
		c0.3,0.3,0.6,0.7,0.9,0.9c0.4,0.2,0.9,0.4,1.3,0.4c0.3,0,0.7-0.4,0.8-0.7c0.1-0.2-0.2-0.7-0.5-0.8c-0.7-0.3-1.4-0.5-2.1-0.8
		c-0.9-0.4-1.3-1.2-1.1-2.2C200.5,5.1,201.2,4.5,202.2,4.6z"/>
	<path d="M174.3,37.9c0.6,0,1.4-0.2,1.6,0c0.5,0.6,0.7,1.4,1,2.1c-0.3-0.1-0.6-0.1-0.8-0.2c-0.5-0.3-0.9-0.8-1.4-1
		c-0.3-0.1-1,0.1-1.2,0.4c-0.3,0.5,0.1,0.9,0.6,1c0.6,0.2,1.3,0.4,1.9,0.6c1,0.4,1.4,1.2,1.2,2.2s-1,1.6-2.1,1.6
		c-0.7,0-1.4,0.1-2-0.2c-0.4-0.2-0.6-0.8-0.8-1.3c-0.1-0.3-0.1-0.6-0.1-1c0.3,0.1,0.5,0.1,0.7,0.2c0.5,0.4,1,0.9,1.6,1.2
		c0.5,0.3,1.2,0.2,1.5-0.5s-0.3-1-0.8-1.2c-0.6-0.2-1.2-0.4-1.7-0.6c-1-0.4-1.4-1.2-1.2-2.1C172.5,38.4,173.2,37.8,174.3,37.9z"/>
	<path d="M181.1,19.3c-0.1,0.8-0.2,1.5-0.2,2c0.6,0.3,1.1,0.6,1.6,0.8c-0.5,0.2-0.9,0.4-1.5,0.6c0,1.2,0,2.6,0,3.9
		c0,0.2,0.5,0.4,0.8,0.5c0.2,0.2,0.4,0.3,0.6,0.5c-0.2,0.1-0.4,0.4-0.6,0.4c-0.9,0-1.8,0-2.7,0c-0.2,0-0.4-0.3-0.6-0.4
		c0.2-0.2,0.4-0.3,0.5-0.5c0.2-0.2,0.7-0.5,0.7-0.7c0.1-1.3,0-2.5,0-3.7c-0.5-0.3-1-0.5-1.4-0.7c0.4-0.2,0.8-0.4,1.3-0.7
		c0.1-0.5,0.2-1.1,0.4-1.7c0.3-0.8,0.9-1.5,1.9-1.5c0.4,0,0.8,0.2,1,0.5c0.1,0.1,0.1,0.7-0.1,0.8c-0.3,0.2-0.7,0.1-1.1,0.1
		C181.6,19.5,181.5,19.4,181.1,19.3z"/>
	<path d="M215.4,24.8c0-2.6,2-4.2,4.1-3.4c0.4,0.1,0.9,0.4,1,0.8c0.1,0.3-0.1,0.8-0.2,1.2c-0.4-0.1-0.8-0.2-1.1-0.4
		c-0.4-0.2-0.8-0.9-0.9-0.8c-0.5,0.2-1,0.6-1.2,1.1c-0.2,0.7-0.3,1.6-0.2,2.3c0.3,1.6,1.8,2,3,1.1c0.3-0.2,0.7-0.2,1-0.3
		c-0.2,0.4-0.2,0.8-0.5,1.1c-1,0.9-2.2,1-3.5,0.5C215.9,27.4,215.3,26.3,215.4,24.8z"/>
	<path d="M188.8,24.9c0-2.6,1.9-4.2,4.1-3.5c0.4,0.2,0.9,0.5,1.1,0.9c0.1,0.2-0.2,0.7-0.3,1.1c-0.4-0.1-0.8-0.2-1-0.4
		c-0.3-0.4-0.4-1.1-1-0.8c-0.5,0.2-1,0.7-1.1,1.2c-0.2,0.7-0.3,1.5-0.2,2.2c0.2,1.6,1.7,2,3,1.1c0.3-0.2,0.7-0.2,1-0.3
		c-0.2,0.4-0.2,0.8-0.5,1.1c-1,0.8-2.2,1-3.4,0.5C189.4,27.5,188.8,26.4,188.8,24.9z"/>
	<path d="M167.4,21.8c0.6-0.2,1.3-0.6,1.9-0.7c0.2,0,0.6,0.6,0.8,0.9c-0.3,0.2-0.7,0.6-1,0.6c-1.1-0.1-1.8,0.4-1.9,1.5
		c0,0.6,0,1.2,0,1.8c0,0.6-0.1,1.3,0.9,1.2c0.1,0,0.3,0.3,0.4,0.5c-0.2,0.1-0.3,0.4-0.5,0.4c-0.9,0-1.8,0-2.7,0
		c-0.2,0-0.3-0.3-0.5-0.4c0.2-0.2,0.3-0.4,0.5-0.4c0.7,0,0.6-0.5,0.6-0.9c0-0.9,0-1.8,0-2.7c0-0.6,0.1-1.2-0.8-1.2
		c-0.1,0-0.2-0.5-0.2-0.6C165.6,21,167.1,21.2,167.4,21.8z"/>
	<path d="M179.6,39.2c-1.1-0.5-1.1-0.5-0.2-1.3c0.3-0.3,0.4-0.9,0.6-1.3c0.1-0.2,0.3-0.3,0.5-0.5c0.1,0.2,0.3,0.3,0.4,0.5
		c0.1,0.5,0,0.9,0,1.6c0.5,0,1,0,1.4,0c0.2,0,0.4,0.3,0.6,0.4c-0.2,0.1-0.4,0.4-0.6,0.4c-0.4,0.1-0.8,0-1.3,0c0,1.5-0.1,2.8,0,4.2
		c0.1,0.9,0.7,0.5,1.2,0.4c0.3-0.1,0.6-0.1,0.9-0.2c-0.2,0.3-0.3,0.9-0.5,0.9c-0.7,0.2-1.6,0.4-2.2,0.2c-0.4-0.2-0.7-1.1-0.7-1.7
		C179.5,41.6,179.6,40.4,179.6,39.2z"/>
	<path d="M186.7,21.1c0,1.8,0,3.3,0,4.9c0,0.5-0.2,1.2,0.7,1.3c0.1,0,0.2,0.3,0.2,0.4c-0.1,0.2-0.2,0.4-0.4,0.4c-0.7,0-1.4,0-2.2,0
		c-0.2,0-0.4-0.2-0.4-0.4c0-0.1,0.2-0.3,0.3-0.5c0.2-0.3,0.5-0.6,0.5-0.9c0.1-1,0-2,0-3c0-0.4,0-0.8-0.6-1c-0.5-0.2-0.4-0.6,0.1-0.8
		C185.4,21.3,185.9,21.2,186.7,21.1z"/>
	<path d="M198,24.2c0,0.6,0,1.2,0,1.8c0,0.5-0.2,1.2,0.7,1.2c0.1,0,0.3,0.3,0.2,0.5c0,0.1-0.3,0.3-0.4,0.3c-0.7,0-1.4,0-2,0
		c-0.2,0-0.4-0.2-0.4-0.3c0-0.1,0.1-0.4,0.2-0.5c0.1-0.2,0.5-0.3,0.5-0.4c0-1.4,0-2.7,0-4.1c0-0.1-0.1-0.2-0.1-0.2
		c-0.2-0.2-0.4-0.5-0.7-0.7c0.6-0.2,1.1-0.4,1.7-0.5c0,0,0.3,0.6,0.3,0.9C198.1,22.8,198,23.5,198,24.2z"/>
	<path d="M216.6,7.9c-0.4,0-0.8,0.1-1.2,0c-0.2-0.1-0.4-0.3-0.6-0.5c0.2-0.2,0.4-0.5,0.6-0.6c0.9-0.1,1.8-0.1,2.6,0
		c0.2,0,0.4,0.4,0.6,0.6c-0.2,0.2-0.4,0.5-0.6,0.5C217.5,8,217.1,7.9,216.6,7.9z"/>
	<path d="M187.2,19.2c-0.6,0.3-1,0.7-1.3,0.7c-0.3-0.1-0.5-0.6-0.8-0.9c0.3-0.2,0.6-0.7,0.9-0.7C186.4,18.3,186.7,18.7,187.2,19.2z"
		/>
	<path d="M198.6,19c-0.6,0.4-0.9,0.9-1.2,0.9s-0.8-0.5-0.8-0.7c0-0.3,0.4-0.8,0.7-0.8C197.6,18.2,198,18.6,198.6,19z"/>
	<path class="st1" d="M248.3,7.1c0,0.9-0.6,1.5-1.3,1.5s-1.2-0.7-1.2-1.6s0.6-1.6,1.2-1.6C247.7,5.4,248.3,6.2,248.3,7.1z"/>
	<path class="st1" d="M246.8,13c-0.5-0.4-1.1-0.7-1.6-1.1c0.6-0.3,1.2-0.6,1.9-0.8c0.4-0.1,0.8,0.1,1.2,0.2c0.3,0.1,0.5,0.3,0.7,0.5
		c-0.2,0.2-0.3,0.5-0.6,0.6c-0.4,0.2-0.9,0.2-1.4,0.3C246.9,12.9,246.9,13,246.8,13z"/>
	<path class="st1" d="M271.8,7.1c0,0.9-0.6,1.5-1.3,1.5c-0.7,0-1.2-0.7-1.2-1.6s0.6-1.6,1.3-1.6C271.2,5.4,271.8,6.1,271.8,7.1z"/>
	<path class="st1" d="M268.6,12c0.8-0.9,2.8-1.2,3.5-0.5c0.1,0.1,0,0.7-0.1,0.9C271.2,13.1,269.5,12.8,268.6,12z"/>
	<path class="st1" d="M158.7,22.7c0-1,0-1.9,0-2.9c0-0.1,0.1-0.4,0.2-0.4c0.8,0,1.7-0.1,2.4,0.2c0.4,0.2,0.8,1,0.8,1.6
		c0.1,0.9-0.6,1.5-1.5,1.6c-0.4,0-0.8,0-1.2,0C159.2,22.7,159,22.7,158.7,22.7z"/>
	<path class="st1" d="M171.6,8.1c0-0.4-0.1-1,0-1.3c0.2-0.5,0.7-1.1,1.1-1.1c0.4-0.1,1.1,0.3,1.4,0.6c0.7,1,0.6,2.1,0.2,3.1
		c-0.3,0.7-0.8,1.1-1.7,1s-1.1-0.7-1-1.5C171.7,8.7,171.6,8.4,171.6,8.1L171.6,8.1z"/>
	<path class="st1" d="M263.8,8c0.3,1.6-0.1,2.3-1.2,2.4c-0.3,0-0.8-0.1-0.9-0.4c-0.1-0.2,0-0.7,0.2-0.9C262.5,8.7,263.2,8.4,263.8,8
		z"/>
	<path class="st1" d="M181.3,8c0.2,1.6-0.2,2.4-1.3,2.5c-0.3,0-0.8-0.1-0.9-0.4c-0.1-0.2,0-0.7,0.2-0.9C179.9,8.7,180.5,8.4,181.3,8
		z"/>
	<path class="st1" d="M166,8c0.3,1.6,0.1,2.1-1.1,2.4c-0.3,0.1-0.7-0.1-1.1-0.2c0.1-0.4,0.1-0.9,0.3-1.1C164.7,8.6,165.3,8.4,166,8z
		"/>
	<path class="st1" d="M232.5,8c0.2,1.6,0,2.2-1.1,2.4c-0.3,0.1-0.8-0.1-1-0.3c-0.1-0.1,0-0.8,0.3-0.9C231.2,8.7,231.8,8.4,232.5,8z"
		/>
	<path class="st1" d="M211.2,7.1c-1,0-1.8,0-2.6,0c-0.1-0.9,0.3-1.6,1.2-1.6C210.7,5.4,211.1,6.1,211.2,7.1z"/>
	<path class="st1" d="M175.7,24.8c-0.1,0.5-0.1,1.1-0.4,1.6c-0.3,0.4-0.8,0.9-1.2,0.9s-1-0.4-1.3-0.8c-0.6-1-0.6-2.1-0.1-3.2
		c0.2-0.5,0.9-1.1,1.4-1.1s1,0.6,1.3,1.1C175.7,23.7,175.6,24.3,175.7,24.8z"/>
	<path class="st1" d="M197,7c-0.9,0-1.8,0-2.7,0c0.1-0.9,0.4-1.6,1.3-1.6C196.6,5.4,196.9,6.1,197,7z"/>
	<path class="st1" d="M276.8,7c0.1-0.9,0.4-1.6,1.4-1.6c0.9,0,1.2,0.7,1.3,1.6C278.6,7,277.8,7,276.8,7z"/>
	<path class="st1" d="M166.3,40.3c0.1-0.9,0.4-1.6,1.3-1.6c1,0,1.3,0.7,1.4,1.6C168.1,40.3,167.3,40.3,166.3,40.3z"/>
	<path class="st1" d="M204.3,23.8c-0.8,0-1.7,0-2.5,0c0-1,0.4-1.6,1.2-1.6C203.7,22.1,204.2,22.7,204.3,23.8z"/>
	<path class="st2" d="M87.6,14.7c0,2.4-1.8,4.3-4.3,4.3c-2.4,0-4.4-1.9-4.4-4.3s1.9-4.3,4.3-4.3C85.7,10.4,87.6,12.3,87.6,14.7z"/>
</g>
</svg>
