<svg version="1.1" id="图层_1" xmlns="http://www.w3.org/2000/svg" x="0" y="0" viewBox="0 0 280.9 65" style="enable-background:new 0 0 280.9 65" xml:space="preserve"><style>.st1{fill:#fff}</style><path d="M71.4 27.4c.3 0 .6-.1.8-.1h22.7c.4 0 .8.2 1.1.5 1 1 2.2 1 3.5.6 1.2-.4 1.6-1.4 1.6-2.6V3.5c0-1.2-.5-2.2-1.7-2.6S97 .6 96 1.5c-.3.3-.7.5-1.1.5H71.7c-.3 0-.7-.2-1-.4C69.6.6 68.3.3 67 .9c-1.3.5-1.6 1.6-1.6 2.9v38.9c0 .7.3 1.5.6 2.1.7 1.1 2.1 1.5 3.3 1.1 1.2-.4 2-1.5 2-2.9V28.6c.1-.4.1-.8.1-1.2zm58.6-21h11.6c1.6 0 2.8-1.1 3.1-2.6.3-1.4-.6-3-1.9-3.5-1.4-.6-3.1-.2-3.8 1.1-.4.7-.9.8-1.5.8h-26c-1.7 0-2.5.7-2.4 2.2 0 1.4.8 2.1 2.4 2.1h11.4c.4 0 .7 0 1.2.1v36.8c.1 1.5 1.2 2.5 2.7 2.7 1.9.2 3.3-1.2 3.3-3.3v-35c-.1-.5-.1-.9-.1-1.4zM33.1 40.3V3.4c-.1-1.2-1-2.3-2.2-2.6-2-.5-3.8.9-3.8 3.3v39.1c0 1.1.4 2.1 1.5 2.6 1.2.5 2.5.5 3.5-.5.5-.5 1-.6 1.6-.6H53.9c1.3-.2 2.3-.9 2.7-2.2.4-1.3.1-2.4-.9-3.4-1.6-1.5-3.9-1-5.2 1.2H33.1zM15 3.7c-.2-.5-.4-1.3-.9-1.8-.9-1.2-2.6-1.6-4-1.1S7.9 2.5 7.9 4.2c0 1.8.2 3.6.2 5.4l-.3 23.8c-.2 7.6-1.2 15-4 22.1-.9 2.4-2.2 4.6-3.4 6.9-.5.9-.5 1.9.2 2.3.7.5 1.6.3 2.4-.5l.3-.3c6-6.8 9.2-14.8 9.8-23.9.7-10.6 1.1-21.1 1-31.7 0-1.1-.2-2.2.5-3.3.3-.2.3-.7.4-1.3zm229.5 7c.1 0 .2.1.3.1-1.1.9-1.1 1.8-.1 2.3 1.6.8 3.2.8 4.7-.2.4-.2.7-1 .7-1.4s-.5-.9-.9-1.2c-.4-.3-1-.3-1.6-.4s-1.1-.2-1.7-.3c1-.3 2.1-.5 2.9-1 1-.6 1-1.7.8-2.5.5-.4.9-.6 1.1-.9.1-.1-.1-.7-.3-.8-.3-.1-.8-.1-1.2 0-.3 0-.7.3-1 .2-1.6-.4-2.6-.3-3.4.8-.8 1.1-.5 2.2 0 2.9-.1 1.1-.2 1.8-.3 2.4zm25-1c1-.3 2-.5 2.8-1 1-.6 1-1.7.7-2.8.7 0 1.4 0 1.2-.8-.1-.3-.8-.7-1-.6-.8.4-1.6.2-2.4.1-1-.2-1.9.3-2.5 1.1-.7 1.1-.5 2.1.1 2.9-.2.7-.4 1.3-.3 1.7.1.4.1.6-.2.9-.7.7-.6 1.4.3 1.9 1.6.8 3.2.8 4.7-.1.4-.2.8-1 .8-1.5 0-.4-.6-1-1.1-1.2-.7-.3-1.6-.3-2.4-.5-.3.1-.5 0-.7-.1zM158.7 23.6c.9 0 1.7.1 2.5 0 1.5-.2 2.6-1.3 2.5-2.7 0-1.3-1.2-2.5-2.6-2.5-1.4-.1-2.9 0-4.3 0-.2 0-.4.2-.6.3.2.2.3.5.5.5.7.1.8.5.8 1.1v5.8c0 .6-.1 1-.8 1-.2 0-.3.3-.5.5.2.1.4.4.6.4h2.8c.2 0 .4-.3.6-.4-.2-.1-.3-.4-.5-.4-.8 0-.8-.5-.8-1.1-.2-.8-.2-1.5-.2-2.5zm13-12.4c.4.1.6.2.8.2 1.8.4 3-.5 3.4-2.3.5-2.2-.4-4.1-2-4.5-.5-.1-1 .1-1.5.1-.3 0-.6-.1-.9-.1-.7.1-1.3.3-2 .5.2.3.5.7.8 1.1V12c0 .3-.3.6-.5.8-.1.2-.3.4-.3.6 0 .1.3.3.5.3h2c.2 0 .4-.2.5-.4 0-.1-.1-.4-.2-.4-1-.2-.6-1-.6-1.7zm-12.3 24.7v6.7c0 .7-.1 1.1-.9 1.2-.2 0-.4.3-.6.4.2.1.5.4.7.4h3c.2 0 .4-.3.7-.5-.2-.1-.4-.4-.6-.4-.8 0-.9-.5-.9-1.2V35.8c1.4-.3 2.3.1 2.8 1.3.2.4.5.8.9.3.4-.6-.8-2.5-1.5-2.5h-5.6c-.7 0-1.1.3-1.2.9-.1.3-.3.6-.3 1 0 .3.1.6.1.9.3-.2.6-.3.7-.5.5-1.3 1.4-1.6 2.7-1.3zm53.9-9.1v-3.4c0-1.8-1.3-2.6-2.9-2l-.6.3c-.5-.6-1.7-.7-2.2-.1-.1.1 0 .6.1.6.7.1.6.6.6 1v3.1c0 .3-.3.6-.5.8-.1.2-.3.4-.3.5.1.2.3.4.5.4h1.9c.2 0 .4-.2.5-.4-.1-.2-.2-.3-.4-.5s-.5-.4-.5-.6c-.1-1-.1-2.1 0-3.1.1-.9.8-1.2 1.5-1.2.8 0 .9.6.9 1.2v3c0 .2-.3.5-.5.7-.1.2-.3.4-.4.6.2.1.4.3.6.3.6 0 1.2.1 1.7 0 .3 0 .6-.2 1-.4-.3-.1-.6-.4-1-.8zM187.1 5c-.5-.6-1.7-.7-2.2-.1-.1.1 0 .4.1.6.2.3.5.7.5 1 .1 1 .1 2 0 3 0 .3-.3.6-.5.9-.1.2-.3.3-.2.5 0 .1.3.3.4.3h2.1c.2 0 .5-.2.4-.3 0-.2-.2-.4-.3-.5-.2-.2-.5-.4-.5-.6-.1-1.1-.2-2.2 0-3.2.1-.5.9-1 1.4-1.1.7-.2.9.5.9 1 .1 1 .1 2 0 3 0 .3-.4.6-.6.8-.1.2-.3.3-.4.5.2.1.3.4.5.4h2.3c.2 0 .4-.2.5-.4 0-.1-.2-.4-.3-.4-.7 0-.6-.5-.6-.9V6.4c-.1-1.5-1.3-2.3-2.7-1.8-.2.2-.5.3-.8.4zm36.4 6.4h1.3c2.1 0 2.1 0 2.7-2v-.1c0-.2-.1-.5-.1-.7-.2.1-.6.2-.7.4-.7 1.4-1.8 1.7-3.3 1.6-.6 0-.8-.3-.8-.9V3.5c0-.5.1-.9.8-1 .2 0 .4-.3.5-.5-.2-.1-.3-.4-.5-.4h-2.9c-.2 0-.3.3-.5.4.1.2.3.4.4.4.6.1.8.4.8 1v6.2c0 .3-.4.6-.6.9-.2.2-.4.4-.6.5.3.1.5.3.8.3.9.1 1.8.1 2.7.1zm41.8-1.3V6.7c0-1-.4-1.7-1.4-2-1-.2-2-.2-2.8.5-.3.3-.5.8-.5 1.2 0 .1.6.6.7.5.3-.2.5-.6.8-.8.3-.2.8-.6 1-.6.4.1.7.6.9 1 .2.5-.2.7-.7.9-.8.3-1.6.7-2.4 1.2-.6.4-.9 1.1-.6 1.9s.9 1.1 1.7 1.1c.7 0 1.3-.3 2.1-.5.4.5 1.1.7 1.8.3.2-.1.3-.4.4-.5-.3-.4-.6-.6-1-.8zm-24.6 0c-.4.4-.7.6-1 .8.4.1.7.3 1.1.4.5.1 1.1 0 1.6 0 .2 0 .4-.2.5-.4 0-.1-.2-.4-.3-.4-.7 0-.7-.5-.7-1V6.4c0-1.3-.9-2-2.2-1.9-.5.1-1 .3-1.4.5-.3-.3-.7-.5-1-.5-.4.1-.8.4-1.2.6.2.3.5.5.8.9v3.4c0 .3-.3.7-.5 1-.1.2-.3.4-.2.5 0 .1.3.3.4.3h2.1c.2 0 .4-.2.4-.3 0-.2-.2-.4-.3-.5s-.4-.1-.5-.2V6.8c0-.7.7-1.4 1.5-1.4.9 0 1 .6 1 1.3-.1 1.3-.1 2.4-.1 3.4zm-58.1 0V6.5c0-.9-.3-1.5-1.2-1.8-1-.3-2-.3-3 .3-.3.2-.6.5-.6.8s.2.9.4 1c.3.1.7-.2 1-.4.1 0 0-.3.1-.4.3-.2.8-.7 1-.6.4.2.7.7.9 1.1.1.1-.4.6-.7.7-.8.4-1.6.7-2.4 1.2-.6.4-1 1.2-.5 1.9.3.5 1 1 1.6 1.1s1.4-.3 2-.4c.6.2 1.3.2 1.9.2.1 0 .3-.3.4-.5-.2-.2-.5-.4-.9-.6zm-15.2 0V6.5c0-1-.4-1.8-1.4-1.9-.9-.1-1.8.1-2.7.3-.3.1-.6.5-.7.8 0 .3.2.9.4.9.3.1.7-.2 1-.4.1-.1 0-.4.1-.5.4-.2.9-.5 1.1-.4.4.2.6.7.8 1.1.1.1-.3.5-.6.7-.8.4-1.6.7-2.4 1.2-.7.4-.9 1.2-.7 2 .3.8.9 1.1 1.7 1.1.7 0 1.3-.3 1.9-.5.6.2 1.3.3 1.9.2.1 0 .2-.4.4-.5-.1-.1-.4-.3-.8-.5zm-9.3 2.7c-.4-.4-.6-.6-.8-.7-.3-.1-.7-.3-1-.2-.2.1-.5.5-.5.8.1.3.4.7.7.8.3.2.8.2 1.2.1 1.5-.3 2.3-1.3 2.3-2.9V3.6c0-.6.1-1 .7-1.1.2 0 .4-.3.6-.4-.2-.1-.5-.4-.7-.4-.9 0-1.8-.1-2.8 0-.3 0-.5.3-.8.4.2.1.4.4.7.4.6.1.9.3.9 1v7.6c-.1.5-.3 1-.5 1.7zm75.8-2.8V6.6c0-1.2-.5-1.8-1.5-2-1.2-.3-2.8.2-3.1 1-.1.3 0 1 .3 1.2.5.3.9 0 1.2-.6.1-.3.6-.7.9-.7.3 0 .7.3.9.6.2.2.1.6.1.8-1.1.5-2.1 1-3 1.5-.7.4-1 1.3-.6 2 .3.5 1.1.9 1.7 1 .6.1 1.3-.3 1.9-.5.6.2 1.2.3 1.8.3.2 0 .3-.3.4-.5-.3-.2-.6-.4-1-.7zM258 4.4c-.8.1-1.3.2-1.9.4-.2 0-.3.3-.4.5.2.1.3.3.5.4.2.1.4.1.6.2V9c0 .8-.9 1.7-1.8 1.6s-.9-.8-1-1.5V5.3c0-.2-.4-.7-.6-.6-.5.1-1 .4-1.5.6.1.1.1.4.2.4.8 0 .6.7.6 1.1v2.5c0 2.1 1.3 2.9 3.2 2.1.2-.1.5-.1.8-.1.6.1 1.2.2 1.8.2.1 0 .4-.2.4-.4 0-.1-.2-.4-.3-.4-.7-.1-.7-.5-.7-1 .1-1.9.1-3.5.1-5.3zm-33.7 24.8c-.2-.1-.4-.2-.5-.2-.3 0-.7-.1-1 0-.1 0-.2.6-.1.7.2.3.6.5.9.5 1.1.1 1.7-.4 2.1-1.4.7-1.9 1.5-3.8 2.3-5.7.1-.4.5-.6.8-.9.1-.1.4-.4.3-.4-.1-.2-.3-.4-.5-.4-.6 0-1.3-.1-2 0-.2 0-.3.2-.5.4.1.2.3.3.4.5.1.1.3.1.6.2-.4 1.1-.8 2.1-1.3 3.2l-.4-.8c-.4-.8-.7-1.6-1-2.3.3-.4.5-.6.8-.9-.4-.1-.7-.3-1.1-.3-.5-.1-1 0-1.5 0-.2 0-.4.2-.5.4 0 .1.2.3.3.5.3.3.6.6.8.9.5 1 .9 2.2 1.5 3.1.6 1.1.3 1.9-.4 2.9zM208.4 8h1.7c.5 0 1.1.1 1.6 0 .3-.1.8-.4.8-.6.2-1.1-.8-2.4-1.9-2.8-1.3-.4-2.4.1-3.1 1.2-.7 1.3-.7 2.6-.2 4 .8 2 3.7 2.3 5 .7.1-.2.1-.5.2-.8-.2 0-.6 0-.7.1-.7.7-1.4 1-2.3.6-.9-.4-1.1-1.3-1.1-2.4zM174 28.2c1.8 0 3.1-1.4 3.1-3.5 0-2-1.2-3.5-3-3.5s-3.1 1.5-3.1 3.5c0 2.2 1.2 3.5 3 3.5zM194.2 8h1.7c.5 0 1.1.1 1.6 0 .3-.1.8-.4.8-.6.1-1.1-.8-2.4-1.9-2.7-1.2-.4-2.4 0-3.1 1.2-.7 1.4-.8 2.8-.1 4.2.9 1.7 3.7 1.9 4.9.4.1-.2.1-.5.1-.8-.2 0-.6 0-.7.1-.7.7-1.4 1-2.3.6-.8-.4-.9-1.3-1-2.4zm82.5 0h3.4c.3 0 .8-.4.8-.6.2-1-.8-2.3-1.8-2.7-1.2-.4-2.4-.1-3.1 1s-.8 2.4-.5 3.7c.6 2.3 3.4 3 5.1 1.3.2-.2.2-.6.3-.9-.3.1-.6.2-.8.3-.5.2-.9.5-1.4.6-1.2-.1-1.8-.9-2-2.7zM166.2 41.3h3.3c.3 0 .8-.3.8-.6.2-1.4-1.1-2.7-2.5-2.8-2.4-.2-3.4 2.4-2.9 4.7.2 1.1.8 1.9 1.9 2.2 1.2.3 2.3.1 3.2-.8.2-.2.2-.6.2-.9-.3.1-.7 0-.8.2-.7.6-1.4.9-2.2.5-.8-.6-1-1.5-1-2.5zm35.4-16.6h3.4c.5 0 .7-.2.7-.7 0-1.1-.8-2.3-1.9-2.7-1.3-.4-2.4 0-3.1 1.2-.7 1.3-.7 2.6-.2 4 .9 2.3 3.9 2 5 .7.1-.2.1-.5.2-.8-.3.1-.6 0-.8.2-.7.7-1.4.9-2.2.5-.9-.4-1.2-1.3-1.1-2.4zm.6-20.1c-1 0-1.7.5-1.9 1.5s.2 1.8 1.1 2.2c.7.3 1.4.5 2.1.8.3.1.6.6.5.8-.1.3-.5.7-.8.7-.4 0-.9-.2-1.3-.4s-.6-.6-.9-.9c-.2-.1-.4-.2-.6-.2-.1.2-.2.4-.2.6.1.5.4 1 .6 1.5.1.1.3.3.5.3.5.1 1 0 1.5.1 1.1.2 2.2-.4 2.5-1.4.3-1.1-.1-2-1.3-2.5l-1.8-.6c-.5-.2-1-.5-.6-1 .2-.3.9-.6 1.2-.4.5.2.9.8 1.4 1.1.2.1.5.1.8.1-.4-.7-.6-1.5-1.1-2.1-.3-.4-1.1-.2-1.7-.2zm-27.9 33.3c-1.1-.1-1.8.5-2 1.5-.2.9.2 1.7 1.2 2.1.6.2 1.2.4 1.7.6s1.1.5.8 1.2-.9.8-1.5.5-1-.8-1.6-1.2c-.2-.1-.5-.1-.7-.2 0 .3 0 .7.1 1 .2.5.4 1.2.8 1.3.6.2 1.3.1 2 .2 1.1 0 1.9-.6 2.1-1.6.2-1-.2-1.8-1.2-2.2-.6-.3-1.3-.4-1.9-.6-.5-.2-1-.5-.6-1 .2-.3.9-.5 1.2-.4.5.2.9.7 1.4 1 .2.1.5.1.8.2-.3-.7-.5-1.6-1-2.1-.3-.6-1.1-.3-1.6-.3zm6.8-18.6c.3.1.5.2.6.2.4 0 .8 0 1.1-.1.1-.1.2-.7.1-.8-.3-.2-.7-.5-1-.5-1 0-1.6.7-1.9 1.5-.2.6-.3 1.2-.4 1.7-.5.3-.9.5-1.3.7.4.2.9.4 1.4.7v3.7c0 .3-.4.5-.7.7-.2.2-.4.3-.5.5.2.1.4.4.6.4h2.7c.2 0 .4-.2.6-.4-.2-.2-.4-.4-.6-.5-.3-.2-.7-.4-.8-.5-.1-1.4 0-2.7 0-3.9.6-.3 1.1-.4 1.5-.6-.5-.2-1-.5-1.6-.8.1-.5.2-1.2.2-2zm34.3 5.5c0 1.5.5 2.6 1.6 3.1 1.2.5 2.4.4 3.5-.5.3-.2.3-.7.5-1.1-.3.1-.7.1-1 .3-1.3 1-2.8.5-3-1.1-.1-.7 0-1.6.2-2.3.2-.5.7-.9 1.2-1.1.1-.1.6.6.9.8.3.2.7.3 1.1.4.1-.4.3-.9.2-1.2-.1-.3-.6-.6-1-.8-2.3-.7-4.2 1-4.2 3.5zm-26.6.1c0 1.5.6 2.6 1.7 3.1 1.2.5 2.4.4 3.4-.5.3-.2.3-.7.5-1.1-.3.1-.7.1-1 .3-1.3 1-2.8.5-3-1.1-.1-.7-.1-1.5.2-2.2.2-.5.6-1 1.1-1.2.6-.3.7.4 1 .8.2.2.7.3 1 .4.1-.4.5-.9.3-1.1-.2-.4-.7-.8-1.1-.9-2.2-.8-4.1.9-4.1 3.5zm-21.4-3.1c-.3-.7-1.8-.8-2.3-.1-.1.1.1.6.2.6.9 0 .8.6.8 1.2v2.7c0 .5 0 .9-.6.9-.2 0-.3.3-.5.4.2.1.3.4.5.4h2.7c.2 0 .3-.3.5-.4-.1-.2-.3-.5-.4-.5-1 .1-.9-.6-.9-1.2V24c.1-1.1.8-1.6 1.9-1.5.3 0 .7-.4 1-.6-.3-.3-.6-.9-.8-.9-.8.2-1.4.6-2.1.8zm12.2 17.4c0 1.2-.1 2.4 0 3.6.1.6.3 1.6.7 1.7.6.2 1.5 0 2.2-.2.2-.1.3-.6.5-.9-.3 0-.6.1-.9.2-.5.2-1.2.6-1.2-.4-.1-1.4 0-2.7 0-4.2h1.3c.2 0 .4-.3.6-.4-.2-.1-.4-.4-.6-.4-.4-.1-.9 0-1.4 0v-1.6c0-.2-.2-.4-.4-.5-.2.2-.4.3-.5.5-.2.4-.3 1-.6 1.3-.8.8-.8.8.3 1.3zm7.1-18.1c-.7.2-1.2.3-1.7.5s-.6.6-.1.8c.6.2.6.6.6 1v3c0 .3-.3.6-.5.9-.1.2-.3.3-.3.5s.3.4.4.4h2.2c.1 0 .3-.2.4-.4 0-.1-.1-.4-.2-.4-.9-.1-.7-.8-.7-1.3-.2-1.7-.1-3.3-.1-5zm11.3 3.1v-2.1c0-.3-.3-.9-.3-.9-.6.1-1.1.4-1.7.5.2.2.4.5.7.7.1.1.1.2.1.2v4.1c0 .1-.3.3-.5.4-.1.1-.3.3-.2.5 0 .1.3.3.4.3h2c.2 0 .4-.2.4-.3 0-.1-.1-.5-.2-.5-.9-.1-.6-.7-.7-1.2v-1.7zm18.6-16.3c.4 0 .9.1 1.3 0 .2 0 .4-.3.6-.5-.2-.2-.4-.5-.6-.6-.9-.1-1.8-.1-2.6 0-.2 0-.4.4-.6.6.2.2.4.5.6.5.5.1.9 0 1.3 0zm-29.4 11.3c-.5-.5-.8-.9-1.1-.9s-.6.4-.9.7c.3.3.5.8.8.9.2 0 .6-.4 1.2-.7zm11.4-.2c-.6-.4-1-.7-1.3-.7-.3.1-.8.5-.7.8 0 .3.5.7.8.7.3.1.7-.4 1.2-.8z" style="fill:none"/><path d="M71.4 27.4v15.5c0 1.4-.8 2.5-2 2.9s-2.6 0-3.3-1.1c-.4-.6-.6-1.4-.6-2.1V3.7c0-1.2.3-2.3 1.6-2.9 1.3-.6 2.6-.3 3.7.7.2.2.6.4 1 .4H95c.4 0 .8-.2 1.1-.5 1-.9 2.2-1.1 3.4-.6 1.2.4 1.7 1.4 1.7 2.6v22.3c0 1.2-.4 2.2-1.6 2.6s-2.4.4-3.5-.6c-.3-.3-.7-.5-1.1-.5H72.3c-.3.1-.6.2-.9.2zm23.7-4.2V6.3H71.5v16.9h23.6zM130 6.4v36.4c0 2.1-1.4 3.5-3.3 3.3-1.5-.1-2.5-1.2-2.7-2.7V6.6c-.5 0-.8-.1-1.2-.1h-11.4c-1.7 0-2.4-.7-2.4-2.1 0-1.5.8-2.2 2.4-2.2h26c.7 0 1.1-.1 1.5-.8.7-1.2 2.4-1.7 3.8-1.1 1.3.6 2.2 2.1 1.9 3.5-.3 1.5-1.5 2.6-3.1 2.6H130zM33.1 40.3h17.6c1.3-2.2 3.6-2.7 5.2-1.2 1 .9 1.3 2.1.9 3.4-.4 1.3-1.4 2-2.7 2.2H33.9c-.6 0-1.1.1-1.6.6-1 1-2.2.9-3.5.5-1.1-.4-1.5-1.4-1.5-2.6V4.1c0-2.3 1.7-3.8 3.8-3.3 1.2.3 2.1 1.3 2.2 2.6V39c-.2.4-.2.8-.2 1.3zM15 3.7c-.1.6-.1 1.1-.3 1.4-.7 1-.5 2.1-.5 3.3 0 10.6-.3 21.2-1 31.7-.6 9.1-3.8 17-9.8 23.9l-.3.3c-.8.8-1.7 1-2.4.5-.6-.5-.6-1.4-.2-2.3 1.2-2.3 2.4-4.5 3.4-6.9 2.8-7.1 3.8-14.5 4-22.1.2-7.9.3-15.9.3-23.8 0-1.8-.1-3.6-.2-5.4 0-1.7.8-2.9 2.2-3.4s3-.1 4 1.1c.4.4.6 1.2.8 1.7zM244.5 10.7c.1-.6.2-1.3.3-2.2-.6-.7-.8-1.8 0-2.9s1.8-1.3 3.4-.8c.3.1.7-.2 1-.2.4 0 .8-.1 1.2 0 .2.1.4.6.3.8-.2.3-.6.5-1.1.9.2.8.2 1.9-.8 2.5-.8.5-1.9.6-2.9 1 .6.1 1.1.2 1.7.3.5.1 1.1.1 1.6.4.4.2.9.7.9 1.2s-.3 1.2-.7 1.4c-1.5.9-3.1.9-4.7.2-1.1-.5-1-1.4.1-2.3-.1-.2-.2-.3-.3-.3zm3.8-3.6c0-.9-.6-1.7-1.3-1.7s-1.2.7-1.2 1.6.5 1.6 1.2 1.6 1.3-.6 1.3-1.5zm-1.5 5.9.2-.2c.5-.1.9-.1 1.4-.3.2-.1.4-.4.6-.6-.2-.2-.4-.4-.7-.5-.4-.1-.8-.3-1.2-.2-.6.2-1.2.5-1.9.8.5.3 1.1.6 1.6 1zM269.5 9.7c.2.1.5.1.7.2.8.1 1.7.2 2.4.5.5.2 1 .8 1.1 1.2 0 .5-.4 1.2-.8 1.5-1.5.9-3.1.9-4.7.1-.9-.5-1-1.2-.3-1.9.3-.3.3-.5.2-.9-.1-.5.2-1 .3-1.7-.6-.7-.8-1.8-.1-2.9.6-.9 1.4-1.3 2.5-1.1.8.2 1.6.4 2.4-.1.2-.1.9.3 1 .6.2.8-.5.9-1.2.8.3 1.1.3 2.2-.7 2.8-.8.5-1.9.6-2.8.9zm2.3-2.6c0-1-.5-1.7-1.2-1.7s-1.2.7-1.3 1.6c0 .9.5 1.6 1.2 1.6s1.2-.6 1.3-1.5zm-3.2 4.9c.8.8 2.6 1 3.4.4.2-.1.3-.7.1-.9-.7-.7-2.7-.4-3.5.5zM158.7 23.6V26c0 .6 0 1.1.8 1.1.2 0 .3.3.5.4-.2.2-.4.4-.6.4h-2.8c-.2 0-.4-.3-.6-.4.2-.2.3-.5.5-.5.7 0 .8-.5.8-1v-5.8c0-.6-.1-1-.8-1.1-.2 0-.3-.3-.5-.5.2-.1.4-.3.6-.3 1.4 0 2.9-.1 4.3 0 1.5.1 2.6 1.2 2.6 2.5 0 1.4-1 2.6-2.5 2.7-.6.2-1.4.1-2.3.1zm0-.9c.3 0 .5.1.7.1h1.2c.9-.1 1.6-.7 1.5-1.6-.1-.6-.4-1.4-.8-1.6-.7-.3-1.6-.2-2.4-.2-.1 0-.2.3-.2.4v2.9zM171.7 11.2c0 .7-.4 1.5.7 1.7.1 0 .2.3.2.4-.1.2-.3.4-.5.4h-2c-.2 0-.5-.2-.5-.3 0-.2.2-.4.3-.6.2-.3.5-.6.5-.8V6.2c-.3-.5-.6-.8-.8-1.1.7-.2 1.3-.4 2-.5.3-.1.6.1.9.1.5 0 1-.2 1.5-.1 1.6.3 2.5 2.3 2 4.5-.4 1.9-1.6 2.7-3.4 2.3-.3 0-.6-.1-.9-.2zm-.1-3.1v.8c-.1.8.2 1.3 1 1.5.9.1 1.4-.2 1.7-1 .4-1.1.5-2.2-.2-3.1-.3-.4-1-.7-1.4-.6s-.9.7-1.1 1.1c-.1.4 0 .9 0 1.3zM159.4 35.9c-1.4-.3-2.2 0-2.8 1.2-.1.2-.5.4-.7.5 0-.3-.2-.6-.1-.9 0-.3.2-.6.3-1 .2-.7.5-.9 1.2-.9h5.6c.7 0 1.9 2 1.5 2.5s-.7.1-.9-.3c-.5-1.2-1.4-1.6-2.8-1.3V42.4c0 .7.1 1.1.9 1.2.2 0 .4.3.6.4-.2.2-.4.4-.7.5-1 .1-2 0-3 0-.2 0-.5-.3-.7-.4.2-.2.4-.4.6-.4.8 0 .9-.5.9-1.2.1-2.1.1-4.3.1-6.6zM213.3 26.8c.5.4.7.7 1 .9-.3.1-.6.3-1 .4-.6.1-1.2 0-1.7 0-.2 0-.4-.2-.6-.3.1-.2.3-.4.4-.6.2-.2.5-.4.5-.7.1-1 0-2 0-3 0-.6-.1-1.3-.9-1.2-.7 0-1.5.4-1.5 1.2-.1 1 0 2.1 0 3.1 0 .2.3.4.5.6.1.2.3.3.4.5-.2.1-.3.3-.5.4H208c-.2 0-.4-.2-.5-.4 0-.1.2-.3.3-.5.2-.3.4-.5.5-.8.1-1 0-2.1 0-3.1 0-.4.1-.9-.6-1-.1 0-.2-.5-.1-.6.5-.6 1.7-.5 2.2.1l.6-.3c1.7-.6 2.9.2 2.9 2v3.3zM187.1 5c.3-.1.6-.3.8-.4 1.5-.5 2.6.3 2.7 1.8v3.1c0 .5-.1.9.6.9.1 0 .4.3.3.4-.1.2-.3.4-.5.4h-2.3c-.2 0-.3-.2-.5-.4.1-.2.3-.3.4-.5.2-.3.5-.6.6-.8.1-1 .1-2 0-3 0-.6-.3-1.2-.9-1-.6.2-1.3.7-1.4 1.1-.2 1-.1 2.1 0 3.2 0 .2.3.4.5.6.1.2.3.4.3.5s-.3.3-.4.3h-2.1c-.2 0-.4-.2-.4-.3 0-.1.2-.3.2-.5.2-.3.5-.6.5-.9.1-1 .1-2 0-3 0-.3-.4-.7-.5-1-.1-.2-.2-.5-.1-.6.5-.5 1.7-.5 2.2.1zM223.5 11.4h-2.7c-.3 0-.5-.2-.8-.3.2-.2.4-.3.6-.5.2-.3.6-.6.6-.9.1-2.1 0-4.1 0-6.2 0-.6-.2-.9-.8-1-.2 0-.3-.3-.4-.4.2-.1.3-.4.5-.4h2.9c.2 0 .3.2.5.4-.2.2-.3.4-.5.5-.7 0-.8.4-.8 1v6.2c0 .6.2.8.8.9 1.4.1 2.6-.3 3.3-1.6.1-.2.5-.2.7-.4 0 .2.1.5.1.7v.1c-.6 2-.6 2-2.7 2-.4-.1-.8-.1-1.3-.1zM265.3 10.1c.4.2.7.4 1 .6-.1.2-.2.4-.4.5-.7.5-1.4.3-1.8-.3-.8.2-1.4.5-2.1.5-.8.1-1.4-.3-1.7-1.1-.3-.8 0-1.5.6-1.9.7-.5 1.5-.9 2.4-1.2.5-.2.9-.4.7-.9-.2-.4-.5-.9-.9-1-.3-.1-.7.3-1 .6-.3.2-.5.6-.8.8-.1.1-.7-.4-.7-.5.1-.4.2-.9.5-1.2.8-.7 1.8-.7 2.8-.5 1 .3 1.4 1 1.4 2v3.6zM263.8 8c-.7.4-1.3.7-1.9 1.1-.2.2-.3.7-.2.9.2.2.6.4.9.4 1.2-.1 1.5-.8 1.2-2.4zM240.7 10.1V6.8c0-.6-.1-1.3-1-1.3-.7 0-1.5.7-1.5 1.4v3.4c.2.1.4.1.5.2.2.1.3.3.3.5 0 .1-.3.3-.4.3h-2.1c-.2 0-.4-.2-.4-.3 0-.1.1-.3.2-.5.2-.3.5-.7.5-1 .1-1.2 0-2.4 0-3.4-.4-.4-.6-.7-.8-.9.4-.2.8-.5 1.2-.6.3-.1.7.2 1 .5.5-.2.9-.4 1.4-.5 1.3-.2 2.1.6 2.2 1.9v3.1c0 .5-.1 1 .7 1 .1 0 .3.3.3.4-.1.2-.3.4-.5.4-.5.1-1.1.1-1.6 0-.4 0-.8-.3-1.1-.4.3-.3.6-.5 1.1-.9zM182.6 10.1c.4.2.7.4 1 .6-.1.2-.2.5-.4.5-.6 0-1.3 0-1.9-.2-.7.2-1.4.5-2 .4s-1.2-.6-1.6-1.1c-.4-.7-.1-1.5.5-1.9.7-.5 1.6-.8 2.4-1.2.3-.2.7-.6.7-.7-.2-.4-.5-.9-.9-1.1-.2-.1-.7.3-1 .6-.1.1 0 .3-.1.4-.3.2-.7.5-1 .4-.2-.1-.4-.6-.4-1 0-.3.3-.6.6-.8.9-.6 1.9-.7 3-.3.9.3 1.2 1 1.2 1.8-.1 1.3-.1 2.5-.1 3.6zM181.3 8c-.7.4-1.4.8-2 1.2-.2.1-.3.7-.2.9.2.2.6.4.9.4 1.1-.2 1.5-.9 1.3-2.5zM167.4 10.1c.4.2.7.4 1 .6-.1.2-.2.5-.4.5-.6 0-1.3 0-1.9-.2-.6.2-1.3.4-1.9.5-.7 0-1.4-.3-1.7-1.1-.3-.8 0-1.5.7-2s1.6-.7 2.4-1.2c.3-.1.6-.5.6-.7-.1-.4-.4-.9-.8-1.1-.3-.1-.8.2-1.1.4-.1.1 0 .4-.1.5-.3.2-.7.5-1 .4-.2-.1-.5-.6-.4-.9 0-.3.4-.7.7-.8.9-.2 1.8-.4 2.7-.3 1 .1 1.4.9 1.4 1.9-.2 1.2-.2 2.4-.2 3.5zM166 8c-.7.4-1.3.7-1.9 1.1-.2.2-.2.7-.3 1.1.4.1.8.3 1.1.2 1.2-.3 1.4-.8 1.1-2.4zM158.1 12.8c.2-.7.4-1.2.4-1.7V3.5c0-.7-.4-.9-.9-1-.2-.1-.5-.3-.7-.4.3-.2.5-.4.8-.4.9-.1 1.8 0 2.8 0 .2 0 .5.3.7.4-.2.2-.3.4-.6.4-.7.1-.7.6-.7 1.1v7.1c0 1.7-.7 2.6-2.3 2.9-.4.1-.8 0-1.2-.1-.3-.1-.6-.5-.7-.8 0-.2.2-.7.5-.8.3-.1.7.1 1 .2.3.1.4.3.9.7zM233.9 10c.4.3.7.5 1 .7-.1.2-.3.5-.4.5-.6 0-1.2 0-1.8-.3-.7.2-1.3.5-1.9.5-.6-.1-1.4-.5-1.7-1-.4-.7-.1-1.5.6-2 .9-.6 1.9-1 3-1.5 0-.2 0-.6-.1-.8-.2-.3-.6-.7-.9-.6-.3 0-.8.4-.9.7-.3.6-.6.9-1.2.6-.3-.2-.4-.9-.3-1.2.3-.8 2-1.3 3.1-1 1 .2 1.5.9 1.5 2V10zm-1.4-2c-.7.4-1.4.7-1.9 1.2-.2.2-.4.8-.3.9.2.2.7.4 1 .3 1.2-.2 1.4-.8 1.2-2.4zM258 4.4v5.1c0 .5-.1 1 .7 1 .1 0 .3.3.3.4s-.2.4-.4.4c-.6 0-1.2-.1-1.8-.2-.3 0-.6 0-.8.1-1.9.8-3.2 0-3.2-2.1V6.6c0-.5.2-1.1-.6-1.1-.1 0-.2-.3-.2-.4.5-.2 1-.5 1.5-.6.2 0 .6.4.6.6.1 1.3 0 2.5 0 3.8 0 .7 0 1.4 1 1.5.8.1 1.7-.8 1.8-1.6V5.7c-.2-.1-.4-.1-.6-.2s-.3-.3-.5-.4c.1-.2.2-.4.4-.5.4 0 1-.1 1.8-.2zM224.3 29.2c.7-1 1-1.8.4-2.9-.6-1-1-2.1-1.5-3.1-.2-.4-.6-.6-.8-.9-.1-.1-.3-.4-.3-.5.1-.2.3-.4.5-.4.5-.1 1-.1 1.5 0 .4 0 .7.2 1.1.3-.2.3-.5.5-.8.9.3.7.6 1.5 1 2.3l.4.8c.5-1.2.8-2.2 1.3-3.2-.2-.1-.4-.1-.6-.2-.2-.1-.3-.3-.4-.5.2-.1.3-.4.5-.4h2c.2 0 .4.2.5.4 0 .1-.2.3-.3.4-.3.3-.7.6-.8.9-.8 1.9-1.5 3.8-2.3 5.7-.4 1-1.1 1.5-2.1 1.4-.3 0-.7-.3-.9-.5-.1-.1 0-.7.1-.7.3-.1.7-.1 1 0 .1 0 .3.1.5.2zM208.4 8c.1 1 .3 1.9 1.2 2.4.9.4 1.7.1 2.3-.6.1-.1.5-.1.7-.1 0 .3 0 .6-.2.8-1.3 1.7-4.2 1.3-5-.7-.5-1.3-.5-2.7.2-4 .6-1.1 1.8-1.6 3.1-1.2 1.1.3 2.1 1.7 1.9 2.8 0 .2-.5.6-.8.6-.5.1-1.1 0-1.6 0h-1.8zm2.8-.9c-.1-1-.5-1.7-1.4-1.6-.8.1-1.2.7-1.2 1.6h2.6zM174 28.2c-1.8 0-3-1.3-3-3.4s1.3-3.5 3.1-3.5 3 1.5 3 3.5-1.3 3.4-3.1 3.4zm1.7-3.4c-.1-.6-.1-1.1-.3-1.5-.3-.5-.9-1.1-1.3-1.1-.5 0-1.2.6-1.4 1.1-.5 1-.5 2.2.1 3.2.2.4.8.8 1.3.8.4 0 1-.4 1.2-.9.3-.4.3-1.1.4-1.6zM194.2 8c.1 1 .2 1.9 1.2 2.4.9.4 1.6.1 2.3-.6.1-.1.5-.1.7-.1 0 .3 0 .6-.1.8-1.2 1.5-4 1.3-4.9-.4-.7-1.4-.7-2.9.1-4.2.6-1.2 1.8-1.6 3.1-1.2 1.1.3 2.1 1.7 1.9 2.7 0 .2-.5.6-.8.6-.5.1-1.1 0-1.6 0h-1.9zm2.8-1c-.1-.9-.5-1.6-1.3-1.6-.9 0-1.2.7-1.3 1.6h2.6zM276.7 8c.1 1.8.7 2.6 1.9 2.5.5 0 .9-.4 1.4-.6.3-.1.6-.2.8-.3-.1.3-.1.7-.3.9-1.6 1.7-4.4 1-5.1-1.3-.3-1.3-.3-2.5.5-3.7.7-1.1 1.9-1.4 3.1-1 1 .4 2 1.7 1.8 2.7 0 .3-.5.6-.8.6-1 .3-2.1.2-3.3.2zm.1-1h2.7c-.1-.9-.4-1.6-1.3-1.6s-1.2.7-1.4 1.6zM166.2 41.3c0 1.1.2 1.9 1.1 2.4.8.5 1.6.1 2.2-.5.2-.2.6-.1.8-.2-.1.3-.1.7-.2.9-.9.9-2 1.1-3.2.8-1.1-.3-1.7-1.1-1.9-2.2-.5-2.3.5-4.9 2.9-4.7 1.4.1 2.7 1.4 2.5 2.8 0 .2-.5.6-.8.6-1.2.1-2.2.1-3.4.1zm.1-1h2.7c-.1-.9-.4-1.6-1.4-1.6-.9 0-1.2.7-1.3 1.6zM201.6 24.7c-.1 1.1.2 1.9 1.1 2.4.8.4 1.6.1 2.2-.5.2-.2.5-.1.8-.2 0 .3 0 .6-.2.8-1.1 1.3-4.2 1.6-5-.7-.5-1.4-.5-2.7.2-4 .6-1.2 1.8-1.6 3.1-1.2 1.1.3 1.9 1.5 1.9 2.7 0 .5-.2.7-.7.7h-3.4zm2.7-.9c-.1-1.1-.6-1.7-1.3-1.6-.7 0-1.2.6-1.2 1.6h2.5zM202.2 4.6c.6 0 1.4-.2 1.6 0 .5.5.8 1.4 1.1 2.1-.3 0-.6.1-.8-.1-.5-.3-.9-.9-1.4-1.1-.3-.1-1 .1-1.2.4-.3.5.1.9.6 1l1.8.6c1.1.5 1.6 1.4 1.3 2.5-.3 1-1.4 1.5-2.5 1.4-.5-.1-1 0-1.5-.1-.2 0-.4-.1-.5-.3l-.6-1.5c0-.2.1-.4.2-.6.2.1.4.1.6.2.3.3.6.7.9.9.4.2.9.4 1.3.4.3 0 .7-.4.8-.7.1-.2-.2-.7-.5-.8-.7-.3-1.4-.5-2.1-.8-.9-.4-1.3-1.2-1.1-2.2.3-.8 1-1.4 2-1.3zM174.3 37.9c.6 0 1.4-.2 1.6 0 .5.6.7 1.4 1 2.1-.3-.1-.6-.1-.8-.2-.5-.3-.9-.8-1.4-1-.3-.1-1 .1-1.2.4-.3.5.1.9.6 1 .6.2 1.3.4 1.9.6 1 .4 1.4 1.2 1.2 2.2s-1 1.6-2.1 1.6c-.7 0-1.4.1-2-.2-.4-.2-.6-.8-.8-1.3-.1-.3-.1-.6-.1-1 .3.1.5.1.7.2.5.4 1 .9 1.6 1.2.5.3 1.2.2 1.5-.5s-.3-1-.8-1.2c-.6-.2-1.2-.4-1.7-.6-1-.4-1.4-1.2-1.2-2.1.2-.7.9-1.3 2-1.2zM181.1 19.3c-.1.8-.2 1.5-.2 2 .6.3 1.1.6 1.6.8-.5.2-.9.4-1.5.6v3.9c0 .2.5.4.8.5.2.2.4.3.6.5-.2.1-.4.4-.6.4h-2.7c-.2 0-.4-.3-.6-.4.2-.2.4-.3.5-.5.2-.2.7-.5.7-.7.1-1.3 0-2.5 0-3.7-.5-.3-1-.5-1.4-.7.4-.2.8-.4 1.3-.7.1-.5.2-1.1.4-1.7.3-.8.9-1.5 1.9-1.5.4 0 .8.2 1 .5.1.1.1.7-.1.8-.3.2-.7.1-1.1.1-.1 0-.2-.1-.6-.2zM215.4 24.8c0-2.6 2-4.2 4.1-3.4.4.1.9.4 1 .8.1.3-.1.8-.2 1.2-.4-.1-.8-.2-1.1-.4-.4-.2-.8-.9-.9-.8-.5.2-1 .6-1.2 1.1-.2.7-.3 1.6-.2 2.3.3 1.6 1.8 2 3 1.1.3-.2.7-.2 1-.3-.2.4-.2.8-.5 1.1-1 .9-2.2 1-3.5.5-1-.6-1.6-1.7-1.5-3.2zM188.8 24.9c0-2.6 1.9-4.2 4.1-3.5.4.2.9.5 1.1.9.1.2-.2.7-.3 1.1-.4-.1-.8-.2-1-.4-.3-.4-.4-1.1-1-.8-.5.2-1 .7-1.1 1.2-.2.7-.3 1.5-.2 2.2.2 1.6 1.7 2 3 1.1.3-.2.7-.2 1-.3-.2.4-.2.8-.5 1.1-1 .8-2.2 1-3.4.5-1.1-.5-1.7-1.6-1.7-3.1zM167.4 21.8c.6-.2 1.3-.6 1.9-.7.2 0 .6.6.8.9-.3.2-.7.6-1 .6-1.1-.1-1.8.4-1.9 1.5v1.8c0 .6-.1 1.3.9 1.2.1 0 .3.3.4.5-.2.1-.3.4-.5.4h-2.7c-.2 0-.3-.3-.5-.4.2-.2.3-.4.5-.4.7 0 .6-.5.6-.9v-2.7c0-.6.1-1.2-.8-1.2-.1 0-.2-.5-.2-.6.7-.8 2.2-.6 2.5 0zM179.6 39.2c-1.1-.5-1.1-.5-.2-1.3.3-.3.4-.9.6-1.3.1-.2.3-.3.5-.5.1.2.3.3.4.5.1.5 0 .9 0 1.6h1.4c.2 0 .4.3.6.4-.2.1-.4.4-.6.4-.4.1-.8 0-1.3 0 0 1.5-.1 2.8 0 4.2.1.9.7.5 1.2.4.3-.1.6-.1.9-.2-.2.3-.3.9-.5.9-.7.2-1.6.4-2.2.2-.4-.2-.7-1.1-.7-1.7-.2-1.2-.1-2.4-.1-3.6zM186.7 21.1V26c0 .5-.2 1.2.7 1.3.1 0 .2.3.2.4-.1.2-.2.4-.4.4H185c-.2 0-.4-.2-.4-.4 0-.1.2-.3.3-.5.2-.3.5-.6.5-.9.1-1 0-2 0-3 0-.4 0-.8-.6-1-.5-.2-.4-.6.1-.8.5-.2 1-.3 1.8-.4zM198 24.2V26c0 .5-.2 1.2.7 1.2.1 0 .3.3.2.5 0 .1-.3.3-.4.3h-2c-.2 0-.4-.2-.4-.3 0-.1.1-.4.2-.5.1-.2.5-.3.5-.4v-4.1c0-.1-.1-.2-.1-.2-.2-.2-.4-.5-.7-.7.6-.2 1.1-.4 1.7-.5 0 0 .3.6.3.9.1.6 0 1.3 0 2zM216.6 7.9c-.4 0-.8.1-1.2 0-.2-.1-.4-.3-.6-.5.2-.2.4-.5.6-.6.9-.1 1.8-.1 2.6 0 .2 0 .4.4.6.6-.2.2-.4.5-.6.5-.5.1-.9 0-1.4 0zM187.2 19.2c-.6.3-1 .7-1.3.7-.3-.1-.5-.6-.8-.9.3-.2.6-.7.9-.7.4 0 .7.4 1.2.9zM198.6 19c-.6.4-.9.9-1.2.9s-.8-.5-.8-.7c0-.3.4-.8.7-.8.3-.2.7.2 1.3.6z"/><path class="st1" d="M248.3 7.1c0 .9-.6 1.5-1.3 1.5s-1.2-.7-1.2-1.6.6-1.6 1.2-1.6c.7 0 1.3.8 1.3 1.7zM246.8 13c-.5-.4-1.1-.7-1.6-1.1.6-.3 1.2-.6 1.9-.8.4-.1.8.1 1.2.2.3.1.5.3.7.5-.2.2-.3.5-.6.6-.4.2-.9.2-1.4.3-.1.2-.1.3-.2.3zM271.8 7.1c0 .9-.6 1.5-1.3 1.5-.7 0-1.2-.7-1.2-1.6s.6-1.6 1.3-1.6c.6 0 1.2.7 1.2 1.7zM268.6 12c.8-.9 2.8-1.2 3.5-.5.1.1 0 .7-.1.9-.8.7-2.5.4-3.4-.4zM158.7 22.7v-2.9c0-.1.1-.4.2-.4.8 0 1.7-.1 2.4.2.4.2.8 1 .8 1.6.1.9-.6 1.5-1.5 1.6h-1.2c-.2-.1-.4-.1-.7-.1zM171.6 8.1c0-.4-.1-1 0-1.3.2-.5.7-1.1 1.1-1.1.4-.1 1.1.3 1.4.6.7 1 .6 2.1.2 3.1-.3.7-.8 1.1-1.7 1s-1.1-.7-1-1.5c.1-.2 0-.5 0-.8zM263.8 8c.3 1.6-.1 2.3-1.2 2.4-.3 0-.8-.1-.9-.4-.1-.2 0-.7.2-.9.6-.4 1.3-.7 1.9-1.1zM181.3 8c.2 1.6-.2 2.4-1.3 2.5-.3 0-.8-.1-.9-.4-.1-.2 0-.7.2-.9.6-.5 1.2-.8 2-1.2zM166 8c.3 1.6.1 2.1-1.1 2.4-.3.1-.7-.1-1.1-.2.1-.4.1-.9.3-1.1.6-.5 1.2-.7 1.9-1.1zM232.5 8c.2 1.6 0 2.2-1.1 2.4-.3.1-.8-.1-1-.3-.1-.1 0-.8.3-.9.5-.5 1.1-.8 1.8-1.2zM211.2 7.1h-2.6c-.1-.9.3-1.6 1.2-1.6.9-.1 1.3.6 1.4 1.6zM175.7 24.8c-.1.5-.1 1.1-.4 1.6-.3.4-.8.9-1.2.9s-1-.4-1.3-.8c-.6-1-.6-2.1-.1-3.2.2-.5.9-1.1 1.4-1.1s1 .6 1.3 1.1c.3.4.2 1 .3 1.5zM197 7h-2.7c.1-.9.4-1.6 1.3-1.6 1 0 1.3.7 1.4 1.6zM276.8 7c.1-.9.4-1.6 1.4-1.6.9 0 1.2.7 1.3 1.6h-2.7zM166.3 40.3c.1-.9.4-1.6 1.3-1.6 1 0 1.3.7 1.4 1.6h-2.7zM204.3 23.8h-2.5c0-1 .4-1.6 1.2-1.6.7-.1 1.2.5 1.3 1.6z"/><path d="M87.6 14.7c0 2.4-1.8 4.3-4.3 4.3-2.4 0-4.4-1.9-4.4-4.3s1.9-4.3 4.3-4.3c2.5 0 4.4 1.9 4.4 4.3z" style="fill:#e60012"/></svg>