<svg xmlns="http://www.w3.org/2000/svg" width="842.549" height="163.878" id="svg2" version="1.1"><g id="layer1" transform="translate(-28.03 -225.572)"><path style="fill:#004b8e;fill-opacity:1;stroke:none" d="M175.514 295.884c.002-11.236 7.975-20.717 26.77-20.582 12.89.167 16.92 3.03 16.92 3.03l-4.452 11.807c-4.416-1.639-7.298-2.926-13.353-3.03-6.055-.105-11.46 3.07-10.89 6.755.742 4.664 7.639 6.89 13.163 9.754s11.861 7.892 11.743 16.352c.04 16.699-16.626 21.541-27.022 21.75-10.395.209-16.768-2.476-21.086-5.05l4.924-11.46c4.964 1.811 10.746 4.437 17.141 4.514 6.395.077 10.652-2.625 10.764-7.323.05-5.14-10.338-9.102-13.384-10.607-3.046-1.505-11.208-6.636-11.238-15.91z" id="path3010"/><path style="fill:#004b8e;fill-opacity:1;stroke:none" d="m147.321 340.583 9.758-52.401h14.528c2.74-8.562 7.68-10.282 12.5-12.375h-54.553l-2.411 12.375h15.446l-9.464 52.401z" id="path3018"/><path style="fill:#004b8e;fill-opacity:1;stroke:none" d="M71.25 340.583h43.125l2.143-12.15H87.946l2.858-14.91h25.625l2.142-12.054H93.125l2.321-13.287h26.965l2.5-12.375H83.214z" id="path3020"/><path style="fill:#8a2529;fill-opacity:1;stroke:none" d="M100.536 265.22s33.156-40.145 92.143-39.644c51.544.439 72.383 29.942 73.035 58.75.643 28.35-33.035 56.257-33.035 56.257s16.653-23.481 16.428-48.935c-.273-30.95-21.456-53.535-66.25-54.286-44.438-.745-82.321 27.857-82.321 27.857z" id="path3022"/><path style="fill:#004b8e;fill-opacity:1;stroke:none" d="M107.136 247.568c-31.326 9.99-79.347 44.017-79.104 83.798.204 33.545 30.897 58.015 82.832 58.084 79.527.105 120.207-47.795 120.207-47.795s-40.824 35.003-108.214 36.957c-32.242.935-77.84-12.073-77.143-51.607.87-49.304 61.422-79.437 61.422-79.437z" id="path3026"/><g transform="scale(.97123 1.02962)" style="font-size:.97921rem;font-style:normal;font-variant:normal;font-weight:400;font-stretch:normal;line-height:125%;letter-spacing:0;word-spacing:0;fill:#004b8e;fill-opacity:1;stroke:none;font-family:Arial;-inkscape-font-specification:Arial" id="text3796"><path d="M263.111 344.566h-1.874l-.94-2.647c-.19-.526-.446-.92-.77-1.186-.324-.265-.758-.398-1.304-.398h-2.188v4.23h-1.729v-10.373h4.605c.551 0 1.059.049 1.523.145.464.097.863.26 1.197.486.334.227.594.528.78.903.187.375.28.84.28 1.396 0 .73-.198 1.324-.593 1.783-.396.459-.955.757-1.68.895.378.147.698.386.96.715.263.329.492.756.685 1.281zm-7.076-5.7h2.693c.382 0 .711-.03.987-.092.275-.06.5-.158.677-.29.176-.133.306-.305.39-.517.084-.211.126-.468.126-.768 0-.541-.162-.945-.486-1.213-.323-.268-.827-.402-1.51-.402h-2.877z" style="font-weight:700;text-align:start;-ms-writing-mode:lr-tb;writing-mode:lr-tb;text-anchor:start;fill:#004b8e;font-family:Shruti;-inkscape-font-specification:Shruti Bold" id="path3803"/></g><path style="fill:none;stroke:#004b8e;stroke-opacity:1" id="path3800" d="M259.821 349.505a8.571 8.571 0 1 1-17.142 0 8.571 8.571 0 0 1 17.142 0z"/><g id="g3805" style="font-size:.97921rem;font-style:normal;font-variant:normal;font-weight:400;font-stretch:normal;line-height:125%;letter-spacing:0;word-spacing:0;fill:#004b8e;fill-opacity:1;stroke:none;font-family:Arial;-inkscape-font-specification:Arial" transform="matrix(.97123 0 0 1.02962 610.258 24.686)"><path id="path3807" style="font-weight:700;text-align:start;-ms-writing-mode:lr-tb;writing-mode:lr-tb;text-anchor:start;fill:#004b8e;font-family:Shruti;-inkscape-font-specification:Shruti Bold" d="M263.111 344.566h-1.874l-.94-2.647c-.19-.526-.446-.92-.77-1.186-.324-.265-.758-.398-1.304-.398h-2.188v4.23h-1.729v-10.373h4.605c.551 0 1.059.049 1.523.145.464.097.863.26 1.197.486.334.227.594.528.78.903.187.375.28.84.28 1.396 0 .73-.198 1.324-.593 1.783-.396.459-.955.757-1.68.895.378.147.698.386.96.715.263.329.492.756.685 1.281zm-7.076-5.7h2.693c.382 0 .711-.03.987-.092.275-.06.5-.158.677-.29.176-.133.306-.305.39-.517.084-.211.126-.468.126-.768 0-.541-.162-.945-.486-1.213-.323-.268-.827-.402-1.51-.402h-2.877z"/></g><path d="M259.821 349.505a8.571 8.571 0 1 1-17.142 0 8.571 8.571 0 0 1 17.142 0z" id="path3809" style="fill:none;stroke:#004b8e;stroke-opacity:1" transform="translate(610.258 24.686)"/><path style="fill:#004b8e;fill-opacity:1;stroke:none" d="M495.719 230.094c-54.805 0-81.552 50.391-81.063 92.687.51 44.024 31.263 62.628 59.875 62.625 56.413-.007 80.188-50.53 80.281-91.656.067-29.074-11.57-63.656-59.093-63.656zm-3.875 21.875c29.628.039 35.21 21.92 35.469 40.5.398 28.763-14.28 71.571-48.75 71.219-29.965-.307-36.138-23.277-36.125-41.657.025-37.637 20.841-70.1 49.406-70.062z" id="path3813"/><path style="fill:#004b8e;fill-opacity:1;stroke:none" d="m360.624 383.076 23.992-128.482h41.416l4.546-22.589H320.976l-4.04 22.59h41.416L334.36 383.075z" id="path3821"/><path style="fill:#004b8e;fill-opacity:1;stroke:none" d="m552.048 383.076 29.042-151.071h83.59l-4.293 22.59h-57.831l-7.324 39.395h54.044l-4.167 21.466H591.25l-8.393 45.204h60.105l-4.212 22.416z" id="path3829"/><path style="fill:#004b8e;fill-opacity:1;stroke:none" d="m656.41 383.076 28.915-151.071h83.096l-4.24 22.59h-57.053l-8.229 42.173h53.033l-4.924 22.476h-52.55l-11.847 63.832z" id="path3831"/><path style="fill:#004b8e;fill-opacity:1;stroke:none" d="m754.643 383.076 28.75-151.071H810L785 360.66h59.286l-4.107 22.416z" id="path3833"/></g></svg>